<?xml version="1.0" encoding="iso-8859-1"?>
<!-- Generator: Adobe Illustrator 19.0.0, SVG Export Plug-In . SVG Version: 6.00 Build 0)  -->
<svg xmlns="http://www.w3.org/2000/svg" xmlns:xlink="http://www.w3.org/1999/xlink" version="1.1" id="Capa_1" x="0px" y="0px" viewBox="0 0 512.002 512.002" style="enable-background:new 0 0 512.002 512.002;" xml:space="preserve">
<path style="fill:#A766B2;" d="M401.611,230.801l82.321-82.321c21.855-21.855,18.495-47.318,11.993-72.178  c-6.282-24.02-13.165-47.02-13.165-47.02l-0.04-0.04c0,0-23-6.883-47.02-13.165c-24.86-6.502-50.323-9.862-72.178,11.993  l-82.321,82.322L401.611,230.801z"/>
<path d="M2.945,126.456c1.949,1.968,4.508,2.951,7.068,2.951c2.545,0,5.093-0.97,7.049-2.907c3.924-3.886,3.93-10.243,0.044-14.167  c-3.888-3.925-10.219-3.955-14.142-0.069c-3.925,3.886-3.955,10.218-0.069,14.142L2.945,126.456z"/>
<path d="M112.439,17.213c1.953,1.953,4.512,2.929,7.071,2.929s5.118-0.976,7.071-2.929c3.905-3.905,3.905-10.237,0-14.143  l-0.141-0.141c-3.906-3.905-10.236-3.905-14.143,0c-3.905,3.905-3.905,10.237,0,14.143L112.439,17.213z"/>
<path d="M57.624,71.765c1.951,1.947,4.506,2.92,7.062,2.92c2.563,0,5.127-0.98,7.08-2.938c3.9-3.91,3.893-10.242-0.018-14.142  l-0.383-0.381c-3.908-3.9-10.241-3.892-14.142,0.018s-3.892,10.242,0.018,14.143L57.624,71.765z"/>
<path d="M509.072,433.252l-40.098-40.097c-1.876-1.875-4.419-2.929-7.071-2.929h-57.535L270.145,256.002l71.262-71.262  l53.133,53.133c1.953,1.953,4.512,2.929,7.071,2.929s5.118-0.976,7.071-2.929l82.321-82.321  c25.067-25.067,21.83-54.119,14.597-81.779c-6.254-23.912-13.19-47.125-13.26-47.356c-0.475-1.588-1.377-3.073-2.549-4.245  c-1.172-1.171-2.617-2.034-4.204-2.509c-0.231-0.069-23.444-7.005-47.356-13.259c-27.661-7.234-56.712-10.473-81.78,14.597  l-82.32,82.32c-3.905,3.905-3.905,10.237,0,14.143l53.134,53.134l-71.262,71.263l-60.104-60.105l1.505-1.505  c14.204-14.205,22.027-33.09,22.027-53.179s-7.823-38.974-22.027-53.179L153.64,30.13c-3.906-3.905-10.236-3.905-14.143,0  c-3.905,3.905-3.905,10.237,0,14.142l43.764,43.763c10.428,10.427,16.17,24.291,16.17,39.037s-5.742,28.609-16.17,39.037  l-1.505,1.505l-82.8-82.8c-3.906-3.905-10.236-3.905-14.143,0c-3.905,3.905-3.905,10.237,0,14.143l82.8,82.8l-1.505,1.505  c-10.764,10.764-24.897,16.146-39.037,16.144c-14.135-0.001-28.275-5.383-39.036-16.144l-43.763-43.763  c-3.904-3.905-10.234-3.905-14.143,0c-3.905,3.905-3.905,10.237,0,14.142l43.763,43.764c14.662,14.661,33.92,21.992,53.179,21.992  s38.518-7.331,53.18-21.993l1.505-1.505l60.104,60.105l-134.08,134.08H50.242c-2.652,0-5.195,1.054-7.071,2.929L3.073,433.108  c-1.875,1.875-2.929,4.419-2.929,7.071s1.054,5.196,2.929,7.071l61.679,61.678c1.876,1.875,4.419,2.929,7.071,2.929  s5.195-1.054,7.071-2.929l40.097-40.097c1.875-1.875,2.929-4.418,2.929-7.071v-57.534l134.082-134.082l134.224,134.224v57.536  c0,2.652,1.054,5.196,2.929,7.071l40.098,40.097c1.953,1.953,4.512,2.929,7.071,2.929s5.118-0.977,7.071-2.929l61.678-61.678  c1.875-1.875,2.929-4.418,2.929-7.071S510.947,435.127,509.072,433.252z M295.344,110.392l75.249-75.25  c17-17.001,36.549-16.197,62.577-9.39c16.886,4.416,33.427,9.18,41.529,11.55c2.37,8.1,7.132,24.635,11.551,41.529  c6.807,26.03,7.61,45.577-9.39,62.577l-75.25,75.25l-46.063-46.063l30.569-30.57c3.905-3.905,3.905-10.237,0-14.142  c-3.906-3.905-10.236-3.905-14.143,0l-30.569,30.569L295.344,110.392z M101.92,457.618l-30.097,30.097l-47.536-47.536l30.098-30.097  h47.535V457.618z M440.323,487.859l-30.098-30.097v-47.536h47.535l30.098,30.097L440.323,487.859z"/>
<path d="M406.245,115.757c2.56,0,5.118-0.976,7.071-2.929l0.381-0.381c3.905-3.905,3.905-10.237,0-14.143  c-3.906-3.905-10.236-3.905-14.143,0l-0.381,0.381c-3.905,3.905-3.905,10.237,0,14.143  C401.127,114.781,403.686,115.757,406.245,115.757z"/>
<g>
</g>
<g>
</g>
<g>
</g>
<g>
</g>
<g>
</g>
<g>
</g>
<g>
</g>
<g>
</g>
<g>
</g>
<g>
</g>
<g>
</g>
<g>
</g>
<g>
</g>
<g>
</g>
<g>
</g>
</svg>
