<?xml version="1.0" encoding="iso-8859-1"?>
<!-- Generator: Adobe Illustrator 19.0.0, SVG Export Plug-In . SVG Version: 6.00 Build 0)  -->
<svg xmlns="http://www.w3.org/2000/svg" xmlns:xlink="http://www.w3.org/1999/xlink" version="1.1" id="Capa_1" x="0px" y="0px" viewBox="0 0 512 512" style="enable-background:new 0 0 512 512;" xml:space="preserve">
<polygon style="fill:#CE4A30;" points="392,146 256,10 120,146 120,502 392,502 "/>
<g>
	<path style="fill:#FFC943;" d="M256,366L256,366c-31.48,0-57,25.52-57,57v79h114v-79C313,391.52,287.48,366,256,366z"/>
	<rect x="234" y="288.98" style="fill:#FFC943;" width="44" height="44"/>
</g>
<circle style="fill:#FFFFFF;" cx="256" cy="199" r="29"/>
<g>
	<polygon style="fill:#DFDCE5;" points="324.354,85.195 324.354,130.45 369.609,130.45 444.798,55.261 399.543,10.006  "/>
	<polygon style="fill:#DFDCE5;" points="187.646,312.412 187.646,267.157 142.392,267.157 67.203,342.346 112.457,387.601  "/>
	<polygon style="fill:#DFDCE5;" points="369.609,267.157 324.354,267.157 324.354,312.412 399.543,387.601 444.798,342.346  "/>
	<polygon style="fill:#DFDCE5;" points="142.392,130.45 187.646,130.45 187.646,85.195 112.457,10.006 67.203,55.261  "/>
</g>
<path d="M10.138,492H10c-5.522,0-10,4.477-10,10s4.478,10,10,10h0.138c5.522,0,10-4.477,10-10S15.66,492,10.138,492z"/>
<path d="M502,492H402v-94.716c1.69-0.427,3.292-1.29,4.614-2.612l45.255-45.255c1.875-1.875,2.929-4.419,2.929-7.071  s-1.054-5.196-2.929-7.071l-49.905-49.904c0.017-0.233,0.036-0.466,0.036-0.704V146c0-2.652-1.054-5.196-2.929-7.071l-11.9-11.9  l64.698-64.697c1.875-1.875,2.929-4.419,2.929-7.071s-1.054-5.196-2.929-7.071L406.614,2.934c-3.906-3.905-10.236-3.905-14.143,0  l-64.697,64.697L263.071,2.929c-3.906-3.905-10.236-3.904-14.143,0l-64.703,64.703L119.529,2.934  c-3.906-3.905-10.236-3.905-14.143,0L60.131,48.189c-1.875,1.875-2.929,4.419-2.929,7.071s1.054,5.196,2.929,7.071l64.698,64.697  l-11.9,11.9c-1.875,1.876-2.929,4.42-2.929,7.072v137c0,0.744,0.087,1.467,0.241,2.164l-50.111,50.11  c-1.875,1.875-2.929,4.419-2.929,7.071s1.054,5.196,2.929,7.071l45.255,45.255c1.322,1.322,2.924,2.185,4.614,2.612V492H39.986  c-5.522,0-10,4.477-10,10s4.478,10,10,10H502c5.522,0,10-4.477,10-10S507.523,492,502,492z M399.543,373.459l-65.189-65.189v-31.112  h31.112l65.189,65.189L399.543,373.459z M376.68,260.086c-1.876-1.875-4.419-2.929-7.071-2.929h-41.112l-38.71-38.71  c3.309-5.728,5.214-12.365,5.214-19.443c0-7.183-1.96-13.913-5.361-19.698l38.857-38.857h41.112c0.815,0,1.617-0.111,2.396-0.304  l9.996,9.996v115.264L376.68,260.086z M269.435,212.239c-0.293,0.293-0.557,0.604-0.806,0.923  c-3.361,3.001-7.778,4.844-12.628,4.844s-9.267-1.842-12.628-4.844c-0.249-0.319-0.513-0.629-0.806-0.923  c-0.277-0.277-0.568-0.529-0.868-0.766c-2.916-3.341-4.698-7.695-4.698-12.468c0-10.477,8.523-19,19-19c10.477,0,19,8.523,19,19  c0,4.772-1.782,9.128-4.698,12.468C270.003,211.711,269.711,211.962,269.435,212.239z M399.543,24.148l31.112,31.113l-65.189,65.189  h-31.112V89.337L399.543,24.148z M256,24.142l58.657,58.657c-0.192,0.779-0.303,1.58-0.303,2.396v41.112l-38.911,38.911  c-5.728-3.309-12.365-5.214-19.442-5.214s-13.714,1.904-19.442,5.214l-38.911-38.911V85.195c0-0.815-0.111-1.617-0.303-2.395  L256,24.142z M112.457,24.148l65.189,65.189v31.113h-31.112L81.345,55.261L112.457,24.148z M130,150.142l9.996-9.996  c0.779,0.192,1.58,0.303,2.396,0.303h41.112l38.857,38.857c-3.401,5.786-5.361,12.516-5.361,19.698  c0,7.077,1.905,13.714,5.214,19.443l-38.71,38.71h-41.112c-2.652,0-5.195,1.054-7.071,2.929l-5.32,5.32L130,150.142L130,150.142z   M81.345,342.346l65.189-65.189h31.112v31.112l-62.901,62.901c-0.927,0.575-1.76,1.288-2.452,2.125L81.345,342.346z M266,492  v-53.499c0-5.523-4.478-10-10-10s-10,4.477-10,10V492h-37v-69c0-25.916,21.084-47,47-47s47,21.084,47,47v69H266z M323,492v-69  c0-36.944-30.056-67-67-67s-67,30.056-67,67v69h-59V384.201l64.718-64.718c1.875-1.875,2.929-4.419,2.929-7.071V271.3l38.656-38.655  c5.785,3.401,12.515,5.361,19.698,5.361c7.183,0,13.913-1.96,19.698-5.361l38.656,38.655v41.112c0,2.652,1.054,5.196,2.929,7.071  L382,384.201V492H323z"/>
<path d="M278,278.979h-44c-5.522,0-10,4.477-10,10v44c0,5.523,4.478,10,10,10h44c5.522,0,10-4.477,10-10v-44  C288,283.456,283.523,278.979,278,278.979z M268,322.979h-24v-24h24V322.979z"/>
<path d="M255.999,396.019c-5.522,0-10,4.477-10,10v0.131c0,5.523,4.478,10,10,10s10-4.477,10-10v-0.131  C265.999,400.496,261.522,396.019,255.999,396.019z"/>
<g>
</g>
<g>
</g>
<g>
</g>
<g>
</g>
<g>
</g>
<g>
</g>
<g>
</g>
<g>
</g>
<g>
</g>
<g>
</g>
<g>
</g>
<g>
</g>
<g>
</g>
<g>
</g>
<g>
</g>
</svg>
