<?xml version="1.0" encoding="iso-8859-1"?>
<!-- Generator: Adobe Illustrator 19.0.0, SVG Export Plug-In . SVG Version: 6.00 Build 0)  -->
<svg xmlns="http://www.w3.org/2000/svg" xmlns:xlink="http://www.w3.org/1999/xlink" version="1.1" id="Capa_1" x="0px" y="0px" viewBox="0 0 512 512" style="enable-background:new 0 0 512 512;" xml:space="preserve">
<g>
	<rect x="10" y="178.049" style="fill:#EF7159;" width="492" height="58"/>
	<rect x="10" y="320.91" style="fill:#EF7159;" width="492" height="58"/>
</g>
<g>
	<polygon style="fill:#FFC943;" points="148.834,118.03 94.834,64.03 40.834,118.03 40.834,448.031 148.834,448.031  "/>
	<polygon style="fill:#FFC943;" points="310,118.03 256,64.03 202,118.03 202,448.031 310,448.031  "/>
	<polygon style="fill:#FFC943;" points="472.046,117.999 418.046,64 364.046,117.999 364.046,448 472.046,448  "/>
</g>
<path d="M502,246.046c5.522,0,10-4.477,10-10v-58c0-5.523-4.478-10-10-10h-20v-50.046c0-2.652-1.054-5.196-2.929-7.071l-54-54  c-3.906-3.904-10.236-3.904-14.143,0l-54,54c-1.874,1.875-2.928,4.418-2.928,7.071v50.046h-34v-50.046  c0-2.652-1.054-5.196-2.929-7.071l-54-54c-3.906-3.904-10.236-3.904-14.143,0l-54,54c-1.874,1.875-2.928,4.418-2.928,7.071v50.046  h-34v-50.046c0-2.652-1.054-5.196-2.929-7.071l-54-54c-3.906-3.904-10.236-3.904-14.143,0l-54,54  c-1.874,1.875-2.928,4.418-2.928,7.071v50.046H10c-5.522,0-10,4.477-10,10v58c0,5.523,4.478,10,10,10h20V311H10  c-5.522,0-10,4.477-10,10v58c0,5.523,4.478,10,10,10h20v59c0,5.523,4.478,10,10,10h20.5c5.522,0,10-4.477,10-10s-4.478-10-10-10H50  V122.141l44-44l44,44V438h-9c-5.522,0-10,4.477-10,10s4.478,10,10,10h19c5.522,0,10-4.477,10-10v-59h34v59c0,5.523,4.478,10,10,10  h20.5c5.522,0,10-4.477,10-10s-4.478-10-10-10H212V122.141l44-44l44,44V438h-9c-5.522,0-10,4.477-10,10s4.478,10,10,10h19  c5.522,0,10-4.477,10-10v-59h34v59c0,5.523,4.478,10,10,10h20.5c5.522,0,10-4.477,10-10s-4.478-10-10-10H374V122.141l44-44l44,44  V438h-9c-5.522,0-10,4.477-10,10s4.478,10,10,10h19c5.522,0,10-4.477,10-10v-59h20c5.522,0,10-4.477,10-10v-58  c0-5.523-4.478-10-10-10h-20v-64.954L502,246.046L502,246.046z M20,226.046v-38h10v38H20z M20,369v-38h10v38H20z M158,246.046h34  V311h-34V246.046z M192,188.046v38h-34v-38H192z M158,369v-38h34v38H158z M320,246.046h34V311h-34V246.046z M354,188.046v38h-34v-38  H354z M320,369v-38h34v38H320z M492,188.046v38h-10v-38H492z M492,331v38h-10v-38H492z"/>
<path d="M93.954,217.046c2.576,0,5.153-0.99,7.108-2.966l0.092-0.093c3.885-3.926,3.851-10.257-0.075-14.142  c-3.925-3.884-10.257-3.851-14.142,0.075l-0.092,0.093c-3.885,3.926-3.851,10.257,0.075,14.142  C88.87,216.083,91.412,217.046,93.954,217.046z"/>
<path d="M256,217.046c2.56,0,5.118-0.976,7.071-2.929l0.093-0.093c3.905-3.905,3.905-10.237,0-14.143  c-3.906-3.905-10.236-3.905-14.143,0l-0.093,0.093c-3.905,3.905-3.905,10.237,0,14.143C250.882,216.07,253.44,217.046,256,217.046z"/>
<path d="M418,217.046c2.56,0,5.118-0.976,7.071-2.929l0.093-0.093c3.905-3.905,3.905-10.237,0-14.143  c-3.906-3.905-10.236-3.905-14.143,0l-0.093,0.093c-3.905,3.905-3.905,10.237,0,14.143C412.882,216.07,415.44,217.046,418,217.046z"/>
<path d="M86.921,357.108c1.949,1.929,4.491,2.892,7.033,2.892c2.576,0,5.153-0.99,7.108-2.966l0.092-0.093  c3.885-3.926,3.851-10.257-0.075-14.142c-3.925-3.884-10.257-3.851-14.142,0.075l-0.092,0.093  C82.961,346.892,82.995,353.223,86.921,357.108z"/>
<path d="M248.929,357.071C250.882,359.023,253.44,360,256,360s5.118-0.976,7.071-2.929l0.093-0.093  c3.905-3.905,3.905-10.237,0-14.143c-3.906-3.905-10.236-3.905-14.143,0l-0.093,0.093  C245.023,346.834,245.023,353.165,248.929,357.071z"/>
<path d="M410.929,357.071C412.882,359.023,415.44,360,418,360s5.118-0.976,7.071-2.929l0.093-0.093  c3.905-3.905,3.905-10.237,0-14.143c-3.906-3.905-10.236-3.905-14.143,0l-0.093,0.093  C407.023,346.834,407.023,353.165,410.929,357.071z"/>
<path d="M94.313,438H94c-5.522,0-10,4.477-10,10s4.478,10,10,10h0.313c5.522,0,10-4.477,10-10S99.835,438,94.313,438z"/>
<path d="M256.313,438H256c-5.522,0-10,4.477-10,10s4.478,10,10,10h0.313c5.522,0,10-4.477,10-10S261.835,438,256.313,438z"/>
<path d="M418.313,438H418c-5.522,0-10,4.477-10,10s4.478,10,10,10h0.313c5.522,0,10-4.477,10-10S423.835,438,418.313,438z"/>
<g>
</g>
<g>
</g>
<g>
</g>
<g>
</g>
<g>
</g>
<g>
</g>
<g>
</g>
<g>
</g>
<g>
</g>
<g>
</g>
<g>
</g>
<g>
</g>
<g>
</g>
<g>
</g>
<g>
</g>
</svg>
