<?xml version="1.0" encoding="iso-8859-1"?>
<!-- Generator: Adobe Illustrator 19.0.0, SVG Export Plug-In . SVG Version: 6.00 Build 0)  -->
<svg xmlns="http://www.w3.org/2000/svg" xmlns:xlink="http://www.w3.org/1999/xlink" version="1.1" id="Capa_1" x="0px" y="0px" viewBox="0 0 512.001 512.001" style="enable-background:new 0 0 512.001 512.001;" xml:space="preserve">
<polygon style="fill:#CE4A30;" points="447.999,162.289 405.864,84.178 256.05,41.999 255.951,41.999 106.137,84.178   64.002,162.289 64.002,361.996 447.872,361.996 "/>
<rect x="162.999" y="175.998" style="fill:#A766B2;" width="185.999" height="185.999"/>
<path d="M482.07,174.001c-3.68,0-7.221-2.039-8.967-5.559L425.42,72.3l-169.357-51.86L86.707,72.301l-47.683,96.142  c-2.454,4.946-8.454,6.97-13.402,4.515c-4.947-2.454-6.969-8.454-4.516-13.402l49.597-99.999c1.222-2.462,3.402-4.313,6.031-5.118  l176.344-54c0.948-0.291,1.936-0.438,2.928-0.438h0.117c0.992,0,1.979,0.147,2.928,0.438l176.344,54  c2.629,0.805,4.81,2.656,6.031,5.118l49.597,99.999c2.453,4.948,0.432,10.948-4.516,13.402  C485.078,173.665,483.563,174.001,482.07,174.001z"/>
<path d="M256.001,511.997c-5.522,0-10-4.477-10-10v-0.131c0-5.523,4.478-10,10-10c5.522,0,10,4.477,10,10v0.131  C266.001,507.52,261.524,511.997,256.001,511.997z"/>
<path d="M256,479.514c-5.522,0-10-4.477-10-10v-74.403c0-5.523,4.478-10,10-10c5.522,0,10,4.477,10,10v74.403  C266,475.037,261.523,479.514,256,479.514z"/>
<path d="M320.942,214.127c-2.56,0-5.118-0.976-7.071-2.929c-3.905-3.905-3.905-10.237,0-14.143l0.093-0.093  c3.906-3.905,10.236-3.905,14.143,0c3.905,3.905,3.905,10.237,0,14.143l-0.093,0.093  C326.06,213.151,323.501,214.127,320.942,214.127z"/>
<path d="M191.892,214.889c-2.56,0-5.118-0.976-7.071-2.929l-0.093-0.093c-3.905-3.905-3.905-10.237,0-14.143  c3.906-3.905,10.236-3.905,14.143,0l0.093,0.093c3.905,3.905,3.905,10.237,0,14.143C197.01,213.913,194.451,214.889,191.892,214.889  z"/>
<path d="M9.994,511.999c-1.517,0-3.056-0.346-4.501-1.076c-4.93-2.491-6.907-8.505-4.417-13.435l54-106.886  c2.49-4.929,8.507-6.907,13.435-4.417c4.93,2.491,6.907,8.505,4.417,13.435l-54,106.886C17.168,509.99,13.648,511.999,9.994,511.999  z"/>
<path d="M133.009,511.999c-0.812,0-1.635-0.099-2.457-0.307c-5.354-1.353-8.599-6.79-7.246-12.145l27-106.886  c1.353-5.355,6.792-8.602,12.145-7.246c5.354,1.353,8.599,6.79,7.246,12.145l-27,106.886  C141.552,508.979,137.48,511.999,133.009,511.999z"/>
<path d="M502.006,511.999c-3.653,0-7.174-2.009-8.934-5.493l-54-106.886c-2.49-4.93-0.513-10.944,4.417-13.435  c4.926-2.489,10.944-0.514,13.435,4.417l54,106.886c2.49,4.93,0.513,10.944-4.417,13.435  C505.062,511.653,503.523,511.999,502.006,511.999z"/>
<path d="M378.991,511.999c-4.471,0-8.543-3.02-9.688-7.553l-27-106.886c-1.353-5.355,1.892-10.792,7.246-12.145  c5.354-1.352,10.793,1.892,12.145,7.246l27,106.886c1.353,5.355-1.892,10.792-7.246,12.145  C380.627,511.9,379.802,511.999,378.991,511.999z"/>
<path d="M456.8,157.541l-42.136-78.11c-1.285-2.384-3.483-4.144-6.091-4.878L258.76,32.373c-0.882-0.248-1.894-0.374-2.81-0.374  s-1.828,0.126-2.71,0.374l-149.813,42.18c-2.607,0.734-4.806,2.495-6.091,4.878l-42.136,78.11c-0.787,1.458-1.199,3.09-1.199,4.748  v199.707c0,5.523,4.478,10,10,10h98.999H349h98.872c5.521,0,9.996-4.473,10-9.994l0.127-199.707  C458,160.636,457.588,159.002,456.8,157.541z M187.216,351.996l68.82-68.82l68.82,68.82L187.216,351.996L187.216,351.996z   M437.879,351.996h-78.879V175.997c0-5.523-4.478-10-10-10h-64c-5.522,0-10,4.477-10,10c0,5.523,4.478,10,10,10h54v151.856  l-68.82-68.82l34.959-34.959c3.905-3.905,3.905-10.237,0-14.143c-3.906-3.905-10.236-3.905-14.143,0l-34.959,34.959l-34.198-34.198  c-3.906-3.905-10.236-3.905-14.143,0c-3.905,3.905-3.905,10.237,0,14.143l34.198,34.198L173,337.925V185.996h54  c5.522,0,10-4.477,10-10c0-5.523-4.478-10-10-10H163c-5.522,0-10,4.477-10,10v175.999H74.001V164.814l38.925-72.158l143.074-40.282  l143.074,40.282l38.924,72.155L437.879,351.996z"/>
<path d="M256.012,185.997H256c-5.522,0-10-4.477-10-10c0-5.523,4.478-10,10-10c5.522,0,10.006,4.477,10.006,10  C266.006,181.52,261.534,185.997,256.012,185.997z"/>
<rect x="226.999" y="86.999" style="fill:#FFFFFF;" width="58" height="58"/>
<path d="M285,155h-58c-5.522,0-10-4.477-10-10V87c0-5.523,4.478-10,10-10h58c5.522,0,10,4.477,10,10v58  C295,150.523,290.523,155,285,155z M237,135h38V97h-38L237,135L237,135z"/>
<g>
</g>
<g>
</g>
<g>
</g>
<g>
</g>
<g>
</g>
<g>
</g>
<g>
</g>
<g>
</g>
<g>
</g>
<g>
</g>
<g>
</g>
<g>
</g>
<g>
</g>
<g>
</g>
<g>
</g>
</svg>
