<?xml version="1.0" encoding="iso-8859-1"?>
<!-- Generator: Adobe Illustrator 19.0.0, SVG Export Plug-In . SVG Version: 6.00 Build 0)  -->
<svg xmlns="http://www.w3.org/2000/svg" xmlns:xlink="http://www.w3.org/1999/xlink" version="1.1" id="Capa_1" x="0px" y="0px" viewBox="0 0 511.999 511.999" style="enable-background:new 0 0 511.999 511.999;" xml:space="preserve">
<g>
	<path style="fill:#FFC943;" d="M328.974,237.117l-0.01,0.011c0.04,0.164,6.379,38.273-13.571,60.579   c-19.963,22.308-57.904,21.055-58.072,21.05l-0.005,0.006l0.008-0.009l-0.005,0.005l0.006-0.007   c-0.051-0.317-7.316-39.166,12.602-61.435C289.926,234.957,328.974,237.117,328.974,237.117z"/>
	<path style="fill:#FFC943;" d="M241.98,257.319c19.918,22.269,12.653,61.118,12.602,61.435l0.006,0.007l-0.005-0.005l0.008,0.009   l-0.005-0.006c-0.167,0.004-38.109,1.258-58.072-21.05c-19.95-22.306-13.611-60.415-13.571-60.579l-0.01-0.011   C182.933,237.117,221.982,234.957,241.98,257.319z"/>
	<path style="fill:#FFC943;" d="M328.974,307.077l-0.01,0.011c0.04,0.164,6.379,38.273-13.571,60.579   c-19.963,22.308-57.904,21.055-58.072,21.051l-0.005,0.006l0.008-0.009l-0.005,0.005l0.006-0.007   c-0.051-0.317-7.316-39.166,12.602-61.435C289.926,304.917,328.974,307.077,328.974,307.077z"/>
	<path style="fill:#FFC943;" d="M241.98,327.278c19.918,22.269,12.653,61.118,12.602,61.435l0.006,0.007l-0.005-0.005l0.008,0.009   l-0.005-0.006c-0.167,0.004-38.109,1.258-58.072-21.051c-19.95-22.306-13.611-60.415-13.571-60.579l-0.01-0.011   C182.933,307.077,221.982,304.917,241.98,327.278z"/>
	<path style="fill:#FFC943;" d="M328.974,377.122l-0.01,0.011c0.04,0.164,6.379,38.273-13.571,60.579   c-19.963,22.308-57.904,21.055-58.072,21.05l-0.005,0.006l0.008-0.009l-0.005,0.005l0.006-0.007   c-0.051-0.317-7.316-39.166,12.602-61.435C289.926,374.963,328.974,377.122,328.974,377.122z"/>
	<path style="fill:#FFC943;" d="M241.98,397.324c19.918,22.269,12.653,61.118,12.602,61.435l0.006,0.007l-0.005-0.005l0.008,0.009   l-0.005-0.006c-0.167,0.004-38.109,1.258-58.072-21.05c-19.95-22.306-13.611-60.415-13.571-60.579l-0.01-0.011   C182.933,377.122,221.982,374.963,241.98,397.324z"/>
	<path style="fill:#FFC943;" d="M328.974,167.094l-0.01,0.011c0.04,0.164,6.379,38.273-13.571,60.579   c-19.963,22.308-57.904,21.055-58.072,21.051l-0.005,0.006l0.008-0.009l-0.005,0.005l0.006-0.007   c-0.051-0.317-7.316-39.166,12.602-61.435C289.926,164.934,328.974,167.094,328.974,167.094z"/>
	<path style="fill:#FFC943;" d="M241.98,187.294c19.918,22.269,12.653,61.118,12.602,61.435l0.006,0.007l-0.005-0.005l0.008,0.009   l-0.005-0.006c-0.167,0.004-38.109,1.257-58.072-21.051c-19.95-22.306-13.611-60.415-13.571-60.579l-0.01-0.011   C182.933,167.094,221.982,164.934,241.98,187.294z"/>
	<path style="fill:#FFC943;" d="M328.974,97.111l-0.01,0.011c0.04,0.164,6.379,38.273-13.571,60.579   c-19.963,22.308-57.904,21.055-58.072,21.051l-0.005,0.006l0.008-0.009l-0.005,0.005l0.006-0.007   c-0.051-0.317-7.316-39.166,12.602-61.435C289.926,94.951,328.974,97.111,328.974,97.111z"/>
	<path style="fill:#FFC943;" d="M241.98,117.313c19.918,22.269,12.653,61.118,12.602,61.435l0.006,0.007l-0.005-0.005l0.008,0.009   l-0.005-0.006c-0.167,0.004-38.109,1.257-58.072-21.051c-19.95-22.306-13.611-60.415-13.571-60.579l-0.01-0.011   C182.933,97.111,221.982,94.951,241.98,117.313z"/>
	<path style="fill:#FFC943;" d="M501.022,237.117l-0.01,0.011c0.04,0.164,6.379,38.273-13.571,60.579   c-19.963,22.308-57.904,21.055-58.072,21.05l-0.005,0.006l0.008-0.009l-0.005,0.005l0.006-0.007   c-0.051-0.317-7.316-39.166,12.602-61.435C461.974,234.957,501.022,237.117,501.022,237.117z"/>
	<path style="fill:#FFC943;" d="M414.028,257.319c19.918,22.269,12.653,61.118,12.602,61.435l0.006,0.007l-0.005-0.005l0.008,0.009   l-0.005-0.006c-0.167,0.004-38.109,1.258-58.072-21.05c-19.95-22.306-13.611-60.415-13.571-60.579l-0.01-0.011   C354.982,237.117,394.031,234.957,414.028,257.319z"/>
	<path style="fill:#FFC943;" d="M501.022,307.077l-0.01,0.011c0.04,0.164,6.379,38.273-13.571,60.579   c-19.963,22.308-57.904,21.055-58.072,21.051l-0.005,0.006l0.008-0.009l-0.005,0.005l0.006-0.007   c-0.051-0.317-7.316-39.166,12.602-61.435C461.974,304.917,501.022,307.077,501.022,307.077z"/>
	<path style="fill:#FFC943;" d="M414.028,327.278c19.918,22.269,12.653,61.118,12.602,61.435l0.006,0.007l-0.005-0.005l0.008,0.009   l-0.005-0.006c-0.167,0.004-38.109,1.258-58.072-21.051c-19.95-22.306-13.611-60.415-13.571-60.579l-0.01-0.011   C354.982,307.077,394.031,304.917,414.028,327.278z"/>
	<path style="fill:#FFC943;" d="M501.022,377.122l-0.01,0.011c0.04,0.164,6.379,38.273-13.571,60.579   c-19.963,22.308-57.904,21.055-58.072,21.05l-0.005,0.006l0.008-0.009l-0.005,0.005l0.006-0.007   c-0.051-0.317-7.316-39.166,12.602-61.435C461.974,374.963,501.022,377.122,501.022,377.122z"/>
	<path style="fill:#FFC943;" d="M414.028,397.324c19.918,22.269,12.653,61.118,12.602,61.435l0.006,0.007l-0.005-0.005l0.008,0.009   l-0.005-0.006c-0.167,0.004-38.109,1.258-58.072-21.05c-19.95-22.306-13.611-60.415-13.571-60.579l-0.01-0.011   C354.982,377.122,394.031,374.963,414.028,397.324z"/>
	<path style="fill:#FFC943;" d="M501.022,167.094l-0.01,0.011c0.04,0.164,6.379,38.273-13.571,60.579   c-19.963,22.308-57.904,21.055-58.072,21.051l-0.005,0.006l0.008-0.009l-0.005,0.005l0.006-0.007   c-0.051-0.317-7.316-39.166,12.602-61.435C461.974,164.934,501.022,167.094,501.022,167.094z"/>
	<path style="fill:#FFC943;" d="M414.028,187.294c19.918,22.269,12.653,61.118,12.602,61.435l0.006,0.007l-0.005-0.005l0.008,0.009   l-0.005-0.006c-0.167,0.004-38.109,1.257-58.072-21.051c-19.95-22.306-13.611-60.415-13.571-60.579l-0.01-0.011   C354.982,167.094,394.031,164.934,414.028,187.294z"/>
	<path style="fill:#FFC943;" d="M156.926,237.117l-0.01,0.011c0.04,0.164,6.379,38.273-13.571,60.579   c-19.963,22.308-57.904,21.055-58.072,21.05l-0.005,0.006l0.008-0.009l-0.005,0.005l0.006-0.007   c-0.051-0.317-7.316-39.166,12.602-61.435C117.877,234.957,156.926,237.117,156.926,237.117z"/>
	<path style="fill:#FFC943;" d="M69.931,257.319c19.918,22.269,12.653,61.118,12.602,61.435l0.006,0.007l-0.005-0.005l0.008,0.009   l-0.005-0.006c-0.167,0.004-38.109,1.258-58.072-21.05c-19.95-22.306-13.611-60.415-13.571-60.579l-0.01-0.011   C10.885,237.117,49.933,234.957,69.931,257.319z"/>
	<path style="fill:#FFC943;" d="M156.926,307.077l-0.01,0.011c0.04,0.164,6.379,38.273-13.571,60.579   c-19.963,22.308-57.904,21.055-58.072,21.051l-0.005,0.006l0.008-0.009l-0.005,0.005l0.006-0.007   c-0.051-0.317-7.316-39.166,12.602-61.435C117.877,304.917,156.926,307.077,156.926,307.077z"/>
	<path style="fill:#FFC943;" d="M69.931,327.278c19.918,22.269,12.653,61.118,12.602,61.435l0.006,0.007l-0.005-0.005l0.008,0.009   l-0.005-0.006c-0.167,0.004-38.109,1.258-58.072-21.051c-19.95-22.306-13.611-60.415-13.571-60.579l-0.01-0.011   C10.885,307.077,49.933,304.917,69.931,327.278z"/>
	<path style="fill:#FFC943;" d="M156.926,377.122l-0.01,0.011c0.04,0.164,6.379,38.273-13.571,60.579   c-19.963,22.308-57.904,21.055-58.072,21.05l-0.005,0.006l0.008-0.009l-0.005,0.005l0.006-0.007   c-0.051-0.317-7.316-39.166,12.602-61.435C117.877,374.963,156.926,377.122,156.926,377.122z"/>
	<path style="fill:#FFC943;" d="M69.931,397.324c19.918,22.269,12.653,61.118,12.602,61.435l0.006,0.007l-0.005-0.005l0.008,0.009   l-0.005-0.006c-0.167,0.004-38.109,1.258-58.072-21.05c-19.95-22.306-13.611-60.415-13.571-60.579l-0.01-0.011   C10.885,377.122,49.933,374.963,69.931,397.324z"/>
	<path style="fill:#FFC943;" d="M156.926,167.094l-0.01,0.011c0.04,0.164,6.379,38.273-13.571,60.579   c-19.963,22.308-57.904,21.055-58.072,21.051l-0.005,0.006l0.008-0.009l-0.005,0.005l0.006-0.007   c-0.051-0.317-7.316-39.166,12.602-61.435C117.877,164.934,156.926,167.094,156.926,167.094z"/>
	<path style="fill:#FFC943;" d="M69.931,187.294c19.918,22.269,12.653,61.118,12.602,61.435l0.006,0.007l-0.005-0.005l0.008,0.009   l-0.005-0.006c-0.167,0.004-38.109,1.257-58.072-21.051c-19.95-22.306-13.611-60.415-13.571-60.579l-0.01-0.011   C10.885,167.094,49.933,164.934,69.931,187.294z"/>
</g>
<path d="M255.954,85.764c5.522,0,10-4.477,10-10V39.668c0-5.523-4.478-10-10-10s-10,4.477-10,10v36.097  C245.954,81.287,250.432,85.764,255.954,85.764z"/>
<path d="M255.954,20.115c5.522,0,10-4.477,10-10v-0.113c0-5.523-4.478-10-10-10s-10,4.477-10,10v0.113  C245.954,15.638,250.432,20.115,255.954,20.115z"/>
<path d="M216.755,84.572c5.522,0,10-4.477,10-10V49.49c0-5.523-4.478-10-10-10c-5.522,0-10,4.477-10,10v25.082  C206.755,80.095,211.233,84.572,216.755,84.572z"/>
<path d="M216.756,29.936c5.522,0,10-4.477,10-10v-0.113c0-5.523-4.478-10-10-10c-5.522,0-10,4.477-10,10v0.113  C206.756,25.46,211.234,29.936,216.756,29.936z"/>
<path d="M295.154,84.572c5.522,0,10-4.477,10-10V49.49c0-5.523-4.478-10-10-10c-5.522,0-10,4.477-10,10v25.082  C285.154,80.095,289.631,84.572,295.154,84.572z"/>
<path d="M295.154,29.936c5.522,0,10-4.477,10-10v-0.113c0-5.523-4.478-10-10-10c-5.522,0-10,4.477-10,10v0.113  C285.154,25.46,289.631,29.936,295.154,29.936z"/>
<path d="M427.95,155.762c5.522,0,10-4.477,10-10v-36.097c0-5.523-4.478-10-10-10s-10,4.477-10,10v36.097  C417.95,151.285,422.428,155.762,427.95,155.762z"/>
<path d="M427.95,90.111c5.522,0,10-4.477,10-10v-0.113c0-5.523-4.478-10-10-10s-10,4.477-10,10v0.113  C417.95,85.634,422.428,90.111,427.95,90.111z"/>
<path d="M388.751,154.569c5.522,0,10-4.477,10-10v-25.082c0-5.523-4.478-10-10-10s-10,4.477-10,10v25.082  C378.751,150.092,383.229,154.569,388.751,154.569z"/>
<path d="M388.752,99.933c5.522,0,10-4.477,10-10V89.82c0-5.523-4.478-10-10-10s-10,4.477-10,10v0.113  C378.752,95.456,383.23,99.933,388.752,99.933z"/>
<path d="M467.15,154.569c5.522,0,10-4.477,10-10v-25.082c0-5.523-4.478-10-10-10c-5.522,0-10,4.477-10,10v25.082  C457.15,150.092,461.627,154.569,467.15,154.569z"/>
<path d="M467.15,99.933c5.522,0,10-4.477,10-10V89.82c0-5.523-4.478-10-10-10c-5.522,0-10,4.477-10,10v0.113  C457.15,95.456,461.627,99.933,467.15,99.933z"/>
<path d="M502,491.992H437.95v-23.474c13.863-0.974,40.153-5.374,56.946-24.138c20.71-23.156,17.278-59.314,16.112-67.8  c-0.059-1.091-0.298-2.183-0.725-3.229c-1.458-3.58-4.849-5.999-8.709-6.212c-0.145-0.008-0.562-0.029-1.209-0.046  c14.573-22.821,11.693-52.915,10.643-60.558c-0.059-1.091-0.298-2.183-0.725-3.229c-1.458-3.58-4.849-5.999-8.709-6.212  c-0.142-0.008-0.538-0.028-1.157-0.045c14.512-22.811,11.64-52.839,10.591-60.473c-0.059-1.091-0.298-2.183-0.725-3.229  c-1.458-3.58-4.849-5.999-8.709-6.212c-0.144-0.008-0.556-0.029-1.197-0.046c14.543-22.809,11.676-52.895,10.631-60.533  c-0.057-1.057-0.282-2.115-0.685-3.134c-1.435-3.631-4.851-6.095-8.749-6.311c-1.786-0.1-44.112-2.13-67.052,23.52  c-2.534,2.833-4.682,5.874-6.522,9.035c-1.84-3.162-3.987-6.203-6.521-9.035h0.001c-22.941-25.652-65.268-23.621-67.052-23.52  c-3.813,0.211-7.168,2.58-8.654,6.097c-0.444,1.051-0.698,2.151-0.768,3.254c-1.035,7.481-3.986,37.723,10.618,60.627  c-0.641,0.017-1.052,0.038-1.196,0.046c-3.775,0.209-7.104,2.534-8.613,6.001c-0.469,1.078-0.735,2.21-0.809,3.346  c-1.037,7.479-3.994,37.661,10.578,60.569c-0.619,0.017-1.015,0.037-1.156,0.045c-3.775,0.209-7.104,2.534-8.613,6.001  c-0.469,1.078-0.735,2.21-0.809,3.346c-1.039,7.488-4.003,37.735,10.63,60.653c-0.647,0.018-1.063,0.039-1.208,0.047  c-3.775,0.209-7.104,2.534-8.613,6.001c-0.469,1.078-0.735,2.21-0.809,3.346c-1.152,8.309-4.688,44.653,16.102,67.897  c16.756,18.724,42.968,23.145,56.841,24.131v23.48h-49.947c-5.522,0-10,4.477-10,10s4.478,10,10,10h133.997c5.522,0,10-4.477,10-10  S507.523,491.992,502,491.992z M364.051,317.276c6.053,0.425,14.553,1.568,22.881,4.45c1.012,0.399,2.022,0.78,3.031,1.135  c6.181,2.493,12.089,6.026,16.612,11.083l0,0c8.818,9.858,11.135,24.272,11.377,35.586v4.226c-0.035,1.638-0.107,3.175-0.199,4.579  c-11.107-1.021-30.38-4.646-41.735-17.335C365.307,349.029,363.565,329.648,364.051,317.276z M469.98,321.364  c8.039-2.666,16.14-3.724,21.973-4.117c0.49,12.371-1.247,31.771-11.962,43.751c-11.352,12.685-30.613,16.313-41.737,17.335  c-0.754-11.455-0.174-31.698,11.178-44.39c4.346-4.859,9.927-8.323,15.793-10.801C466.803,322.603,468.392,322.011,469.98,321.364z   M460.212,303.646c-8.015,2.915-16.112,4.19-21.96,4.728c-0.754-11.455-0.174-31.698,11.178-44.39  c4.69-5.245,10.822-8.854,17.197-11.361c0.71-0.256,1.42-0.521,2.131-0.798c8.434-2.976,17.065-4.125,23.194-4.538  c0.49,12.371-1.247,31.771-11.962,43.751c-4.989,5.575-11.505,9.398-18.188,12.022C461.273,303.25,460.742,303.445,460.212,303.646z   M376.016,291.041c-10.709-11.973-12.451-31.353-11.965-43.724c11.328,0.795,31.23,4.042,42.522,16.668h0.001  c8.817,9.858,11.134,24.272,11.376,35.586v4.226c-0.035,1.638-0.107,3.175-0.199,4.579c-5.801-0.533-13.829-1.793-21.793-4.667  c-0.614-0.235-1.229-0.46-1.843-0.679C387.465,300.407,380.983,296.591,376.016,291.041z M479.99,431.045  c-11.352,12.685-30.613,16.313-41.737,17.335c-0.754-11.455-0.174-31.698,11.178-44.39c4.837-5.408,11.204-9.085,17.791-11.599  c0.376-0.139,0.752-0.276,1.129-0.42c8.563-3.085,17.375-4.258,23.602-4.678C492.443,399.664,490.705,419.065,479.99,431.045z   M449.431,193.961c11.38-12.725,31.213-15.935,42.521-16.697c0.489,12.371-1.247,31.771-11.962,43.751  c-11.352,12.685-30.614,16.312-41.737,17.335C437.498,226.896,438.078,206.653,449.431,193.961z M364.052,177.264  c11.309,0.762,31.143,3.973,42.521,16.697l0,0c8.817,9.858,11.134,24.269,11.377,35.581v4.231c-0.035,1.638-0.107,3.175-0.199,4.579  c-11.107-1.021-30.38-4.646-41.735-17.335C365.3,209.037,363.563,189.635,364.052,177.264z M417.751,448.382  c-11.107-1.021-30.38-4.646-41.735-17.335c-10.717-11.982-12.454-31.383-11.964-43.753c6.222,0.419,15.025,1.592,23.581,4.671  c0.396,0.152,0.79,0.296,1.185,0.441c6.576,2.513,12.929,6.186,17.757,11.585h0.001c8.817,9.858,11.134,24.272,11.376,35.586v4.226  C417.915,445.441,417.843,446.978,417.751,448.382z"/>
<path d="M330.476,491.992h-0.13c-5.522,0-10,4.477-10,10s4.478,10,10,10h0.13c5.522,0,10-4.477,10-10  S335.998,491.992,330.476,491.992z"/>
<path d="M296.009,491.992h-30.055v-23.474c13.863-0.974,40.153-5.374,56.946-24.138c20.71-23.156,17.278-59.314,16.112-67.8  c-0.059-1.091-0.298-2.183-0.725-3.229c-1.458-3.58-4.849-5.999-8.709-6.212c-0.145-0.008-0.562-0.029-1.209-0.046  c14.573-22.821,11.693-52.915,10.643-60.558c-0.059-1.091-0.298-2.183-0.725-3.229c-1.458-3.58-4.849-5.999-8.709-6.212  c-0.141-0.008-0.538-0.028-1.157-0.045c14.512-22.811,11.64-52.839,10.591-60.473c-0.059-1.091-0.298-2.183-0.725-3.229  c-1.458-3.58-4.849-5.999-8.709-6.212c-0.144-0.008-0.556-0.029-1.197-0.046c14.544-22.809,11.676-52.895,10.631-60.533  c-0.057-1.057-0.282-2.115-0.685-3.134c-1.435-3.631-4.851-6.095-8.749-6.311c-0.142-0.008-0.544-0.028-1.171-0.045  c14.528-22.814,11.654-52.858,10.604-60.496c-0.058-1.056-0.283-2.113-0.685-3.13c-1.435-3.631-4.851-6.095-8.749-6.311  c-1.786-0.099-44.112-2.13-67.052,23.519c-2.534,2.833-4.682,5.874-6.522,9.035c-1.84-3.162-3.987-6.203-6.521-9.035h0.001  c-22.938-25.649-65.265-23.617-67.053-23.52c-3.898,0.216-7.31,2.686-8.743,6.317c-0.391,0.988-0.614,2.013-0.679,3.04  c-1.039,7.499-3.989,37.681,10.593,60.58c-0.627,0.018-1.029,0.038-1.171,0.046c-3.898,0.216-7.31,2.686-8.743,6.317  c-0.391,0.989-0.615,2.016-0.679,3.043c-1.035,7.496-3.979,37.723,10.619,60.618c-0.641,0.018-1.053,0.038-1.197,0.046  c-3.86,0.213-7.246,2.638-8.704,6.218c-0.414,1.017-0.651,2.077-0.718,3.138c-1.039,7.493-3.987,37.661,10.579,60.56  c-0.619,0.017-1.016,0.037-1.157,0.045c-3.86,0.213-7.246,2.638-8.704,6.218c-0.414,1.017-0.651,2.077-0.718,3.138  c-1.04,7.502-3.996,37.735,10.631,60.644c-0.647,0.018-1.064,0.039-1.209,0.047c-3.86,0.213-7.246,2.638-8.704,6.218  c-0.414,1.017-0.651,2.077-0.718,3.137c-1.154,8.326-4.679,44.653,16.103,67.889c16.755,18.723,42.968,23.145,56.841,24.131v23.48  h-29.951c-5.522,0-10,4.477-10,10s4.478,10,10,10h80.006c5.522,0,10-4.477,10-10S301.532,491.992,296.009,491.992z M192.055,317.276  c6.057,0.425,14.562,1.569,22.894,4.454c1,0.394,2,0.771,2.997,1.122c6.189,2.493,12.106,6.029,16.633,11.092l0,0  c8.818,9.858,11.135,24.272,11.377,35.585v4.226c-0.035,1.638-0.107,3.175-0.199,4.579c-11.108-1.021-30.381-4.646-41.735-17.335  C193.311,349.029,191.569,329.648,192.055,317.276z M307.994,221.015c-11.352,12.685-30.614,16.312-41.737,17.335  c-0.755-11.454-0.175-31.697,11.178-44.39c11.38-12.725,31.213-15.935,42.521-16.697  C320.445,189.635,318.708,209.036,307.994,221.015z M297.984,321.364c8.039-2.666,16.14-3.724,21.973-4.117  c0.49,12.371-1.247,31.771-11.962,43.751c-11.352,12.685-30.613,16.313-41.737,17.335c-0.754-11.455-0.174-31.698,11.178-44.39  c4.346-4.859,9.927-8.323,15.793-10.801C294.807,322.603,296.396,322.011,297.984,321.364z M192.056,177.264  c11.309,0.763,31.143,3.973,42.521,16.697l0,0c8.817,9.858,11.134,24.268,11.377,35.581v4.231c-0.035,1.638-0.107,3.175-0.199,4.579  c-11.107-1.022-30.381-4.647-41.735-17.335C193.304,209.037,191.567,189.635,192.056,177.264z M288.264,303.629  c-8.031,2.927-16.148,4.207-22.008,4.745c-0.754-11.455-0.174-31.698,11.178-44.39c4.69-5.245,10.822-8.854,17.197-11.361  c0.71-0.256,1.42-0.521,2.131-0.798c8.434-2.976,17.065-4.125,23.194-4.538c0.49,12.371-1.247,31.771-11.962,43.751  c-4.995,5.582-11.522,9.407-18.213,12.031C289.276,303.251,288.77,303.437,288.264,303.629z M204.02,291.041  c-10.709-11.973-12.451-31.353-11.965-43.724c11.329,0.795,31.231,4.043,42.522,16.668h0.001  c8.817,9.858,11.134,24.272,11.376,35.585v4.226c-0.035,1.638-0.107,3.175-0.199,4.579c-5.834-0.536-13.918-1.808-21.926-4.716  c-0.552-0.21-1.104-0.413-1.656-0.61C215.504,300.427,209,296.606,204.02,291.041z M307.994,431.045  c-11.352,12.685-30.613,16.313-41.737,17.335c-0.754-11.455-0.174-31.698,11.178-44.39c4.837-5.408,11.204-9.085,17.791-11.599  c0.376-0.139,0.752-0.276,1.129-0.42c8.563-3.085,17.375-4.258,23.602-4.678C320.446,399.664,318.708,419.065,307.994,431.045z   M277.434,123.978c11.38-12.725,31.213-15.934,42.521-16.696c0.49,12.37-1.247,31.771-11.962,43.75  c-11.372,12.709-30.63,16.327-41.736,17.343C265.503,156.922,266.081,136.671,277.434,123.978z M192.055,107.311  c11.329,0.795,31.231,4.042,42.522,16.667l0,0c11.354,12.694,11.932,32.944,11.177,44.397c-11.1-1.015-30.361-4.632-41.734-17.342  C193.311,139.062,191.569,119.682,192.055,107.311z M245.755,448.382c-11.108-1.021-30.381-4.646-41.735-17.335  c-10.716-11.981-12.453-31.383-11.964-43.753c6.226,0.42,15.036,1.593,23.596,4.676c0.382,0.147,0.764,0.286,1.146,0.427  c6.583,2.513,12.946,6.189,17.779,11.594h0.001c8.817,9.858,11.134,24.272,11.376,35.585v4.226  C245.919,445.44,245.847,446.978,245.755,448.382z"/>
<path d="M180.137,491.992h-0.13c-5.522,0-10,4.477-10,10s4.478,10,10,10h0.13c5.522,0,10-4.477,10-10  S185.659,491.992,180.137,491.992z"/>
<path d="M166.962,236.561c-0.064-1.165-0.333-2.328-0.814-3.435c-1.509-3.467-4.843-5.786-8.618-5.995  c-0.145-0.008-0.556-0.029-1.197-0.046c14.552-22.821,11.674-52.928,10.63-60.545c-0.063-1.131-0.318-2.262-0.774-3.341  c-1.486-3.517-4.847-5.881-8.659-6.092c-1.784-0.1-44.112-2.13-67.052,23.52c-2.534,2.833-4.683,5.873-6.522,9.033  c-1.84-3.161-3.987-6.201-6.52-9.033c-22.939-25.652-65.27-23.621-67.052-23.52c-3.813,0.211-7.168,2.58-8.654,6.097  c-0.444,1.051-0.698,2.151-0.768,3.254c-1.035,7.481-3.986,37.722,10.619,60.627c-0.641,0.018-1.053,0.038-1.197,0.046  c-3.775,0.209-7.104,2.534-8.613,6.001c-0.469,1.078-0.736,2.21-0.809,3.346c-1.037,7.479-3.994,37.661,10.579,60.568  c-0.619,0.017-1.016,0.037-1.157,0.045c-3.775,0.209-7.104,2.534-8.613,6.001c-0.469,1.078-0.736,2.21-0.809,3.346  c-1.039,7.488-4.002,37.735,10.631,60.652c-0.647,0.018-1.064,0.039-1.209,0.047c-3.775,0.209-7.104,2.534-8.613,6.001  c-0.469,1.078-0.735,2.21-0.809,3.346c-1.152,8.309-4.687,44.652,16.103,67.897c16.755,18.724,42.967,23.145,56.84,24.131v23.48  H10.011c-5.522,0-10,4.477-10,10s4.478,10,10,10h132.997c5.522,0,10-4.477,10-10s-4.478-10-10-10H93.905v-23.475  c13.863-0.974,40.152-5.373,56.946-24.139c20.72-23.167,17.275-59.35,16.111-67.812c-0.064-1.166-0.333-2.328-0.814-3.435  c-1.509-3.467-4.843-5.786-8.618-5.995c-0.145-0.008-0.562-0.029-1.209-0.046c14.582-22.833,11.691-52.947,10.642-60.571  c-0.064-1.165-0.333-2.328-0.814-3.434c-1.509-3.467-4.843-5.786-8.618-5.995c-0.142-0.008-0.538-0.028-1.157-0.045  C170.893,274.223,168.01,244.175,166.962,236.561z M125.954,321.357c8.033-2.661,16.126-3.717,21.954-4.11  c0.489,12.371-1.248,31.771-11.963,43.751c-11.354,12.688-30.618,16.314-41.74,17.336c-0.759-11.45-0.183-31.686,11.181-44.39  c4.342-4.855,9.917-8.318,15.777-10.795C122.755,322.605,124.355,322.01,125.954,321.357z M20.007,317.247  c5.825,0.393,13.912,1.448,21.94,4.106c1.608,0.656,3.217,1.255,4.817,1.801c5.856,2.477,11.426,5.938,15.765,10.79h0.001  c8.817,9.858,11.134,24.272,11.376,35.586v4.226c-0.035,1.638-0.107,3.175-0.199,4.579c-11.107-1.021-30.38-4.646-41.734-17.335  C21.255,349.02,19.518,329.618,20.007,317.247z M31.972,291.041c-10.717-11.981-12.454-31.382-11.965-43.753  c6.12,0.413,14.736,1.559,23.16,4.525c0.741,0.289,1.481,0.566,2.22,0.832c6.355,2.506,12.466,6.11,17.143,11.34h0.001  c8.817,9.858,11.134,24.272,11.376,35.586v4.226c-0.035,1.638-0.107,3.175-0.199,4.579c-5.815-0.535-13.867-1.8-21.85-4.688  c-0.592-0.226-1.184-0.443-1.775-0.654C43.427,300.412,36.94,296.594,31.972,291.041z M116.042,303.693  c-7.977,2.884-16.021,4.147-21.838,4.681c-0.759-11.45-0.183-31.686,11.181-44.39c4.682-5.235,10.799-8.841,17.16-11.347  c0.73-0.263,1.461-0.536,2.193-0.821c8.427-2.97,17.047-4.116,23.17-4.529c0.489,12.37-1.248,31.771-11.963,43.751  c-4.971,5.555-11.458,9.373-18.115,11.996C117.234,303.247,116.638,303.466,116.042,303.693z M105.385,193.961  c11.38-12.725,31.214-15.935,42.522-16.697c0.489,12.371-1.248,31.771-11.963,43.751c-11.354,12.688-30.619,16.314-41.741,17.336  C93.446,226.902,94.021,206.666,105.385,193.961z M20.006,177.293c11.329,0.795,31.232,4.042,42.522,16.668h0.001  c8.816,9.858,11.133,24.269,11.376,35.581v4.231c-0.035,1.638-0.107,3.175-0.199,4.579c-11.107-1.021-30.38-4.646-41.734-17.335  C21.264,209.046,19.521,189.664,20.006,177.293z M73.706,448.382c-11.107-1.021-30.38-4.646-41.734-17.335  c-10.709-11.973-12.452-31.353-11.966-43.724c11.329,0.795,31.232,4.042,42.522,16.668h0.001  c8.817,9.858,11.134,24.272,11.376,35.586v4.226C73.87,445.441,73.799,446.978,73.706,448.382z M135.945,431.045  c-11.354,12.688-30.619,16.314-41.74,17.336c-0.759-11.45-0.183-31.686,11.181-44.39c4.834-5.405,11.196-9.081,17.779-11.594  c0.383-0.141,0.767-0.281,1.15-0.428c8.56-3.082,17.368-4.255,23.593-4.675C148.397,399.664,146.66,419.065,135.945,431.045z"/>
<path d="M83.905,155.762c5.522,0,10-4.477,10-10v-36.097c0-5.523-4.478-10-10-10c-5.522,0-10,4.477-10,10v36.097  C73.906,151.285,78.383,155.762,83.905,155.762z"/>
<path d="M83.906,90.111c5.522,0,10-4.477,10-10v-0.113c0-5.523-4.478-10-10-10c-5.522,0-10,4.477-10,10v0.113  C73.907,85.634,78.384,90.111,83.906,90.111z"/>
<path d="M44.706,154.569c5.522,0,10-4.477,10-10v-25.082c0-5.523-4.478-10-10-10s-10,4.477-10,10v25.082  C34.706,150.092,39.184,154.569,44.706,154.569z"/>
<path d="M44.706,99.933c5.522,0,10-4.477,10-10V89.82c0-5.523-4.478-10-10-10s-10,4.477-10,10v0.113  C34.706,95.456,39.184,99.933,44.706,99.933z"/>
<path d="M123.105,154.569c5.522,0,10-4.477,10-10v-25.082c0-5.523-4.478-10-10-10s-10,4.477-10,10v25.082  C113.105,150.092,117.582,154.569,123.105,154.569z"/>
<path d="M123.105,99.933c5.522,0,10-4.477,10-10V89.82c0-5.523-4.478-10-10-10s-10,4.477-10,10v0.113  C113.105,95.456,117.582,99.933,123.105,99.933z"/>
<g>
</g>
<g>
</g>
<g>
</g>
<g>
</g>
<g>
</g>
<g>
</g>
<g>
</g>
<g>
</g>
<g>
</g>
<g>
</g>
<g>
</g>
<g>
</g>
<g>
</g>
<g>
</g>
<g>
</g>
</svg>
