<?xml version="1.0" encoding="iso-8859-1"?>
<!-- Generator: Adobe Illustrator 19.0.0, SVG Export Plug-In . SVG Version: 6.00 Build 0)  -->
<svg xmlns="http://www.w3.org/2000/svg" xmlns:xlink="http://www.w3.org/1999/xlink" version="1.1" id="Capa_1" x="0px" y="0px" viewBox="0 0 512 512" style="enable-background:new 0 0 512 512;" xml:space="preserve">
<path style="fill:#F9BD95;" d="M197.098,109.995c-1.789,5.777-2.755,11.915-2.755,18.279c0,34.107,27.673,61.756,61.809,61.756  s61.809-27.649,61.809-61.756c0-6.364-0.966-12.502-2.755-18.279H197.098z"/>
<g>
	<path style="fill:#FFC943;" d="M195.977,69.997c0-33.135,26.885-59.997,60.049-59.997s60.049,26.862,60.049,59.997"/>
	<rect x="161.953" y="69.997" style="fill:#FFC943;" width="188.151" height="39.998"/>
</g>
<path style="fill:#41A5A5;" d="M304.173,190.025c-4.613,22.276-24.358,39.02-48.02,39.02s-43.407-16.744-48.02-39.02h-98.248v87.977  h58.068v142.014h88.072h0.127h88.072V278.001h58.068v-87.977L304.173,190.025L304.173,190.025z"/>
<path d="M293.209,382.995h-0.131c-5.523,0-10-4.477-10-10c0-5.523,4.477-10,10-10h0.131c5.523,0,10,4.477,10,10  C303.209,378.519,298.732,382.995,293.209,382.995z"/>
<path d="M465.99,228.944h-53.698v-38.919c0-5.523-4.477-10-10-10h-96.474c13.631-13.067,22.144-31.429,22.144-51.751  c0-2.777-0.162-5.54-0.478-8.28h22.619c5.523,0,10-4.477,10-10V69.997c0-5.523-4.477-10-10-10h-24.755  C320.476,26.122,291.252,0,256.026,0s-64.45,26.122-69.322,59.997H161.95c-5.523,0-10,4.477-10,10v39.998c0,5.523,4.477,10,10,10  h22.873c-0.316,2.74-0.478,5.503-0.478,8.28c0,20.322,8.513,38.683,22.144,51.751h-96.603c-5.523,0-10,4.477-10,10v38.919H46.01  c-5.523,0-10,4.477-10,10c0,5.523,4.477,10,10,10h53.875v29.059c0,5.523,4.477,10,10,10h48.069v132.015c0,5.523,4.477,10,10,10  h62.06V502c0,5.523,4.477,10,10,10h32.025c5.523,0,10-4.477,10-10v-71.986h62.186c5.523,0,10-4.477,10-10V288.001h48.069  c5.523,0,10-4.477,10-10v-29.059h53.698c5.523,0,10-4.477,10-10C475.989,233.421,471.512,228.944,465.99,228.944z M256.025,19.999  c24.17,0,44.392,17.204,49.042,39.998h-98.084C211.633,37.203,231.855,19.999,256.025,19.999z M171.948,79.996h168.154v19.999  h-24.895H197.098h-25.149V79.996H171.948z M204.343,128.274c0-2.787,0.221-5.554,0.659-8.28h102.301  c0.438,2.726,0.659,5.493,0.659,8.28c0,28.539-23.242,51.756-51.81,51.756S204.343,156.812,204.343,128.274z M256.152,200.029  c13.932,0,26.942-3.999,37.965-10.888c-4.158,17.396-19.933,29.905-37.965,29.905c-18.031,0-33.806-12.508-37.964-29.905  C229.21,196.03,242.22,200.029,256.152,200.029z M262.039,492.001h-12.026v-61.986h12.026V492.001z M392.292,268.002h-48.069  c-5.523,0-10,4.477-10,10v7h-28.159c-5.523,0-10,4.477-10,10c0,5.523,4.477,9.999,10,9.999h28.159v105.016H272.25  c-0.072-0.002-0.141-0.011-0.213-0.011h-32.025c-0.072,0-0.141,0.009-0.213,0.011h-61.847v-27.02h82.747c5.523,0,10-4.477,10-10  c0-5.523-4.477-10-10-10h-82.747v-28.999h39.04c5.523,0,10-4.477,10-10s-4.477-10-10-10h-39.04v-35.998c0-5.523-4.477-10-10-10  h-48.068v-67.978h80.706c8.312,23.03,30.502,39.02,55.56,39.02c25.06,0,47.25-15.99,55.561-39.02h80.579v67.978H392.292z"/>
<g>
</g>
<g>
</g>
<g>
</g>
<g>
</g>
<g>
</g>
<g>
</g>
<g>
</g>
<g>
</g>
<g>
</g>
<g>
</g>
<g>
</g>
<g>
</g>
<g>
</g>
<g>
</g>
<g>
</g>
</svg>
