<?xml version="1.0" encoding="iso-8859-1"?>
<!-- Generator: Adobe Illustrator 19.0.0, SVG Export Plug-In . SVG Version: 6.00 Build 0)  -->
<svg xmlns="http://www.w3.org/2000/svg" xmlns:xlink="http://www.w3.org/1999/xlink" version="1.1" id="Capa_1" x="0px" y="0px" viewBox="0 0 512 512" style="enable-background:new 0 0 512 512;" xml:space="preserve">
<g>
	<path style="fill:#41A5A5;" d="M448.619,94.184l0.008-0.01c-0.033-0.138-5.046-32.438,11.925-51.106   c2.467-2.713,5.277-5.004,8.275-6.939c23.159-14.939,46.526,19.077,24.095,35.09c-2.523,1.802-9.191,3.858-16.583,3.561   C456.749,73.992,448.619,94.184,448.619,94.184z"/>
	<path style="fill:#41A5A5;" d="M387.413,66.945c-9.933,0.4-18.892-2.365-22.283-4.785c-30.138-21.517,1.258-67.222,32.377-47.15   c4.03,2.599,7.804,5.678,11.12,9.323c22.802,25.084,16.066,68.483,16.023,68.669l0.011,0.013   C424.661,93.017,413.736,65.886,387.413,66.945z"/>
</g>
<rect x="409.918" y="124.035" style="fill:#298CB2;" width="47.99" height="35.393"/>
<path style="fill:#41A5A5;" d="M457.909,159.431v96.388c0,65.756-25.606,127.575-72.102,174.07  c-46.497,46.496-108.315,72.102-174.07,72.102C100.498,501.992,9.998,411.493,9.998,300.254c0-91.637,74.552-166.19,166.19-166.19  c75.955,0.001,137.75,61.795,137.75,137.752c0,63.411-51.589,114.999-114.998,114.999c-53.375,0-96.799-43.424-96.799-96.799  c0-45.346,36.892-82.238,82.239-82.238c38.923,0,70.589,31.667,70.589,70.59c0,21.569-14.023,42.78-34.103,51.581  c-15.566,6.824-31.804,4.502-43.428-6.211c-9.745-8.98-10.364-24.161-1.384-33.906c7.255-7.87,18.549-9.789,27.761-5.505  c1.609-1.652,3.163-4.115,3.163-5.959c0-12.462-10.138-22.6-22.598-22.6c-18.885,0-34.248,15.363-34.248,34.247  c0,26.914,21.895,48.808,48.808,48.808c36.949,0,67.008-30.06,67.008-67.009c0-49.494-40.266-89.76-89.759-89.76  c-65.176,0-118.199,53.023-118.199,118.198C57.988,385.03,126.959,454,211.736,454c109.278,0.001,198.183-88.903,198.183-198.182  v-96.388H457.909z"/>
<path d="M457.909,207.354c-5.521,0-9.998,4.476-9.998,9.998v1.167c0,5.522,4.477,9.998,9.998,9.998s9.998-4.476,9.998-9.998v-1.167  C467.907,211.831,463.43,207.354,457.909,207.354z"/>
<path d="M457.909,117.012h-47.99c-5.521,0-9.998,4.476-9.998,9.998v128.808c0,103.765-84.419,188.185-188.185,188.185  c-79.263-0.001-143.749-64.486-143.749-143.749c0-59.662,48.539-108.201,108.201-108.201c18.403,0,35.372,6.266,48.884,16.776  c-11.951-7.02-25.86-11.048-40.693-11.048c-50.859,0-92.237,41.377-92.237,92.236c0,58.888,47.909,106.797,106.797,106.797  c68.923,0,124.996-56.074,124.996-124.997c0-81.469-66.28-147.749-147.748-147.749C79.037,124.066,0,203.104,0,300.254  c0,116.751,94.984,211.735,211.736,211.735c68.424,0,132.756-26.646,181.141-75.03c48.384-48.384,75.03-112.715,75.03-181.14v-3.306  c0-5.522-4.477-9.998-9.998-9.998s-9.998,4.476-9.998,9.998v3.306c0,63.084-24.566,122.393-69.174,167.001  c-44.608,44.607-103.917,69.174-167.001,69.174c-105.726-0.001-191.74-86.014-191.74-191.74  c0-86.125,70.067-156.192,156.192-156.192c70.443,0,127.752,57.311,127.752,127.754c0,57.898-47.103,105.001-105,105.001  c-47.862,0-86.801-38.938-86.801-86.801c0-39.833,32.407-72.24,72.241-72.24c33.409,0,60.591,27.182,60.591,60.592  c0,17.722-11.563,35.168-28.119,42.424c-11.998,5.258-23.893,3.652-32.639-4.406c-2.748-2.534-4.347-5.986-4.499-9.722  c-0.152-3.735,1.159-7.308,3.691-10.056c4.148-4.499,10.655-5.791,16.194-3.215c3.852,1.791,8.414,0.953,11.378-2.09  c1.805-1.853,6-6.82,6-12.935c0-17.974-14.622-32.598-32.597-32.598c-24.397,0-44.246,19.848-44.246,44.245  c0,32.427,26.381,58.806,58.806,58.806c42.462,0,77.006-34.545,77.006-77.007c0-55.007-44.751-99.758-99.757-99.758  c-70.687,0-128.196,57.51-128.196,128.197c0,90.289,73.456,163.744,163.745,163.744c114.791,0,208.181-93.388,208.181-208.18v-86.39  h27.994v13.337c0,5.522,4.477,9.998,9.998,9.998s9.998-4.476,9.998-9.998V127.01C467.907,121.489,463.43,117.012,457.909,117.012z   M168.699,283.055c-3.887,4.217-6.502,9.161-7.864,14.356c-0.464-2.396-0.707-4.867-0.707-7.396  c0-13.371,10.879-24.249,24.25-24.249c4.672,0,8.759,2.556,10.935,6.344C185.499,271.632,175.701,275.459,168.699,283.055z   M419.916,149.433v-12.424h27.994v12.424H419.916z"/>
<path d="M506.315,36.557c-8.564-12.615-26.052-19.699-42.907-8.83c-3.882,2.504-7.332,5.402-10.255,8.615  c-17.85,19.637-15.479,50.452-14.523,58.259c0.142,3.309,1.93,6.445,4.949,8.209c1.576,0.921,3.313,1.365,5.034,1.365  c2.955,0,5.863-1.309,7.82-3.756c0.629-0.787,1.129-1.654,1.49-2.568c0.668-1.51,6.399-13.534,18.014-13.081  c8.62,0.354,17.774-1.83,22.794-5.414C514.933,67.789,514.81,49.071,506.315,36.557z M487.2,63.019  c-1.022,0.573-5.206,1.976-10.458,1.771c-6.671-0.269-12.483,1.22-17.429,3.697c1.402-6.805,4.02-13.617,8.633-18.692  c1.755-1.929,3.874-3.7,6.301-5.265c2.379-1.535,4.527-2.116,6.42-2.116c5.114,0,8.341,4.248,9.104,5.374  C490.791,49.29,495.439,57.059,487.2,63.019z"/>
<path d="M359.322,70.298c6.077,4.338,17.793,7.07,28.493,6.638c18.396-0.735,26.858,18.149,27.538,19.736  c0.427,1.083,1.044,2.098,1.837,2.988c1.956,2.201,4.699,3.356,7.478,3.356c1.809,0,3.631-0.49,5.262-1.5  c2.871-1.78,4.564-4.815,4.721-8.015c1.199-9.048,4.969-49.939-18.625-75.893c-3.722-4.093-8.128-7.793-13.097-10.998  c-20.793-13.413-42.376-4.666-52.947,10.908C339.5,32.95,339.345,56.037,359.322,70.298z M366.523,28.749  c4.753-7.003,14.3-12.602,25.565-5.336c3.51,2.266,6.587,4.839,9.142,7.647c8.722,9.594,12.352,22.687,13.699,34.225  c-6.657-4.786-15.222-8.37-25.95-8.37c-0.646,0-1.306,0.013-1.969,0.04c-8.327,0.331-14.797-2.073-16.07-2.932  C360.213,46.366,361.857,35.622,366.523,28.749z"/>
<g>
</g>
<g>
</g>
<g>
</g>
<g>
</g>
<g>
</g>
<g>
</g>
<g>
</g>
<g>
</g>
<g>
</g>
<g>
</g>
<g>
</g>
<g>
</g>
<g>
</g>
<g>
</g>
<g>
</g>
</svg>
