<?xml version="1.0" encoding="iso-8859-1"?>
<!-- Generator: Adobe Illustrator 19.0.0, SVG Export Plug-In . SVG Version: 6.00 Build 0)  -->
<svg xmlns="http://www.w3.org/2000/svg" xmlns:xlink="http://www.w3.org/1999/xlink" version="1.1" id="Capa_1" x="0px" y="0px" viewBox="0 0 512 512" style="enable-background:new 0 0 512 512;" xml:space="preserve">
<path style="fill:#A766B2;" d="M431.502,182.923l-35.438-81.498h-90.059v133.44c12.546-8.389,27.624-13.287,43.849-13.287  c40.928,0,74.585,31.124,78.596,70.996l73.551-0.01v-89.14L431.502,182.923z"/>
<polygon style="fill:#FFC943;" points="458.001,237.424 502,237.424 502,203.423 458.001,190.629 "/>
<polygon style="fill:#72C6CC;" points="396.063,101.425 345.981,101.425 345.981,182.923 431.502,182.923 "/>
<g>
	<circle style="fill:#D1C584;" cx="41.999" cy="324.574" r="31.999"/>
	<circle style="fill:#D1C584;" cx="105.998" cy="324.574" r="31.999"/>
</g>
<rect x="10.01" y="244.575" style="fill:#A766B2;" width="319.844" height="47.999"/>
<circle style="fill:#D1C584;" cx="349.853" cy="300.574" r="55.999"/>
<g>
	<rect x="19.674" y="120.578" style="fill:#E27F4D;" width="123.998" height="123.998"/>
	<rect x="143.327" y="120.578" style="fill:#E27F4D;" width="123.998" height="123.998"/>
</g>
<circle style="fill:#A766B2;" cx="349.853" cy="300.574" r="20"/>
<path d="M81.673,130.578h0.008c5.522,0,9.996-4.477,9.996-10c0-5.523-4.481-10-10.004-10s-10,4.477-10,10  C71.674,126.102,76.151,130.578,81.673,130.578z"/>
<path d="M205.672,130.578h0.008c5.522,0,9.996-4.477,9.996-10c0-5.523-4.481-10-10.004-10c-5.523,0-10,4.477-10,10  C195.672,126.102,200.149,130.578,205.672,130.578z"/>
<path d="M319.854,300.576c0,16.542,13.458,29.999,29.999,29.999c16.542,0,29.999-13.458,29.999-29.999  c0-16.542-13.458-29.999-29.999-29.999C333.311,270.577,319.854,284.034,319.854,300.576z M359.853,300.576c0,5.514-4.486,10-10,10  c-5.514,0-10-4.486-10-10c0-5.514,4.486-10,10-10C355.367,290.576,359.853,295.062,359.853,300.576z"/>
<path d="M512,203.423c0-4.447-2.938-8.36-7.208-9.602l-65.992-19.19l-33.567-77.193c-1.588-3.651-5.189-6.012-9.171-6.012h-90.058  c-5.522,0-10,4.477-10,10v133.152h-18.333v-114c0-5.523-4.478-10-10-10h-30.667c-5.522,0-10,4.477-10,10c0,5.523,4.478,10,10,10  h6.525l-37.857,37.857l-37.857-37.857h4.523c5.522,0,10-4.477,10-10c0-5.523-4.478-10-10-10h-28.665h-30.667  c-5.522,0-10,4.477-10,10c0,5.523,4.478,10,10,10h6.525l-37.857,37.857l-37.857-37.857h4.523c5.522,0,10-4.477,10-10  c0-5.523-4.478-10-10-10H19.675c-5.522,0-10,4.477-10,10v114.016c-5.366,0.178-9.665,4.573-9.665,9.983v47.999  c0,4.333,2.762,8.012,6.617,9.4C2.44,308.507,0,316.26,0,324.576c0,8.317,2.44,16.07,6.627,22.6  c-3.855,1.388-6.617,5.067-6.617,9.401c0,5.523,4.478,10,10,10h183.724c5.522,0,10-4.477,10-10c0-5.523-4.478-10-10-10h-51.978  c3.954-6.403,6.242-13.938,6.242-22s-2.288-15.597-6.242-22h142.15c0.512,17.083,7.538,32.549,18.685,43.999h-40.252  c-5.522,0-10,4.477-10,10c0,5.523,4.478,10,10,10H502c5.522,0,10-4.477,10-10c0-5.523-4.478-10-10-10H397.117  c11.582-11.897,18.736-28.124,18.736-45.999c0-36.392-29.606-65.999-65.999-65.999h-20.169c6.485-1.98,13.269-3,20.169-3  c35.578,0,65.091,26.652,68.646,61.997c0.515,5.11,4.815,9,9.951,8.999l73.551-0.01c5.522-0.001,9.999-4.478,9.999-10V203.423z   M286.37,282.576H20.01v-27.999h282.58C295.052,262.321,289.401,271.901,286.37,282.576z M41.999,346.575c-12.131,0-22-9.869-22-22  s9.869-22,22-22s22,9.869,22,22S54.13,346.575,41.999,346.575z M43.816,234.577l37.857-37.857l37.857,37.857H43.816z   M167.815,234.577l37.857-37.857l37.857,37.857H167.815z M257.672,144.721v75.715l-37.857-37.857L257.672,144.721z M153.673,220.436  v-75.715l37.857,37.857L153.673,220.436z M133.673,144.721v75.715l-37.857-37.857L133.673,144.721z M29.674,220.436v-75.715  l37.857,37.857L29.674,220.436z M127.997,324.576c0,12.131-9.869,22-22,22s-22-9.869-22-22s9.869-22,22-22  S127.997,312.445,127.997,324.576z M395.852,300.576c0,25.363-20.636,45.999-45.999,45.999s-45.999-20.636-45.999-45.999  c0-25.364,20.636-45.999,45.999-45.999S395.852,275.213,395.852,300.576z M492,227.425h-24v-23.474l24,6.979V227.425z   M416.249,172.924H355.98v-61.499h33.526L416.249,172.924z M437.024,282.572c-3.771-18.342-13.271-35.082-27.3-47.845  c-16.409-14.929-37.672-23.15-59.871-23.15c-11.722,0-23.185,2.278-33.85,6.671V111.425h19.978v71.499c0,5.523,4.478,10,10,10  h84.097L448,198.135v39.289c0,5.523,4.478,10,10,10h33.999v35.141L437.024,282.572z"/>
<path d="M502,400.574H368.003c-5.522,0-10,4.477-10,10c0,5.523,4.478,10,10,10H502c5.522,0,10-4.477,10-10  C512,405.051,507.522,400.574,502,400.574z"/>
<path d="M333.474,400.574h-0.13c-5.522,0-10,4.477-10,10c0,5.523,4.478,10,10,10h0.13c5.522,0,10-4.477,10-10  C343.474,405.051,338.997,400.574,333.474,400.574z"/>
<path d="M299.397,400.574H10.01c-5.522,0-10,4.477-10,10c0,5.523,4.478,10,10,10h289.388c5.522,0,10-4.477,10-10  C309.398,405.051,304.92,400.574,299.397,400.574z"/>
<path d="M228.392,366.576c5.522,0,10-4.477,10-10c0-5.523-4.478-10-10-10h-0.13c-5.522,0-10,4.477-10,10c0,5.523,4.478,10,10,10  H228.392z"/>
<g>
</g>
<g>
</g>
<g>
</g>
<g>
</g>
<g>
</g>
<g>
</g>
<g>
</g>
<g>
</g>
<g>
</g>
<g>
</g>
<g>
</g>
<g>
</g>
<g>
</g>
<g>
</g>
<g>
</g>
</svg>
