<?xml version="1.0" encoding="iso-8859-1"?>
<!-- Generator: Adobe Illustrator 19.0.0, SVG Export Plug-In . SVG Version: 6.00 Build 0)  -->
<svg xmlns="http://www.w3.org/2000/svg" xmlns:xlink="http://www.w3.org/1999/xlink" version="1.1" id="Capa_1" x="0px" y="0px" viewBox="0 0 512 512" style="enable-background:new 0 0 512 512;" xml:space="preserve">
<path style="fill:#A766B2;" d="M238.309,406.98c5.548-5.547,12.558-9.296,20.142-11.304c0.034-0.009,0.068-0.018,0.101-0.027  l154.892-41.839c18.842-5.049,30.026-24.417,24.976-43.26c-5.048-18.845-24.417-30.026-43.26-24.976l-25.378,7.135l121.537-121.537  c13.609-13.609,14.443-35.783,1.212-49.76c-13.727-14.502-36.618-14.739-50.645-0.712l-0.321,0.321l-0.172-0.172l35.334-35.334  c13.609-13.609,14.443-35.783,1.212-49.76c-13.727-14.502-36.618-14.739-50.645-0.712l-35.854,35.854l-0.277-0.277l0.072-0.072  c12.169-12.169,14.207-31.464,4.23-45.487c-13.063-18.361-38.714-19.933-53.933-4.714l-88.802,88.802l14.197-41.708  c6.287-18.468-3.587-38.535-22.056-44.82c-18.467-6.286-38.532,3.588-44.82,22.056l-71.755,205.898l-2.776,2.776L10.077,368.795  l133.207,133.207L238.309,406.98z"/>
<rect x="0.948" y="390.831" transform="matrix(-0.7071 -0.7071 0.7071 -0.7071 -132.4071 779.0283)" style="fill:#72C6CC;" width="188.381" height="52.212"/>
<path d="M499.794,114.537c-6.68-7.056-15.201-11.677-24.536-13.412l8.541-8.541c17.478-17.478,18.108-46.056,1.404-63.704  c-8.495-8.974-19.968-14.009-32.306-14.178c-12.304-0.163-23.944,4.542-32.671,13.269l-9.079,9.08  c-1.148-6.251-3.645-12.324-7.533-17.788c-7.845-11.025-19.984-17.988-33.306-19.103c-13.331-1.116-26.394,3.665-35.846,13.115  l-58.424,58.425l0.354-1.038c3.9-11.46,3.106-23.754-2.239-34.616c-5.346-10.861-14.601-18.991-26.059-22.891  c-11.461-3.9-23.755-3.107-34.615,2.24c-10.86,5.345-18.991,14.6-22.869,25.991l-71.001,203.737L3.007,361.725  c-1.875,1.875-2.929,4.418-2.929,7.07c0,2.652,1.054,5.195,2.929,7.07l133.207,133.207c1.953,1.953,4.511,2.929,7.07,2.929  s5.117-0.977,7.07-2.929l95.025-95.023l0,0c4.064-4.064,9.471-7.076,15.561-8.69l0.102-0.027c0.039-0.01,0.078-0.021,0.117-0.031  l154.873-41.834c24.139-6.468,38.514-31.367,32.046-55.505c-3.133-11.694-10.631-21.468-21.116-27.52  c-7.619-4.399-16.157-6.45-24.732-6.039l96.162-96.162C515.869,160.762,516.499,132.185,499.794,114.537z M484.249,164.101  L364.602,283.749l-29.717,8.007c-5.332,1.437-8.49,6.923-7.053,12.255c1.202,4.46,5.238,7.4,9.648,7.4  c0.86,0,1.736-0.112,2.607-0.347l32.296-8.702c0.015-0.004,0.029-0.01,0.044-0.014c0.02-0.006,0.041-0.009,0.061-0.014l25.311-7.117  c6.516-1.733,13.321-0.831,19.163,2.542c5.857,3.382,10.048,8.843,11.798,15.378c3.613,13.487-4.418,27.4-17.925,31.02  l-154.882,41.837l-0.063,0.017c-9.57,2.535-18.094,7.341-24.651,13.899l-52.154,52.153l-5.81-5.81  c-3.905-3.904-10.235-3.904-14.141,0c-3.904,3.904-3.904,10.236,0,14.141l5.809,5.809l-21.66,21.659L24.218,368.795l21.659-21.659  l71.493,71.492c1.953,1.953,4.511,2.929,7.07,2.929c2.559,0,5.117-0.977,7.07-2.929c3.904-3.904,3.904-10.236,0-14.14  l-71.493-71.492l75.352-75.351c1.065-1.065,1.876-2.358,2.372-3.779l71.778-205.967c2.18-6.403,6.723-11.575,12.791-14.561  c6.069-2.988,12.938-3.432,19.342-1.251c6.403,2.179,11.574,6.721,14.56,12.79c2.987,6.069,3.432,12.938,1.251,19.342  l-14.192,41.696l-12.218,35.04c-1.818,5.214,0.935,10.915,6.148,12.733c1.09,0.38,2.201,0.561,3.293,0.561  c4.135,0,8.003-2.585,9.441-6.709l11.485-32.936l87.184-87.185c5.28-5.281,12.59-7.948,20.036-7.329  c7.556,0.633,14.189,4.457,18.68,10.769c6.984,9.816,5.628,23.84-3.129,32.597l-0.072,0.071c-0.003,0.003-0.006,0.007-0.01,0.01  c-0.005,0.005-0.01,0.009-0.015,0.013l-85.664,85.664c-3.904,3.904-3.904,10.236,0,14.141c1.953,1.953,4.511,2.929,7.07,2.929  s5.117-0.976,7.07-2.929l83.719-83.719c0.795-0.442,1.547-0.992,2.222-1.667l35.854-35.854c4.875-4.876,11.391-7.517,18.256-7.415  c6.894,0.095,13.307,2.911,18.057,7.93c9.33,9.857,8.872,25.924-1.021,35.817l-35.334,35.334c-0.528,0.528-0.979,1.103-1.364,1.708  l-84.128,84.128c-3.904,3.904-3.904,10.236,0,14.141c1.953,1.953,4.511,2.929,7.07,2.929c2.559,0,5.118-0.977,7.07-2.929  l86.005-86.004c4.873-4.863,11.344-7.486,18.236-7.396c6.894,0.095,13.307,2.911,18.057,7.93  C494.601,138.14,494.143,154.208,484.249,164.101z"/>
<path d="M152.919,425.898c-3.905-3.904-10.235-3.904-14.141,0c-3.904,3.904-3.904,10.236,0,14.141l0.108,0.108  c1.953,1.953,4.511,2.929,7.07,2.929c2.559,0,5.117-0.976,7.07-2.929c3.904-3.904,3.904-10.236,0-14.141L152.919,425.898z"/>
<g>
</g>
<g>
</g>
<g>
</g>
<g>
</g>
<g>
</g>
<g>
</g>
<g>
</g>
<g>
</g>
<g>
</g>
<g>
</g>
<g>
</g>
<g>
</g>
<g>
</g>
<g>
</g>
<g>
</g>
</svg>
