<?xml version="1.0" encoding="iso-8859-1"?>
<!-- Generator: Adobe Illustrator 19.0.0, SVG Export Plug-In . SVG Version: 6.00 Build 0)  -->
<svg xmlns="http://www.w3.org/2000/svg" xmlns:xlink="http://www.w3.org/1999/xlink" version="1.1" id="Capa_1" x="0px" y="0px" viewBox="0 0 512 512" style="enable-background:new 0 0 512 512;" xml:space="preserve">
<g>
	<polygon style="fill:#E27F4D;" points="10.005,113.631 69.338,78.53 128.669,113.631 128.669,182.141 69.338,217.242    10.005,182.141  "/>
	<polygon style="fill:#E27F4D;" points="383.331,113.631 442.663,78.53 501.994,113.631 501.994,182.141 442.663,217.242    383.331,182.141  "/>
	<polygon style="fill:#E27F4D;" points="188.001,10 188.001,78.51 128.669,113.611 69.338,78.51 69.338,10  "/>
	<polygon style="fill:#E27F4D;" points="442.663,10 442.663,78.51 383.331,113.611 323.998,78.51 323.998,10  "/>
</g>
<g>
	<path style="fill:#DFDCE5;" d="M186.297,353.514c-16.832,23.551-49.419,60.367-68.477,79.424   c-15.862,15.862-39.056,19.998-58.753,12.395c-0.443,14.63,4.896,29.405,16.059,40.568c21.482,21.482,56.343,21.449,77.791,0   c12.219-12.219,40.865-43.928,52.463-58.543L186.297,353.514z"/>
	<path style="fill:#DFDCE5;" d="M325.715,353.514c16.832,23.551,49.419,60.367,68.477,79.424   c15.862,15.862,39.056,19.998,58.753,12.395c0.443,14.63-4.896,29.405-16.059,40.568c-21.482,21.482-56.343,21.449-77.791,0   c-12.219-12.219-36.511-38.59-48.109-53.206L325.715,353.514z"/>
</g>
<path style="fill:#FFFFFF;" d="M325.717,352.727c0.003,0.265-0.003,0.53-0.002,0.794c16.832,23.549,49.421,60.362,68.477,79.417  c21.449,21.449,56.31,21.482,77.791,0c21.482-21.482,21.449-56.343,0-77.791c-55.115-55.115-144.581-109.25-178.374-114.247h-75.205  c-33.793,4.997-123.259,59.132-178.374,114.247c-21.449,21.449-21.482,56.31,0,77.791c21.482,21.482,56.343,21.449,77.791,0  c19.056-19.056,51.645-55.869,68.477-79.417c0.001-0.265-0.005-0.53-0.002-0.794H325.717z"/>
<g>
	<circle style="fill:#FFC943;" cx="255.995" cy="220.035" r="42.999"/>
	<path style="fill:#FFC943;" d="M278.86,256.447c-6.624,4.167-14.458,6.587-22.861,6.587c-8.402,0-16.235-2.419-22.857-6.585   c-20.234,17.969-46.633,49.474-47.042,91.933c-0.645,68.79,52.743,153.608,69.899,153.608c17.157,0,69.257-83.809,69.9-152.769   C326.301,306.52,299.404,274.601,278.86,256.447z"/>
</g>
<g>
	<path style="fill:#E27F4D;" d="M325.899,349.22c0.025-2.646-0.056-5.25-0.233-7.812h-139.25c-0.178,2.292-0.293,4.613-0.316,6.973   c-0.103,10.945,1.167,22.295,3.436,33.644h132.668C324.459,370.979,325.8,359.921,325.899,349.22z"/>
	<path style="fill:#E27F4D;" d="M311.031,420.19H200.656c5.564,14.741,12.221,28.619,19.057,40.616h72.381   C298.873,448.815,305.479,434.941,311.031,420.19z"/>
	<path style="fill:#E27F4D;" d="M314.781,302.027c-8.228-16.684-19.813-30.346-30.531-40.616h-16.575   c-3.714,1.049-7.626,1.623-11.676,1.623s-7.962-0.574-11.676-1.623h-16.542c-10.642,10.252-22.145,23.898-30.367,40.616H314.781z"/>
</g>
<path d="M69.337,227.242c1.761,0,3.521-0.464,5.092-1.393l59.333-35.1c3.042-1.8,4.908-5.072,4.908-8.607v-62.829l54.424-32.196  c3.042-1.799,4.908-5.072,4.908-8.606V10c0-5.523-4.478-10-10-10H69.337c-5.522,0-10,4.477-10,10v62.828L4.914,105.025  c-3.042,1.8-4.908,5.072-4.908,8.606v68.511c0,3.535,1.866,6.807,4.908,8.607l59.332,35.1  C65.816,226.777,67.577,227.242,69.337,227.242z M178.001,20v52.808l-49.349,29.194L79.336,72.827V20H178.001z M20.005,119.333  l49.332-29.185l49.333,29.185v57.105l-49.333,29.185l-49.332-29.185C20.005,176.438,20.005,119.333,20.005,119.333z"/>
<path d="M507.086,105.025l-54.424-32.197V10c0-5.523-4.478-10-10-10H323.998c-5.522,0-10,4.477-10,10V78.51  c0,3.535,1.866,6.807,4.908,8.606l54.424,32.196v62.829c0,3.535,1.866,6.807,4.908,8.607l59.333,35.1  c1.57,0.929,3.331,1.393,5.092,1.393c1.761,0,3.521-0.464,5.092-1.394l59.332-35.1c3.042-1.8,4.908-5.072,4.908-8.607V113.63  C511.994,110.097,510.128,106.825,507.086,105.025z M333.998,20h98.665v52.828l-49.316,29.175l-49.349-29.194L333.998,20L333.998,20  z M491.994,176.438l-49.332,29.185l-49.333-29.185v-57.105l49.333-29.185l49.332,29.185V176.438z"/>
<path d="M86.442,366.281c2.194,0,4.403-0.719,6.249-2.198c21.839-17.506,47.777-35.094,48.037-35.27  c4.573-3.096,5.771-9.313,2.676-13.887c-3.095-4.574-9.314-5.771-13.886-2.677c-1.086,0.735-26.852,18.205-49.337,36.228  c-4.309,3.455-5.002,9.748-1.548,14.057C80.609,364.999,83.512,366.281,86.442,366.281z"/>
<path d="M72.394,367.611c-3.896-3.894-10.191-3.894-14.103-0.018c-3.909,3.878-3.938,10.198-0.076,14.124  c0.02,0.02,0.061,0.062,0.08,0.081c1.95,1.949,4.502,2.923,7.055,2.923c2.547,0,5.095-0.969,7.048-2.905  c3.909-3.878,3.938-10.198,0.076-14.124C72.455,367.673,72.414,367.631,72.394,367.611z"/>
<path d="M380.123,270.763c-28.894-18.165-54.596-31.086-72.981-36.846c1.203-4.428,1.857-9.08,1.857-13.883  c0-20.187-11.347-37.768-27.995-46.715c2.244-7.112,8.9-12.284,16.744-12.284c5.522,0,10-4.477,10-10c0-5.523-4.478-10-10-10  c-16.802,0-31.06,11.092-35.842,26.336c-1.94-0.216-3.908-0.337-5.905-0.337s-3.965,0.121-5.905,0.337  c-4.782-15.246-19.041-26.336-35.842-26.336c-5.522,0-10,4.477-10,10c0,5.523,4.478,10,10,10c7.844,0,14.5,5.172,16.744,12.284  c-16.649,8.947-27.995,26.528-27.995,46.715c0,4.805,0.654,9.458,1.858,13.887c-18.386,5.761-44.082,18.682-72.97,36.842  c-36.999,23.26-73.058,51.439-98.932,77.312c-12.266,12.265-19.023,28.584-19.028,45.952c-0.005,17.377,6.753,33.707,19.028,45.982  c4.905,4.904,10.409,8.848,16.274,11.855c1.145,15.545,7.744,30.027,18.825,41.107C80.325,505.242,96.647,512,114.017,512  c0.007,0,0.014,0,0.02,0c17.368-0.005,33.687-6.763,45.951-19.028c9.017-9.016,27.615-29.304,41.52-45.401  c10.675,22.22,23.617,42.181,34.895,53.565c7.335,7.404,13.562,10.853,19.597,10.853c7.654,0,15.855-5.669,25.81-17.842  c7.981-9.759,16.583-23.29,24.22-38.099c1.459-2.83,2.865-5.677,4.228-8.535c13.082,15.377,31.956,35.65,41.764,45.459  c12.674,12.673,29.32,19.01,45.967,19.01s33.294-6.336,45.968-19.01c11.095-11.095,17.676-25.561,18.818-41.104  c5.867-3.007,11.373-6.952,16.279-11.858c12.275-12.275,19.033-28.605,19.028-45.982c-0.005-17.368-6.763-33.687-19.028-45.951  C453.181,322.202,417.121,294.024,380.123,270.763z M290.036,443.365c-1.511,3.034-3.013,5.914-4.501,8.659h-59.277  c-1.586-2.897-3.185-5.941-4.787-9.15c-1.797-3.601-3.493-7.222-5.116-10.85h53.061c5.522,0,10-4.477,10-10s-4.478-10-10-10h-61.099  c-2.396-6.742-4.445-13.43-6.161-20h107.385C305.119,408.805,298.517,426.336,290.036,443.365z M203.842,312.027h104.523  c4.717,11.156,7.663,23.559,7.536,37.101c-0.007,0.701-0.045,1.425-0.063,2.135c-0.076,0.515-0.124,1.039-0.118,1.576l-0.003,0.721  c0.001,0.246,0.012,0.492,0.031,0.736c-0.278,5.673-0.935,11.612-1.922,17.731h-115.86c-0.928-5.98-1.521-11.774-1.747-17.314  c0.046-0.382,0.077-0.766,0.079-1.153l-0.003-0.758c0.002-0.261-0.016-0.518-0.033-0.775h69.746c5.522,0,10-4.477,10-10  c0-5.523-4.478-10-10-10h-68.27C199.079,324.968,201.19,318.297,203.842,312.027z M214.798,292.028  c6.177-9.098,13.198-16.948,19.958-23.453c6.509,2.86,13.692,4.459,21.244,4.459c7.561,0,14.751-1.603,21.265-4.468  c6.821,6.525,13.895,14.381,20.099,23.463h-82.564V292.028z M256,187.035c18.196,0,32.999,14.804,32.999,32.999  S274.195,253.034,256,253.034S223,238.23,223,220.034S237.804,187.035,256,187.035z M33.929,394.034  c0.004-12.027,4.681-23.327,13.171-31.815c50.256-50.256,131.029-100.569,166.729-110.131c1.304,1.712,2.712,3.34,4.211,4.879  c-20.253,20.343-41.552,51.217-41.94,91.321c-0.007,0.751-0.001,1.501,0.003,2.252c-16.634,22.632-46.603,56.577-65.354,75.327  c-17.548,17.547-46.101,17.549-63.65,0C38.603,417.371,33.926,406.065,33.929,394.034z M145.847,478.83  c-8.489,8.49-19.788,13.167-31.815,13.171c-0.005,0-0.008,0-0.014,0c-12.026,0-23.327-4.678-31.82-13.171  c-5.706-5.706-9.697-12.719-11.692-20.37c2.794,0.362,5.606,0.558,8.419,0.558c16.647,0,33.294-6.336,45.968-19.01  c14.943-14.944,36.854-39.327,53.977-60.449c3.1,17.499,8.392,33.946,13.751,47.603C179.043,443.389,156.082,468.596,145.847,478.83  z M256.01,491.667c-3.202-1.845-9.661-8.401-17.471-19.645h34.857C265.617,483.353,259.238,489.832,256.01,491.667z M429.815,478.83  c-17.549,17.55-46.102,17.548-63.65,0c-11.352-11.351-35.135-37.048-46.999-51.916c6.285-16.167,10.935-32.334,13.717-47.675  c17.161,21.198,39.22,45.753,54.239,60.771c12.674,12.673,29.32,19.01,45.967,19.01c2.813,0,5.625-0.197,8.42-0.559  C439.514,466.108,435.529,473.116,429.815,478.83z M464.911,425.868c-17.549,17.546-46.101,17.549-63.649,0  c-18.761-18.761-48.756-52.736-65.386-75.371c0.007-0.393,0.02-0.79,0.023-1.181c0.379-40.432-21.254-71.741-41.915-92.374  c1.49-1.533,2.891-3.153,4.188-4.856c35.695,9.555,116.479,59.872,166.738,110.133c8.49,8.489,13.167,19.789,13.171,31.815  C478.085,406.065,473.408,417.371,464.911,425.868z"/>
<path d="M453.698,367.611c-3.896-3.894-10.191-3.894-14.103-0.018c-3.909,3.878-3.938,10.198-0.076,14.124  c0.02,0.02,0.061,0.062,0.08,0.081c1.95,1.949,4.502,2.923,7.055,2.923c2.547,0,5.095-0.969,7.048-2.905  c3.909-3.878,3.938-10.198,0.076-14.124C453.759,367.673,453.718,367.631,453.698,367.611z"/>
<path d="M431.83,348.479c-22.484-18.024-48.251-35.493-49.337-36.228c-4.571-3.094-10.79-1.897-13.886,2.677  c-3.096,4.574-1.897,10.791,2.677,13.887c0.259,0.175,26.198,17.764,48.036,35.27c1.846,1.479,4.055,2.198,6.249,2.198  c2.93,0,5.833-1.282,7.809-3.746C436.832,358.226,436.139,351.932,431.83,348.479z"/>
<path d="M297.135,352.025h0.11c5.522,0,10-4.477,10-10c0-5.523-4.478-10-10-10h-0.11c-5.522,0-10,4.477-10,10  C287.135,347.549,291.613,352.025,297.135,352.025z"/>
<path d="M237.465,217.868c5.522,0,10-4.477,10-10c0-5.523-4.478-10-10-10h-0.132c-5.522,0-10,4.477-10,10c0,5.523,4.478,10,10,10  H237.465z"/>
<path d="M274.535,217.868h0.132c5.522,0,10-4.477,10-10c0-5.523-4.478-10-10-10h-0.132c-5.522,0-10,4.477-10,10  C264.535,213.391,269.012,217.868,274.535,217.868z"/>
<g>
</g>
<g>
</g>
<g>
</g>
<g>
</g>
<g>
</g>
<g>
</g>
<g>
</g>
<g>
</g>
<g>
</g>
<g>
</g>
<g>
</g>
<g>
</g>
<g>
</g>
<g>
</g>
<g>
</g>
</svg>
