<?xml version="1.0" encoding="iso-8859-1"?>
<!-- Generator: Adobe Illustrator 19.0.0, SVG Export Plug-In . SVG Version: 6.00 Build 0)  -->
<svg xmlns="http://www.w3.org/2000/svg" xmlns:xlink="http://www.w3.org/1999/xlink" version="1.1" id="Capa_1" x="0px" y="0px" viewBox="0 0 512 512" style="enable-background:new 0 0 512 512;" xml:space="preserve">
<path style="fill:#30995B;" d="M271.226,302.521c-9.235-7.749-15.111-19.372-15.111-32.371c0-20.253,14.256-37.169,33.278-41.282  c-3.742-7.243-5.869-15.457-5.869-24.171c0-29.131,23.615-52.745,52.745-52.745c3.231,0,6.388,0.306,9.459,0.862  c0.141-3.172,0.247-6.264,0.323-9.266l-0.504-37.178c-0.579-10.686-1.333-17.004-1.358-17.266l0.006-0.006l0.011-0.011  c-0.721-0.066-164.531-16.185-257.19,74.705C-5.587,254.675,11.095,421.35,11.222,422.07l-0.046,0.046  c0,0,119.302,14.421,212.421-35.375c-6.921-8.884-11.055-20.046-11.055-32.181c0-15.802,6.991-29.971,18.049-39.582L271.226,302.521  z"/>
<path style="fill:#CE4A30;" d="M407.401,294.928l89.597,89.597c6.717,6.717,6.664,17.762-0.118,24.544l0,0  c-6.782,6.782-17.827,6.835-24.544,0.118l-89.597-89.597L407.401,294.928z"/>
<circle style="fill:#41A5A5;" cx="310.488" cy="222.57" r="118.526"/>
<circle style="fill:#FFFFFF;" cx="310.488" cy="222.57" r="89.005"/>
<path style="fill:#ACD670;" d="M221.486,222.566c0,34.999,20.202,65.272,49.579,79.811c-9.141-7.748-14.95-19.306-14.95-32.228  c0-20.253,14.256-37.169,33.278-41.282c-3.742-7.243-5.869-15.457-5.869-24.171c0-29.131,23.615-52.745,52.745-52.745  c3.23,0,6.388,0.306,9.458,0.862c0.141-3.172,0.247-6.264,0.323-9.266l-0.035-2.607c-10.883-4.742-22.894-7.378-35.524-7.378  C261.333,133.562,221.486,173.409,221.486,222.566z"/>
<path d="M504.069,377.453l-85.46-85.461c12.911-20.035,20.409-43.871,20.409-69.427c0-55.112-34.871-102.228-83.705-120.458  c-0.414-6.561-0.868-11.204-1.138-13.673c-0.061-0.92-0.249-1.839-0.57-2.733c-1.31-3.644-4.617-6.205-8.472-6.573  c-6.925-0.659-170.678-15.116-265.122,77.525c-22.116,21.705-40.014,49.293-53.198,81.994  c-10.447,25.911-17.974,55.087-22.373,86.716c-6.686,48.065-4.05,87.267-3.259,96.422c-0.169,5.087,3.722,9.657,8.794,10.259  c0.915,0.111,17.09,2.019,42.029,2.019c9.264,0,19.743-0.263,31.093-0.98c38.822-2.452,95.529-10.953,145.216-37.522  c2.601-1.391,4.455-3.859,5.066-6.744c0.612-2.885-0.081-5.894-1.894-8.22c-5.851-7.51-8.943-16.514-8.943-26.035  c0-10.761,4.083-21.05,11.333-28.862c21.409,15.946,47.93,25.395,76.616,25.395c25.496,0,49.282-7.463,69.289-20.318l85.484,85.483  c5.119,5.118,11.943,7.932,19.231,7.932c0.045,0,0.091,0,0.137,0c7.302-0.036,14.164-2.895,19.319-8.05  c5.156-5.156,8.015-12.018,8.051-19.32C512.036,389.482,509.219,382.604,504.069,377.453z M24.487,326.446  c6.632-46.323,24.079-110.908,69.532-155.516c45.756-44.882,110.466-62.072,156.693-68.59c7.432-1.048,14.632-1.86,21.521-2.487  c-52.246,16.323-90.27,65.16-90.27,122.713c0,4.685,0.259,9.31,0.75,13.868l-44.731,44.731v-75.67  c0-5.523-4.477-10.001-10.001-10.001c-5.523,0-10.001,4.477-10.001,10.001v95.489c0,0.059,0.008,0.115,0.009,0.173L64.197,354.95  v-35.436c0-5.523-4.477-10.001-10.001-10.001s-10.001,4.477-10.001,10.001v52.238c0,0.971,0.146,1.907,0.404,2.795l-24.551,24.551  C19.707,381.909,20.259,355.967,24.487,326.446z M33.791,413.642l44.652-44.652h70.04c5.523,0,10.001-4.477,10.001-10.001  c0-5.523-4.477-10.001-10.001-10.001H98.445l89.063-89.063c6.102,20.046,16.98,38.029,31.305,52.621  c-10.408,11.435-16.271,26.382-16.271,42.012c0,9.965,2.301,19.544,6.727,28.223C145.048,413.466,69.853,415.044,33.791,413.642z   M201.964,222.566c0-59.842,48.685-108.527,108.527-108.527s108.527,48.685,108.527,108.527  c0,59.841-48.685,108.526-108.527,108.526S201.964,282.407,201.964,222.566z M406.38,308.05l9.681,9.681l-10.52,10.52l-9.687-9.687  C399.559,315.263,403.075,311.753,406.38,308.05z M489.807,401.998c-1.404,1.404-3.277,2.183-5.273,2.192c-0.013,0-0.025,0-0.037,0  c-1.946,0-3.752-0.736-5.09-2.074l-59.723-59.723l10.52-10.52l59.723,59.723c1.347,1.347,2.083,3.168,2.074,5.127  C491.99,398.721,491.212,400.594,489.807,401.998z"/>
<path d="M409.496,222.529c0-54.572-44.414-98.968-99.005-98.968s-99.004,44.397-99.004,98.968c0,21.719,6.907,42.335,19.974,59.619  c8.978,11.877,20.654,21.609,33.824,28.405c0.985,0.73,2.064,1.254,3.187,1.575c4.385,2.067,8.914,3.824,13.559,5.216  c5.292,1.585,10.866-1.419,12.45-6.71s-1.419-10.865-6.71-12.45c-3.924-1.175-7.702-2.657-11.324-4.397  c-6.582-6.102-10.33-14.627-10.33-23.638c0-15.075,10.679-28.326,25.39-31.507c3.042-0.658,5.605-2.695,6.932-5.51  c1.327-2.815,1.268-6.088-0.161-8.854c-3.154-6.104-4.753-12.693-4.753-19.581c0-23.569,19.175-42.744,42.745-42.744  c2.521,0,5.104,0.236,7.676,0.702c2.839,0.513,5.764-0.224,8.021-2.024c1.189-0.949,2.123-2.149,2.767-3.49  c20.961,14.215,34.762,38.221,34.762,65.39c0,34.619-23.145,65.729-56.284,75.656c-5.291,1.585-8.294,7.159-6.71,12.45  c1.298,4.333,5.272,7.133,9.577,7.133c0.95,0,1.917-0.136,2.874-0.423c19.976-5.984,37.936-18.483,50.571-35.196  C402.589,264.866,409.496,244.249,409.496,222.529z M273.523,204.696c0,6.143,0.917,12.277,2.689,18.148  c-17.37,8.188-29.296,25.658-30.057,45.306c-9.28-13.076-14.668-28.938-14.668-45.621c0-43.543,35.441-78.967,79.003-78.967  c3.176,0,6.302,0.21,9.382,0.576C293.203,151.368,273.523,175.772,273.523,204.696z"/>
<path d="M310.488,301.529c-5.523,0-10.001,4.518-10.001,10.042c0,5.523,4.477,10.001,10.001,10.001  c5.523,0,10.001-4.477,10.001-10.001v-0.082C320.488,305.966,316.011,301.529,310.488,301.529z"/>
<path d="M127.981,183.142c5.523,0,10.001-4.477,10.001-10.001v-0.131c0-5.523-4.477-10.001-10.001-10.001  c-5.523,0-10.001,4.477-10.001,10.001v0.131C117.981,178.665,122.458,183.142,127.981,183.142z"/>
<path d="M180.968,348.988h-0.131c-5.523,0-10.001,4.477-10.001,10.001c0,5.523,4.477,10.001,10.001,10.001h0.131  c5.523,0,10.001-4.477,10.001-10.001C190.968,353.465,186.491,348.988,180.968,348.988z"/>
<g>
</g>
<g>
</g>
<g>
</g>
<g>
</g>
<g>
</g>
<g>
</g>
<g>
</g>
<g>
</g>
<g>
</g>
<g>
</g>
<g>
</g>
<g>
</g>
<g>
</g>
<g>
</g>
<g>
</g>
</svg>
