<?xml version="1.0" encoding="iso-8859-1"?>
<!-- Generator: Adobe Illustrator 19.0.0, SVG Export Plug-In . SVG Version: 6.00 Build 0)  -->
<svg xmlns="http://www.w3.org/2000/svg" xmlns:xlink="http://www.w3.org/1999/xlink" version="1.1" id="Capa_1" x="0px" y="0px" viewBox="0 0 512.002 512.002" style="enable-background:new 0 0 512.002 512.002;" xml:space="preserve">
<g>
	<polygon style="fill:#A766B2;" points="128.008,321.012 10.014,321.012 35.013,363.01 10.014,405.008 128.008,405.008    153.007,363.01  "/>
	<polygon style="fill:#A766B2;" points="432.376,363.01 402.15,409.81 501.988,363.01 402.15,316.211  "/>
</g>
<rect x="231.999" y="292.017" style="fill:#FFC943;" width="47.997" height="209.989"/>
<path style="fill:#E05A4F;" d="M304.426,98.449c-12.706-5.131-20.563-18.826-18.094-33.096c1.944-11.231,9.777-19.889,19.685-23.251  c0.084-0.773,0.15-1.545,0.284-2.321c3.392-19.599,21.706-32.68,40.907-29.218c8.081,1.457,15.006,5.633,20.093,11.418  c6.78-4.396,15.106-6.351,23.639-4.813c18.126,3.269,30.225,20.917,27.023,39.42c-1.395,8.061-5.464,14.954-11.111,19.897  L304.426,98.449z"/>
<path style="fill:#E27F4D;" d="M292.691,131.662c6.336-5.548,11.722-11.865,15.718-18.849l16.714-35.872  c6.885-14.775,21.707-24.222,38.007-24.222h0.655c15.603,0,29.886,8.275,37.578,21.698c9.696,16.921,21.529,37.568,21.529,37.568  l0,0c-36.587,16.153-63.825,48.091-73.999,86.769l-3.712,14.109c-3.718,43.638-40.17,77.197-83.966,77.302h-0.148  c-19.903,0.048-39.235-6.654-54.839-19.008l0,0c-31.547-24.979-75.756-25.757-108.049-1.994c-7.392,5.439-12.503,9.184-12.503,9.184  l-35.382-70.999c-15.687-31.479-6.02-69.697,22.749-89.931l0,0c26.948-18.952,63.382-16.926,88.061,4.897l30.972,18.16  C224.076,159.236,264.785,156.099,292.691,131.662z"/>
<path style="fill:#FFC943;" d="M292.999,171.445c0,0-53.997,42.24-95.557,17.241c1.333,57.997,51.094,61.604,71.558,48.997  C300.332,218.382,292.999,171.445,292.999,171.445z"/>
<path d="M506.232,353.956l-99.839-46.8c-4.038-1.894-8.842-0.883-11.775,2.477c-2.934,3.36-3.288,8.256-0.868,12.002l20.264,31.374  H290v-57.408c12.888-4.151,24.836-11.046,35.002-20.406c17.21-15.844,27.865-37.336,30.064-60.601l3.498-13.297  c9.454-35.938,34.373-65.158,68.368-80.166c2.592-1.145,4.578-3.335,5.462-6.028c0.884-2.692,0.584-5.633-0.825-8.092l-14.957-26.1  c5.799-6.234,9.732-14.117,11.204-22.623c4.13-23.868-11.616-46.731-35.102-50.965c-8.032-1.448-16.214-0.554-23.688,2.51  c-5.808-4.665-12.618-7.776-20.045-9.116c-11.798-2.128-23.736,0.503-33.606,7.41c-9.264,6.482-15.689,15.98-18.317,26.978  c-10.76,5.695-18.439,16.172-20.58,28.539c-3.166,18.295,6.664,36.541,23.427,43.74l-0.376,0.807  c-3.301,5.67-7.816,11.033-13.426,15.945c-24.496,21.45-60.25,24.548-88.969,7.709l-30.16-17.685  c-28.247-24.378-69.089-26.443-99.683-4.926c-15.869,11.161-27.23,27.667-31.987,46.476c-4.758,18.809-2.612,38.73,6.042,56.095  l35.382,70.999c1.315,2.638,3.727,4.562,6.591,5.257c2.865,0.697,5.891,0.091,8.269-1.651c0,0,5.119-3.75,12.52-9.196  c28.586-21.034,68.027-20.302,95.916,1.779c6.74,5.337,14.15,9.72,21.981,13.098v60.915h-63.312l-22.091-37.113  c-1.803-3.029-5.068-4.885-8.593-4.885H10.014c-3.597,0-6.916,1.931-8.693,5.058c-1.777,3.127-1.739,6.967,0.101,10.056  l21.954,36.883L1.422,399.893c-1.84,3.09-1.878,6.931-0.101,10.056c1.777,3.126,5.097,5.058,8.693,5.058h117.994  c3.525,0,6.79-1.856,8.593-4.885l22.091-37.113h63.312v128.993c0,5.523,4.477,9.999,9.999,9.999h47.997  c5.523,0,9.999-4.477,9.999-9.999V373.01h124.014l-20.264,31.373c-2.42,3.747-2.066,8.644,0.868,12.002  c1.946,2.228,4.713,3.423,7.536,3.423c1.433,0,2.881-0.308,4.241-0.946l99.839-46.799c3.513-1.646,5.756-5.176,5.756-9.055  C511.988,359.13,509.744,355.602,506.232,353.956z M122.323,395.008H27.602l16.002-26.884c1.876-3.152,1.876-7.078,0-10.228  l-16.002-26.884h94.72l19.046,31.998L122.323,395.008z M308.17,89.178c-8.564-3.458-13.603-12.76-11.984-22.12  c1.254-7.248,6.253-13.182,13.045-15.487c3.686-1.25,6.311-4.526,6.729-8.396l0.054-0.517c0.04-0.388,0.073-0.777,0.141-1.173  c1.205-6.964,5-12.99,10.686-16.969c5.473-3.828,12.075-5.288,18.592-4.114c5.571,1.004,10.536,3.833,14.358,8.181  c3.277,3.726,8.789,4.486,12.949,1.787c4.921-3.19,10.751-4.386,16.425-3.362c12.708,2.292,21.207,14.796,18.944,27.874  c-0.481,2.781-1.401,5.389-2.721,7.759c-10.005-12.447-25.307-19.92-41.604-19.92h-0.655c-20.103,0-38.58,11.774-47.072,29.998  l-7.708,16.543C308.29,89.236,308.233,89.203,308.17,89.178z M150.844,241.939c-20.295,0-40.598,6.204-57.834,18.638  c0.239-16.81,5.277-45.508,35.423-54.944c5.271-1.65,8.206-7.26,6.556-12.53c-1.65-5.271-7.259-8.207-12.53-6.556  c-23.949,7.497-39.926,24.828-46.341,50.203l-9.466-18.994c0.143-8.628,3.383-49.297,51.255-57.374  c5.446-0.919,9.116-6.079,8.197-11.523c-0.919-5.446-6.083-9.109-11.523-8.197c-36.52,6.162-53.111,27.507-60.598,44.329  c-0.12,0.269-0.231,0.537-0.347,0.805c-3.935-22.758,5.305-46.235,25.16-60.198c23.26-16.359,54.382-14.628,75.684,4.208  c0.484,0.428,1.009,0.808,1.566,1.135l30.972,18.16c36.161,21.203,81.275,17.218,112.26-9.915  c7.396-6.477,13.388-13.678,17.81-21.406c0.139-0.242,0.267-0.49,0.385-0.743l16.714-35.872  c5.221-11.205,16.582-18.445,28.943-18.445h0.655c11.935,0,23.011,6.388,28.902,16.669l14.067,24.548  c0.758,1.324,1.479,2.582,2.153,3.757c-34.491,18.519-59.618,50.248-69.684,88.517l-3.711,14.108  c-0.146,0.556-0.244,1.123-0.293,1.695c-3.302,38.76-35.126,68.058-74.002,68.151h-0.172c-0.063,0-0.123,0-0.185,0  c-17.505,0-34.696-5.98-48.422-16.848C194.464,249.087,172.662,241.939,150.844,241.939z M270.001,492.003h-27.999V298.301  c6.185,1.219,12.491,1.865,18.834,1.865c0.077,0,0.155,0,0.232,0h0.172c2.939-0.007,5.861-0.151,8.76-0.426v192.263H270.001z   M429.452,385.968l11.323-17.532c2.133-3.303,2.133-7.549,0-10.85l-11.324-17.533l48.976,22.958L429.452,385.968z"/>
<path d="M151.007,175.116c-2.63,0-5.21,1.07-7.07,2.93c-1.86,1.86-2.93,4.44-2.93,7.07s1.07,5.21,2.93,7.07s4.44,2.93,7.07,2.93  s5.21-1.07,7.07-2.93c1.86-1.86,2.93-4.44,2.93-7.07s-1.07-5.21-2.93-7.07C156.217,176.186,153.636,175.116,151.007,175.116z"/>
<path d="M153.576,157.588c1.86-1.86,2.93-4.43,2.93-7.07c0-2.63-1.07-5.2-2.93-7.07c-1.86-1.86-4.44-2.93-7.07-2.93  s-5.21,1.07-7.07,2.93c-1.86,1.86-2.93,4.44-2.93,7.07c0,2.64,1.07,5.21,2.93,7.07c1.86,1.87,4.44,2.93,7.07,2.93  C149.136,160.517,151.717,159.457,153.576,157.588z"/>
<path d="M370.324,108.449c2.63,0,5.21-1.07,7.08-2.93c1.86-1.86,2.92-4.44,2.92-7.07s-1.06-5.21-2.92-7.07  c-1.87-1.86-4.45-2.93-7.08-2.93c-2.63,0-5.21,1.07-7.07,2.93c-1.86,1.86-2.93,4.44-2.93,7.07s1.07,5.21,2.93,7.07  C365.115,107.38,367.694,108.449,370.324,108.449z"/>
<path d="M302.878,169.902c-0.546-3.499-2.908-6.444-6.201-7.749c-3.293-1.305-7.035-0.767-9.829,1.407  c-0.487,0.379-49.15,37.672-84.253,16.556c-3.125-1.879-7.024-1.91-10.175-0.078c-3.153,1.831-5.059,5.232-4.976,8.877  c0.621,27,11.372,47.527,30.274,57.8c9.102,4.947,18.782,6.962,27.865,6.962c11.202,0,21.495-3.066,28.661-7.481  C310.817,223.667,303.22,172.086,302.878,169.902z M263.755,229.17c-8.28,5.102-23.882,6.827-36.486-0.025  c-8.82-4.793-14.829-13.193-17.77-24.669c27.953,7.2,56.815-5.09,74.016-14.906C282.614,202.642,278.455,220.115,263.755,229.17z"/>
<g>
</g>
<g>
</g>
<g>
</g>
<g>
</g>
<g>
</g>
<g>
</g>
<g>
</g>
<g>
</g>
<g>
</g>
<g>
</g>
<g>
</g>
<g>
</g>
<g>
</g>
<g>
</g>
<g>
</g>
</svg>
