<?xml version="1.0" encoding="iso-8859-1"?>
<!-- Generator: Adobe Illustrator 19.0.0, SVG Export Plug-In . SVG Version: 6.00 Build 0)  -->
<svg xmlns="http://www.w3.org/2000/svg" xmlns:xlink="http://www.w3.org/1999/xlink" version="1.1" id="Capa_1" x="0px" y="0px" viewBox="0 0 512.001 512.001" style="enable-background:new 0 0 512.001 512.001;" xml:space="preserve">
<g>
	<polyline style="fill:#DFDCE5;" points="501.998,440.876 501.998,112.407 453,63.426 404.001,112.407 404.001,388.647  "/>
	<polyline style="fill:#DFDCE5;" points="404.001,388.647 404.001,112.407 355.003,63.426 306.004,112.407 306.004,364.961  "/>
</g>
<polygon style="fill:#EF7159;" points="381.114,218.501 353.663,162.363 256.06,132.048 255.995,132.048 158.392,162.363   130.942,218.501 130.942,362.035 381.031,362.035 "/>
<rect x="179.985" y="209.984" style="fill:#A766B2;" width="152.056" height="152.056"/>
<path style="fill:#ACD670;" d="M502,440.876c-69.314-49.63-154.242-78.841-245.995-78.841c-91.751,0-176.68,29.211-245.994,78.841  v61.114h491.987L502,440.876z"/>
<path d="M309.094,242.979c2.559,0,5.119-0.976,7.071-2.929l0.076-0.076c3.905-3.905,3.905-10.237,0-14.143  c-3.905-3.905-10.237-3.905-14.143,0l-0.076,0.076c-3.905,3.905-3.905,10.237,0,14.143  C303.975,242.003,306.535,242.979,309.094,242.979z"/>
<path d="M210.616,226.478c-3.893-3.918-10.225-3.938-14.142-0.045c-3.917,3.893-3.938,10.224-0.045,14.142l0.076,0.076  c1.955,1.967,4.524,2.952,7.094,2.952c2.548,0,5.098-0.968,7.048-2.906c3.918-3.893,3.938-10.224,0.045-14.142L210.616,226.478z"/>
<path d="M256.005,199.985c-5.523,0-10,4.477-10,10c0,5.523,4.477,10,10,10h0.01c5.523,0,9.995-4.477,9.995-10  C266.01,204.462,261.528,199.985,256.005,199.985z"/>
<path d="M511.998,440.852V112.407c0-2.653-1.054-5.197-2.93-7.072L460.07,56.354c-3.905-3.903-10.234-3.903-14.14,0l-41.929,41.915  l-41.929-41.915c-3.905-3.903-10.234-3.903-14.14,0l-48.999,48.982c-0.001,0.001-0.002,0.002-0.003,0.004l-40.053-11.552  c-0.901-0.26-1.91-0.392-2.847-0.392s-1.87,0.132-2.771,0.392l-112.805,32.531l-26.56-26.56c-3.905-3.904-10.237-3.904-14.143,0  c-3.905,3.905-3.905,10.237,0,14.143l27.701,27.701l-8.166,15.507l-3.685-16.652c-1.193-5.392-6.53-8.798-11.924-7.603  c-5.392,1.193-8.796,6.532-7.603,11.924l7.122,32.183l-41.231,24.405l9.892-57.04c0.944-5.441-2.703-10.618-8.145-11.562  c-5.441-0.942-10.618,2.703-11.562,8.145L0.804,437.016c-0.506,1.208-0.792,2.513-0.792,3.86v61.114c0,5.523,4.477,10,10,10h5.526  c0.003,0,0.006,0,0.009,0c0.004,0,0.008,0,0.012,0h382.441c0.038,0,0.075,0.006,0.113,0.006c0.031,0,0.061-0.006,0.092-0.006h98.206  c0.019,0,0.039,0.002,0.058,0.002c0.015,0,0.031-0.002,0.046-0.002H502c5.523,0,10-4.477,10-10l0.001-61.113  C512,440.868,511.998,440.86,511.998,440.852z M288.073,406.308c-5.5-0.449-10.333,3.642-10.787,9.146  c-0.454,5.504,3.642,10.333,9.146,10.787c65.501,5.392,127.394,28,180.647,65.749h-66.674  c-45.198-21.891-93.764-32.997-144.399-32.997s-99.201,11.106-144.399,32.997H44.943c52.073-36.898,112.507-59.375,176.42-65.378  c5.499-0.516,9.538-5.393,9.021-10.891c-0.516-5.499-5.393-9.533-10.891-9.021c-72.972,6.853-141.644,34.056-199.481,78.876v-39.523  c69.429-48.444,150.911-74.018,235.994-74.018c49.733,0,98.229,8.752,143.812,25.687c0.483,0.223,0.985,0.408,1.505,0.552  c31.856,11.978,62.277,27.962,90.678,47.78L492,485.577C432.933,439.796,362.726,412.453,288.073,406.308z M345.509,491.989H166.502  c28.799-8.635,58.743-12.998,89.503-12.998S316.71,483.354,345.509,491.989z M55.799,236.932l54.982,32.226l-67.637,40.748  L55.799,236.932z M204.182,352.035l51.854-51.853l51.854,51.853H204.182z M371.037,352.035H342.03V209.984c0-5.523-4.477-10-10-10  h-47.526c-5.523,0-10,4.477-10,10c0,5.523,4.477,10,10,10h37.526v117.909l-51.854-51.853l27.287-27.288  c3.905-3.905,3.905-10.237,0-14.143c-3.905-3.905-10.237-3.905-14.143,0l-27.288,27.288l-26.666-26.666  c-3.904-3.905-10.237-3.905-14.142,0c-3.905,3.905-3.905,10.237,0,14.142l26.665,26.665l-51.913,51.913V219.984h36.276  c5.523,0,10-4.477,10-10c0-5.523-4.477-10-10-10h-46.276c-5.523,0-10,4.477-10,10v142.051h-29.04V220.816l24.539-50.184  l90.547-28.124l90.547,28.124l24.537,50.181L371.037,352.035z M104.463,379.258L48.89,329.793l72.052-43.407v75.649  c0,4.298,2.717,7.953,6.523,9.366C119.724,373.802,112.056,376.421,104.463,379.258z M36.903,345.898l46.856,41.707  c-20.55,8.928-40.458,19.496-59.578,31.653L36.903,345.898z M453,77.565l38.999,38.985v305.398  c-24.751-16.136-50.859-29.578-77.998-40.223V193v-76.45L453,77.565z M355.003,77.565l38.999,38.985v42.745l-14.496-27.523  c-1.268-2.408-3.462-4.195-6.077-4.949l-52.543-15.153L355.003,77.565z M148.343,144.859l107.726-31.066l107.726,31.066L394,202.215  v172.236c-3.146-1.057-6.306-2.073-9.477-3.057c3.795-1.418,6.504-5.064,6.506-9.354l0.083-143.533  c0.001-1.524-0.347-3.029-1.017-4.398l-27.451-56.139c-1.21-2.475-3.387-4.34-6.017-5.157l-97.603-30.315  c-1.921-0.597-4.076-0.597-5.997,0l-97.603,30.315c-2.63,0.817-4.807,2.683-6.017,5.157l-20.605,42.141l-2.828-12.78  L148.343,144.859z M119.615,251.153l-51.5-30.186l39.631-23.457L119.615,251.153z"/>
<path d="M256.38,404.994h-0.375c-5.523,0-10,4.477-10,10c0,5.523,4.477,10,10,10h0.375c5.523,0,10-4.477,10-10  C266.38,409.47,261.903,404.994,256.38,404.994z"/>
<path d="M84.197,61.341c5.523,0,10-4.477,10-10V10.005c0-5.523-4.477-10-10-10c-5.523,0-10,4.477-10,10v41.336  C74.197,56.864,78.674,61.341,84.197,61.341z"/>
<path d="M84.197,104.2c-5.523,0-10,4.477-10,10v44.198c0,5.523,4.477,10,10,10c5.523,0,10-4.477,10-10V114.2  C94.196,108.677,89.719,104.2,84.197,104.2z"/>
<path d="M104.127,84.201c0,5.523,4.477,10,10,10h44.266c5.523,0,10-4.477,10-10c0-5.523-4.477-10-10-10h-44.266  C108.604,74.201,104.127,78.678,104.127,84.201z"/>
<path d="M10,94.201h44.198c5.523,0,10-4.477,10-10c0-5.523-4.477-10-10-10H10c-5.523,0-10,4.477-10,10  C0,89.724,4.477,94.201,10,94.201z"/>
<path d="M105.38,73.017c2.559,0,5.119-0.977,7.071-2.929l31.281-31.281c3.905-3.905,3.905-10.237,0-14.142  c-3.905-3.905-10.237-3.905-14.142,0L98.309,55.947c-3.905,3.905-3.905,10.237,0,14.142  C100.262,72.041,102.821,73.017,105.38,73.017z"/>
<path d="M55.912,98.343L24.66,129.595c-3.905,3.905-3.905,10.237,0,14.143c1.953,1.953,4.512,2.929,7.071,2.929  s5.119-0.976,7.071-2.929l31.252-31.252c3.905-3.905,3.905-10.237,0-14.143C66.149,94.438,59.817,94.438,55.912,98.343z"/>
<path d="M56.933,71.081c1.953,1.953,4.512,2.929,7.071,2.929c2.559,0,5.119-0.976,7.071-2.929c3.905-3.905,3.905-10.237,0-14.143  L38.802,24.666c-3.905-3.905-10.237-3.905-14.143,0s-3.905,10.237,0,14.143L56.933,71.081z"/>
<path d="M84.197,73.201c-6.065,0-11,4.935-11,11c0,6.065,4.935,11,11,11c6.065,0,11-4.935,11-11  C95.196,78.136,90.261,73.201,84.197,73.201z"/>
<g>
</g>
<g>
</g>
<g>
</g>
<g>
</g>
<g>
</g>
<g>
</g>
<g>
</g>
<g>
</g>
<g>
</g>
<g>
</g>
<g>
</g>
<g>
</g>
<g>
</g>
<g>
</g>
<g>
</g>
</svg>
