<?xml version="1.0" encoding="iso-8859-1"?>
<!-- Generator: Adobe Illustrator 19.0.0, SVG Export Plug-In . SVG Version: 6.00 Build 0)  -->
<svg xmlns="http://www.w3.org/2000/svg" xmlns:xlink="http://www.w3.org/1999/xlink" version="1.1" id="Capa_1" x="0px" y="0px" viewBox="0 0 512.001 512.001" style="enable-background:new 0 0 512.001 512.001;" xml:space="preserve">
<circle style="fill:#D1C584;" cx="420.105" cy="389.601" r="46.306"/>
<polygon style="fill:#CE4A30;" points="9.996,435.908 130.934,435.908 130.934,332.627 93.62,389.932 "/>
<circle style="fill:#D1C584;" cx="231.881" cy="361.945" r="73.962"/>
<polygon style="fill:#A766B2;" points="438.436,76.093 194.243,76.093 224.894,144.083 407.784,143.5 "/>
<polygon style="fill:#CE4A30;" points="209.475,277.989 291.929,277.989 333.905,351.665 358.802,351.665 388.785,298.048   447.772,298.048 501.744,343.289 501.744,278.288 501.744,144.083 243.955,144.083 "/>
<polygon style="fill:#EF7159;" points="255.87,144.083 130.934,144.083 130.934,277.989 218.222,277.989 "/>
<circle style="fill:#A766B2;" cx="231.881" cy="361.945" r="31.984"/>
<path d="M502.005,425.912h-38.921c8.303-9.812,13.324-22.484,13.324-36.314c0-31.047-25.258-56.304-56.304-56.304  S363.8,358.552,363.8,389.598c0,13.83,5.021,26.502,13.324,36.314h-9.049c-5.52,0-9.995,4.475-9.995,9.995  c0,5.52,4.475,9.995,9.995,9.995h133.931c5.52,0,9.995-4.475,9.995-9.995C512.001,430.387,507.525,425.912,502.005,425.912z   M383.789,389.598c0-20.024,16.291-36.314,36.314-36.314c20.024,0,36.314,16.291,36.314,36.314  c0,20.018-16.281,36.304-36.295,36.314h-0.038C400.069,425.902,383.789,409.616,383.789,389.598z"/>
<path d="M333.563,425.912h-0.13c-5.52,0-9.995,4.475-9.995,9.995c0,5.52,4.475,9.995,9.995,9.995h0.13  c5.52,0,9.995-4.475,9.995-9.995C343.558,430.387,339.082,425.912,333.563,425.912z"/>
<path d="M288.654,211.689h-0.13c-5.52,0-9.995,4.475-9.995,9.995s4.475,9.995,9.995,9.995h0.13c5.52,0,9.995-4.475,9.995-9.995  S294.174,211.689,288.654,211.689z"/>
<path d="M315.839,361.946c0-12.993-2.968-25.305-8.26-36.295l17.641,30.963c1.778,3.12,5.093,5.047,8.685,5.047h24.897  c3.62,0,6.956-1.957,8.724-5.116l27.122-48.502h49.49l51.187,42.905c2.975,2.495,7.127,3.04,10.647,1.397  c3.519-1.642,5.768-5.174,5.768-9.057V144.083c0-5.52-4.475-9.995-9.995-9.995h-78.701l24.49-53.858  c1.407-3.093,1.145-6.69-0.695-9.547s-5.005-4.585-8.404-4.585H194.243c-3.393,0-6.554,1.721-8.395,4.571  c-1.841,2.85-2.111,6.439-0.717,9.532l24.294,53.888h-78.491c-5.52,0-9.995,4.475-9.995,9.995v152.007  c0,3.429,1.758,6.619,4.657,8.45c1.623,1.025,3.477,1.545,5.338,1.545c1.462,0,2.93-0.321,4.292-0.969l36.026-17.133h20.942  c-26.331,14.186-44.269,42.015-44.269,73.962c0,25.606,11.535,48.555,29.667,63.967h-36.663v-93.285c0-4.425-2.909-8.323-7.15-9.581  c-4.242-1.26-8.806,0.42-11.22,4.128l-35.949,55.206L5.18,427.15c-3.998,2.198-6,6.824-4.866,11.244  c1.135,4.419,5.118,7.509,9.681,7.509h14.992h274.514c5.52,0,9.995-4.475,9.995-9.995c0-5.52-4.475-9.995-9.995-9.995h-13.33  C304.304,410.501,315.839,387.552,315.839,361.946z M48.92,425.913l49.515-27.223c1.44-0.792,2.664-1.927,3.56-3.304l18.944-29.092  v59.619H48.92z M491.749,211.689H323.165c-5.52,0-9.995,4.475-9.995,9.995s4.475,9.995,9.995,9.995h168.585v90.19l-37.557-31.481  c-1.799-1.508-4.073-2.335-6.421-2.335h-58.987c-3.62,0-6.956,1.957-8.724,5.116l-27.122,48.5h-13.226l-39.101-68.629  c-1.778-3.12-5.093-5.047-8.685-5.047h-60.513l32.028-113.917h68.874l-14.385,26.72c-2.617,4.861-0.798,10.922,4.063,13.538  c4.862,2.616,10.922,0.798,13.538-4.063l19.485-36.195h43.478l19.485,36.195c1.805,3.353,5.25,5.259,8.81,5.259  c1.599,0,3.222-0.385,4.729-1.196c4.861-2.617,6.68-8.678,4.063-13.538l-14.385-26.72h70.55v57.613H491.749z M301.943,315.758  c-7.659-11.579-18.1-21.161-30.373-27.774h14.55L301.943,315.758z M422.912,86.087l-21.571,47.438l-169.998,0.542l-21.63-47.98  L422.912,86.087L422.912,86.087z M140.929,154.078h83.965c0.01,0,0.021,0,0.032,0h17.752l-32.027,113.917h-1.176h-27.578  l16.401-58.342c1.494-5.313-1.603-10.832-6.917-12.327c-5.312-1.495-10.833,1.603-12.327,6.917l-17.922,63.751h-20.204V154.078  H140.929z M167.915,361.946c0-35.272,28.695-63.967,63.967-63.967s63.967,28.695,63.967,63.967s-28.695,63.967-63.967,63.967  S167.915,397.217,167.915,361.946z"/>
<path d="M231.882,319.968c-23.147,0-41.979,18.831-41.979,41.979s18.831,41.979,41.979,41.979s41.979-18.831,41.979-41.979  S255.029,319.968,231.882,319.968z M231.882,383.935c-12.125,0-21.989-9.864-21.989-21.989s9.864-21.989,21.989-21.989  c12.125,0,21.989,9.864,21.989,21.989S244.007,383.935,231.882,383.935z"/>
<path d="M194.281,186.924c0.902,0.253,1.808,0.373,2.701,0.373c4.37,0,8.383-2.888,9.619-7.302l0.076-0.272  c1.489-5.315-1.613-10.831-6.929-12.32c-5.313-1.488-10.831,1.613-12.32,6.929l-0.076,0.272  C185.863,179.918,188.965,185.435,194.281,186.924z"/>
<path d="M420.168,399.593c5.52,0,9.995-4.475,9.995-9.995c0-5.52-4.475-9.995-9.995-9.995h-0.13c-5.52,0-9.995,4.475-9.995,9.995  c0,5.52,4.475,9.995,9.995,9.995H420.168z"/>
<g>
</g>
<g>
</g>
<g>
</g>
<g>
</g>
<g>
</g>
<g>
</g>
<g>
</g>
<g>
</g>
<g>
</g>
<g>
</g>
<g>
</g>
<g>
</g>
<g>
</g>
<g>
</g>
<g>
</g>
</svg>
