<?xml version="1.0" encoding="iso-8859-1"?>
<!-- Generator: Adobe Illustrator 19.0.0, SVG Export Plug-In . SVG Version: 6.00 Build 0)  -->
<svg xmlns="http://www.w3.org/2000/svg" xmlns:xlink="http://www.w3.org/1999/xlink" version="1.1" id="Capa_1" x="0px" y="0px" viewBox="0 0 512.001 512.001" style="enable-background:new 0 0 512.001 512.001;" xml:space="preserve">
<g>
	<rect x="10.04" y="209.238" style="fill:#D1C584;" width="165.959" height="48"/>
	<circle style="fill:#D1C584;" cx="453.876" cy="304.888" r="44.16"/>
	<path style="fill:#D1C584;" d="M316.229,295.463c1.131-4.957,1.73-10.116,1.73-15.415c0-5.299-0.599-10.458-1.73-15.415h-7.553   c-1.456-5.657-3.706-10.992-6.604-15.898l5.348-5.348c-5.532-8.803-12.997-16.268-21.8-21.8l-5.348,5.348   c-4.906-2.899-10.241-5.148-15.898-6.604v-7.553c-4.957-1.131-10.116-1.73-15.415-1.73c-5.299,0-10.458,0.599-15.415,1.73v7.553   c-5.657,1.456-10.992,3.706-15.898,6.604l-5.348-5.348c-8.803,5.532-16.268,12.997-21.8,21.8l5.348,5.348   c-2.899,4.906-5.148,10.241-6.604,15.898h-7.553c-1.131,4.957-1.73,10.116-1.73,15.415c0,5.299,0.599,10.458,1.73,15.415h7.553   c1.456,5.657,3.706,10.992,6.604,15.898l-5.348,5.348c5.532,8.803,12.997,16.268,21.8,21.8l5.348-5.348   c4.906,2.899,10.241,5.148,15.898,6.604v7.553c4.957,1.131,10.116,1.73,15.415,1.73c5.299,0,10.458-0.599,15.415-1.73v-7.553   c5.657-1.456,10.992-3.706,15.898-6.604l5.348,5.348c8.803-5.532,16.268-12.997,21.8-21.8l-5.348-5.348   c2.899-4.906,5.148-10.241,6.604-15.898H316.229z"/>
</g>
<path style="fill:#A766B2;" d="M502,254.055c-12.545-11.881-29.485-19.169-48.127-19.169c-30.088,0-55.742,18.983-65.639,45.626  v-0.464h-46.132c0-51.441-41.701-93.142-93.142-93.142c-29.559,0-55.899,13.772-72.961,35.247V54.955h122.999l50.867,90.813  l37.257,10.485l21.734,6.116l93.141,26.211v65.474H502V254.055z"/>
<polygon style="fill:#FFC943;" points="461.996,207.086 501.996,207.086 501.996,188.58 461.996,177.324 "/>
<polygon style="fill:#72C6CC;" points="298.998,54.955 214.998,54.955 214.998,144.992 349.429,144.992 "/>
<g>
	<circle style="fill:#A766B2;" cx="248.958" cy="280.048" r="34.15"/>
	<circle style="fill:#A766B2;" cx="453.876" cy="304.888" r="15.524"/>
</g>
<rect x="387.117" y="127.919" style="fill:#E27F4D;" width="21.733" height="71.409"/>
<path d="M501.996,393.046H367.997c-5.522,0-10,4.477-10,10c0,5.523,4.478,10,10,10h133.999c5.522,0,10-4.477,10-10  C511.996,397.523,507.518,393.046,501.996,393.046z"/>
<path d="M333.469,413.046c5.522,0,10-4.477,10-10c0-5.523-4.478-10-10-10h-0.13c-5.522,0-10,4.477-10,10c0,5.523,4.478,10,10,10  H333.469z"/>
<path d="M10,413.046h289.393c5.522,0,10-4.477,10-10c0-5.523-4.478-10-10-10H10c-5.522,0-10,4.477-10,10  C0,408.569,4.478,413.046,10,413.046z"/>
<path d="M107.999,447.047H10c-5.522,0-10,4.477-10,10c0,5.523,4.478,10,10,10h97.999c5.522,0,10-4.477,10-10  C117.999,451.524,113.521,447.047,107.999,447.047z"/>
<path d="M142.658,447.047h-0.131c-5.522,0-10,4.477-10,10c0,5.523,4.478,10,10,10h0.131c5.522,0,10-4.477,10-10  C152.658,451.524,148.181,447.047,142.658,447.047z"/>
<path d="M501.996,447.046H176.605c-5.522,0-10,4.477-10,10c0,5.523,4.478,10,10,10h325.391c5.522,0,10-4.477,10-10  C511.996,451.523,507.518,447.046,501.996,447.046z"/>
<path d="M10,359.047h25.061c5.522,0,10-4.477,10-10s-4.478-10-10-10H10c-5.522,0-10,4.477-10,10S4.478,359.047,10,359.047z"/>
<path d="M69.719,359.047c5.522,0,10-4.477,10-10s-4.478-10-10-10h-0.131c-5.522,0-10,4.477-10,10s4.478,10,10,10H69.719z"/>
<path d="M248.96,324.2c24.346,0,44.152-19.807,44.152-44.152c0-24.346-19.807-44.153-44.152-44.153s-44.152,19.807-44.152,44.153  S224.614,324.2,248.96,324.2z M248.96,255.895c13.317,0,24.152,10.835,24.152,24.153c0,13.318-10.835,24.152-24.152,24.152  c-13.317,0-24.152-10.834-24.152-24.152C224.808,266.73,235.643,255.895,248.96,255.895z"/>
<path d="M479.396,304.886c0-14.074-11.45-25.524-25.523-25.524c-14.074,0-25.524,11.45-25.524,25.524  c0,14.074,11.45,25.524,25.524,25.524C467.946,330.41,479.396,318.96,479.396,304.886z M448.349,304.886  c0-3.046,2.479-5.524,5.524-5.524s5.523,2.478,5.523,5.524c0,3.046-2.478,5.524-5.523,5.524S448.349,307.932,448.349,304.886z"/>
<path d="M250.716,82.982l0.093,0.093c1.953,1.953,4.512,2.929,7.071,2.929c2.559,0,5.118-0.976,7.071-2.929  c3.905-3.905,3.905-10.237,0-14.143l-0.093-0.093c-3.906-3.905-10.236-3.905-14.143,0C246.811,72.746,246.811,79.077,250.716,82.982  z"/>
<path d="M504.705,178.955l-85.851-24.16v-26.879c0-5.523-4.478-10-10-10h-0.866V89.089c0-9.793-7.967-17.76-17.76-17.76h-1.991  c-5.522,0-10,4.477-10,10c0,5.439,4.343,9.865,9.751,9.997v26.589h-0.867c-5.522,0-10,4.477-10,10v15.135l-20.558-5.785  l-48.842-87.197c-1.769-3.158-5.105-5.113-8.725-5.113H175.999c-5.522,0-10,4.477-10,10v144.289H10.037c-5.522,0-10,4.477-10,10  v30.338v17.662v29.144c0,2.138,0.686,4.22,1.956,5.94l3.006,4.07C2.014,298.126,0,301.348,0,305.047c0,5.523,4.478,10,10,10h152.161  c5.522,0,10-4.477,10-10c0-5.523-4.478-10-10-10h-13.335l-8.827-11.954v-15.851h31.004c-0.689,4.223-1.042,8.511-1.042,12.806  c0,5.943,0.666,11.877,1.981,17.639c1.037,4.549,5.083,7.775,9.749,7.775h0.256c0.513,1.347,1.066,2.679,1.661,3.996l-0.179,0.178  c-3.299,3.299-3.878,8.442-1.396,12.392c3.961,6.303,8.845,12.051,14.416,17.018h-92.783c-5.522,0-10,4.477-10,10s4.478,10,10,10  h398.331c5.522,0,10-4.477,10-10s-4.478-10-10-10h-6.132c7.602-9.327,12.17-21.219,12.17-34.161  c0-29.865-24.297-54.162-54.161-54.162c-29.865,0-54.162,24.297-54.162,54.162c0,12.942,4.568,24.834,12.17,34.161H301.471  c5.571-4.967,10.456-10.715,14.417-17.018c2.482-3.95,1.903-9.093-1.396-12.392l-0.179-0.178c0.595-1.317,1.148-2.649,1.661-3.996  h0.256c4.666,0,8.712-3.227,9.749-7.775c1.314-5.759,1.98-11.693,1.98-17.639c0-5.946-0.666-11.881-1.98-17.64  c-1.037-4.549-5.083-7.775-9.749-7.775h-0.256c-0.513-1.347-1.066-2.679-1.661-3.996l0.179-0.178  c3.299-3.299,3.878-8.442,1.396-12.392c-6.298-10.021-14.924-18.647-24.945-24.946c-3.948-2.481-9.092-1.904-12.392,1.395  l-0.18,0.179c-1.316-0.595-2.648-1.149-3.996-1.662v-0.255c0-4.666-3.227-8.711-7.775-9.75c-11.519-2.627-23.758-2.628-35.278,0  c-4.549,1.038-7.775,5.083-7.775,9.75v0.255c-1.347,0.513-2.68,1.067-3.996,1.662l-0.179-0.179c-3.3-3.298-8.443-3.877-12.392-1.396  c-8.069,5.071-15.208,11.669-20.981,19.271v-6.629c15.84-18.379,38.594-28.857,62.962-28.857c45.846,0,83.143,37.298,83.143,83.142  c0,5.523,4.478,10,10,10h43.119c0.403,0.127,0.818,0.229,1.244,0.306c0.595,0.107,1.188,0.159,1.774,0.159  c4.114,0,7.894-2.548,9.368-6.519c8.688-23.392,31.3-39.108,56.266-39.108c15.364,0,29.968,5.796,41.14,16.325  c1.804,1.76,4.269,2.844,6.987,2.844c4.094,0,7.774-2.496,9.29-6.299c0.516-1.294,0.745-2.652,0.706-3.99V188.58  C511.996,184.101,509.017,180.168,504.705,178.955z M491.996,197.087h-20v-6.561l20,5.628V197.087z M397.121,137.915h1.733v51.41  h-1.733V137.915z M332.366,134.991h-1.79c-0.412-0.683-0.901-1.332-1.49-1.921l-41.26-41.261c-3.905-3.905-10.235-3.905-14.143,0  c-3.905,3.905-3.905,10.237,0,14.142l29.04,29.041h-17.092c-0.412-0.683-0.9-1.332-1.49-1.921l-59.144-59.146v-8.972h68.139  L332.366,134.991z M224.998,102.211l32.781,32.781h-32.781V102.211z M81.955,292.326l2.009,2.721H68.826L60,283.093v-15.851h20  v19.144C79.999,288.524,80.685,290.606,81.955,292.326z M41.956,292.326l2.009,2.721H28.864l-8.827-11.954v-15.851H40v19.144  C40,288.524,40.686,290.606,41.956,292.326z M121.955,292.326l2.009,2.721h-15.138l-8.827-11.954v-15.851h20v19.144  C119.999,288.524,120.685,290.606,121.955,292.326z M129.999,229.58c-5.522,0-10,4.477-10,10v7.662h-20v-7.662  c0-5.523-4.478-10-10-10s-10,4.477-10,10v7.662H60v-7.662c0-5.523-4.478-10-10-10s-10,4.477-10,10v7.662H20.037v-7.662v-20.338  h145.962v28h-26v-7.662C139.999,234.057,135.521,229.58,129.999,229.58z M419.712,304.886c0-18.837,15.325-34.162,34.162-34.162  s34.161,15.325,34.161,34.162c0,18.824-15.303,34.14-34.123,34.161h-0.077C435.016,339.025,419.712,323.71,419.712,304.886z   M198.928,267.126c1.193-4.637,3.054-9.113,5.529-13.304c2.157-3.651,1.764-8.229-0.893-11.447c2.331-2.801,4.922-5.392,7.723-7.723  c3.218,2.656,7.796,3.05,11.446,0.893c4.191-2.476,8.668-4.336,13.305-5.53c4.104-1.056,7.06-4.567,7.461-8.717  c3.625-0.333,7.298-0.333,10.923,0c0.401,4.149,3.357,7.661,7.461,8.717c4.638,1.193,9.113,3.054,13.303,5.529  c3.649,2.157,8.229,1.763,11.447-0.893c2.802,2.331,5.393,4.921,7.724,7.723c-2.656,3.219-3.05,7.796-0.893,11.447  c2.476,4.191,4.336,8.667,5.528,13.303c1.056,4.104,4.567,7.061,8.718,7.462c0.166,1.813,0.25,3.636,0.25,5.461  c0,1.825-0.084,3.648-0.25,5.461c-4.15,0.401-7.662,3.358-8.718,7.462c-1.192,4.636-3.053,9.111-5.528,13.303  c-2.157,3.651-1.764,8.228,0.893,11.447c-2.331,2.801-4.922,5.392-7.723,7.723c-3.221-2.657-7.799-3.05-11.448-0.893  c-4.189,2.476-8.665,4.336-13.303,5.529c-4.104,1.056-7.061,4.567-7.461,8.717c-1.81,0.166-3.631,0.249-5.452,0.25h-0.021  c-1.821,0-3.641-0.083-5.45-0.25c-0.4-4.15-3.357-7.661-7.461-8.717c-4.637-1.193-9.113-3.054-13.305-5.53  c-3.648-2.156-8.228-1.764-11.446,0.893c-2.801-2.331-5.392-4.922-7.723-7.723c2.656-3.218,3.05-7.796,0.893-11.447  c-2.476-4.191-4.336-8.667-5.529-13.304c-1.057-4.104-4.567-7.06-8.718-7.461c-0.166-1.813-0.25-3.636-0.25-5.461  c0-1.825,0.084-3.648,0.251-5.461C194.36,274.185,197.871,271.229,198.928,267.126z M453.873,224.886  c-30.733,0-58.792,17.868-72.031,45.162h-30.22c-5.047-52.198-49.164-93.142-102.662-93.142c-23.145,0-45.117,7.613-62.962,21.41  V64.954h19v13.11c0,0.003,0,0.007,0,0.01v66.917c0,5.523,4.478,10,10,10h131.024c0.369,0.154,0.744,0.293,1.133,0.402l29.966,8.433  v35.498c0,5.523,4.478,10,10,10h21.733c5.522,0,10-4.477,10-10V175.57l33.143,9.328v22.189c0,5.523,4.478,10,10,10h30v17.443  C480.404,228.235,467.358,224.886,453.873,224.886z"/>
<g>
</g>
<g>
</g>
<g>
</g>
<g>
</g>
<g>
</g>
<g>
</g>
<g>
</g>
<g>
</g>
<g>
</g>
<g>
</g>
<g>
</g>
<g>
</g>
<g>
</g>
<g>
</g>
<g>
</g>
</svg>
