<?xml version="1.0" encoding="iso-8859-1"?>
<!-- Generator: Adobe Illustrator 19.0.0, SVG Export Plug-In . SVG Version: 6.00 Build 0)  -->
<svg xmlns="http://www.w3.org/2000/svg" xmlns:xlink="http://www.w3.org/1999/xlink" version="1.1" id="Capa_1" x="0px" y="0px" viewBox="0 0 512 512" style="enable-background:new 0 0 512 512;" xml:space="preserve">
<path style="fill:#D1C584;" d="M429.952,501.996c-36.424-57.681-100.732-96-174-96s-137.576,38.319-174,96H429.952z"/>
<g>
	
		<ellipse transform="matrix(-0.5 -0.866 0.866 -0.5 207.9429 746.2441)" style="fill:#30995B;" cx="319.39" cy="313.095" rx="44.556" ry="68.638"/>
	
		<ellipse transform="matrix(-0.5 0.866 -0.866 -0.5 560.1511 302.803)" style="fill:#30995B;" cx="192.665" cy="313.101" rx="44.556" ry="68.638"/>
</g>
<g>
	<path style="fill:#ACD670;" d="M169.654,72.35c93.03,31.037,86.325,163.485,86.325,165.23l0.016,0.019l0.008,0.009l0,0   l-0.015-0.017c-0.465,0.012-109.839,3.453-165.375-58.607C35.114,116.93,52.52,10.483,52.631,10.027l-0.028-0.032   C52.603,9.996,82.455,43.258,169.654,72.35z"/>
	<path style="fill:#ACD670;" d="M459.452,9.996l-0.028,0.032c0.111,0.456,17.518,106.902-37.983,168.957   c-55.535,62.061-164.91,58.62-165.375,58.607l-0.015,0.017l0,0l0.008-0.009l0.016-0.019c0-1.745-6.705-134.192,86.325-165.23   C429.6,43.258,459.452,9.996,459.452,9.996z"/>
</g>
<path d="M377.729,125.973c-2.552,0-5.105-0.971-7.057-2.915c-3.913-3.897-3.926-10.229-0.029-14.142l0.117-0.118  c3.898-3.914,10.229-3.926,14.143-0.029c3.913,3.897,3.926,10.229,0.029,14.142l-0.118,0.118  C382.861,124.992,380.295,125.973,377.729,125.973z"/>
<path d="M134.377,125.973c-2.566,0-5.132-0.981-7.086-2.943l-0.117-0.118c-3.897-3.914-3.884-10.245,0.029-14.142  c3.913-3.897,10.246-3.884,14.142,0.029l0.118,0.118c3.897,3.914,3.884,10.245-0.029,14.142  C139.482,125.002,136.929,125.973,134.377,125.973z"/>
<path d="M10.137,511.996H10c-5.523,0-10-4.477-10-10s4.477-10,10-10h0.137c5.523,0,10,4.477,10,10S15.66,511.996,10.137,511.996z"/>
<path d="M502,491.996h-66.638c-18.82-28.156-44.188-51.717-73.683-68.342c-29.209-16.464-62.113-25.838-95.725-27.399l0.007-29.111  c8.478,5.086,19.01,7.69,30.582,7.69c15.695-0.001,33.279-4.759,50.136-14.492c17.533-10.123,31.532-24.218,39.419-39.689  c8.611-16.891,9.112-33.54,1.41-46.879c-15.296-26.494-57.195-29.976-95.386-7.926c-10.268,5.928-19.054,13.017-26.142,20.72  l0.01-39.033c29.445-0.81,114.639-7.948,162.904-61.885c54.632-61.083,42.703-161.433,40.535-176.175  c-0.14-2.559-1.261-5.064-3.322-6.91c-4.083-3.658-10.366-3.329-14.066,0.715c-0.289,0.316-29.875,31.916-112.806,59.584  c-40.109,13.381-68.843,46.485-83.209,95.772c-14.366-49.287-43.1-82.391-83.209-95.772l0,0  C89.888,35.196,60.302,3.596,60.046,3.316c-3.675-4.094-9.951-4.437-14.065-0.786c-2.037,1.807-3.159,4.264-3.332,6.787  C40.546,23.48,28.328,124.342,83.162,185.652c48.229,53.896,133.33,61.063,162.829,61.881l-0.01,39.015  c-7.22-7.869-16.058-14.932-26.051-20.701c-38.19-22.05-80.089-18.568-95.386,7.926c-15.296,26.494,2.638,64.519,40.829,86.569  c16.198,9.352,33.825,14.397,50.091,14.397c1.34,0,2.671-0.034,3.991-0.104c10.226-0.534,19.193-3.097,26.505-7.429l-0.007,29.049  c-33.614,1.56-66.518,10.935-95.728,27.399c-29.495,16.624-54.863,40.186-73.683,68.342H39.986c-5.523,0-10,4.477-10,10  s4.477,10,10,10H502c5.523,0,10-4.477,10-10S507.523,491.996,502,491.996z M302.123,283.168  c13.577-7.838,28.036-11.743,40.332-11.743c12.637,0,22.987,4.126,27.734,12.349c5.667,9.814,1.237,21.627-1.907,27.796  c-6.153,12.069-17.376,23.239-31.602,31.453c-27.53,15.894-58.7,15.617-68.065-0.605c-1.365-2.365-2.191-4.967-2.544-7.727  c0.139-2.073,0.135-4.18-0.017-6.319C267.795,313.187,281.556,295.042,302.123,283.168z M345.566,81.836  c55.577-18.542,88.637-38.869,105.894-51.816c0.709,10.769,1.065,25.502-0.248,41.982c-2.344,29.397-10.705,70.664-37.223,100.313  c-26.783,29.93-67.793,43.368-97.481,49.37c-13.248,2.678-25.433,4.162-35.325,4.977l82.575-82.575  c3.905-3.905,3.905-10.237,0-14.143s-10.237-3.905-14.143,0l-82.899,82.899C269.645,174.157,283.571,102.52,345.566,81.836z   M150.128,145.868l80.8,80.8c-9.901-0.814-22.108-2.299-35.381-4.982c-29.688-6.002-70.698-19.44-97.479-49.368  c-26.52-29.651-34.88-70.918-37.224-100.315c-1.314-16.48-0.958-31.213-0.249-41.982c17.257,12.947,50.317,33.274,105.894,51.816  c61.966,20.674,75.908,92.254,78.845,130.953l-81.064-81.064c-3.905-3.905-10.237-3.905-14.143,0  C146.223,135.63,146.223,141.962,150.128,145.868z M243.439,342.417c-5.667,9.814-18.112,11.885-25.026,12.246  c-13.529,0.706-28.815-3.428-43.04-11.641c-27.529-15.894-42.874-43.027-33.509-59.249c9.366-16.222,40.536-16.5,68.065-0.605  c14.226,8.213,25.448,19.383,31.602,31.453c1.705,3.344,3.784,8.348,4.43,13.793c-0.141,2.11-0.135,4.2,0.007,6.265v0.154  C245.634,337.406,244.85,339.974,243.439,342.417z M101.128,491.996c36.946-47.904,93.56-76,154.824-76s117.877,28.096,154.824,76  H101.128z"/>
<g>
</g>
<g>
</g>
<g>
</g>
<g>
</g>
<g>
</g>
<g>
</g>
<g>
</g>
<g>
</g>
<g>
</g>
<g>
</g>
<g>
</g>
<g>
</g>
<g>
</g>
<g>
</g>
<g>
</g>
</svg>
