<?xml version="1.0" encoding="iso-8859-1"?>
<!-- Generator: Adobe Illustrator 19.0.0, SVG Export Plug-In . SVG Version: 6.00 Build 0)  -->
<svg xmlns="http://www.w3.org/2000/svg" xmlns:xlink="http://www.w3.org/1999/xlink" version="1.1" id="Capa_1" x="0px" y="0px" viewBox="0 0 512.003 512.003" style="enable-background:new 0 0 512.003 512.003;" xml:space="preserve">
<circle style="fill:#A766B2;" cx="256.006" cy="198.995" r="28.999"/>
<g>
	<polygon style="fill:#CE4A30;" points="310.917,107.525 310.917,143.884 347.275,143.884 407.681,83.477 371.324,47.119  "/>
	<polygon style="fill:#CE4A30;" points="201.086,290.072 201.086,253.714 164.729,253.714 104.322,314.121 140.68,350.479  "/>
	<polygon style="fill:#CE4A30;" points="347.275,253.714 310.917,253.714 310.917,290.072 371.324,350.479 407.681,314.121  "/>
	<polygon style="fill:#CE4A30;" points="164.729,143.884 201.086,143.884 201.086,107.525 140.68,47.119 104.322,83.477  "/>
	<polygon style="fill:#CE4A30;" points="230.293,95.428 256.002,121.137 281.71,95.428 281.71,10 230.293,10  "/>
	<polygon style="fill:#CE4A30;" points="281.71,302.17 256.002,276.461 230.293,302.17 230.293,387.598 281.71,387.598  "/>
	<polygon style="fill:#CE4A30;" points="359.373,173.09 333.664,198.798 359.373,224.508 444.801,224.508 444.801,173.09  "/>
	<polygon style="fill:#CE4A30;" points="152.631,224.508 178.34,198.798 152.631,173.09 67.202,173.09 67.202,224.508  "/>
</g>
<path d="M501.996,491.999H375.41l-35.573-103.478c-0.007-0.019-0.013-0.038-0.02-0.057l-28.997-84.349l53.434,53.434  c1.953,1.953,4.512,2.929,7.071,2.929s5.118-0.976,7.071-2.929l36.357-36.357c3.905-3.905,3.905-10.237,0-14.143l-60.407-60.408  c-1.876-1.875-4.419-2.929-7.071-2.929H315.06l-25.271-25.272c1.727-2.99,3.077-6.224,3.965-9.644h35.769l22.779,22.779  c1.876,1.875,4.419,2.929,7.071,2.929h85.429c5.522,0,10-4.477,10-10v-51.418c0-5.523-4.478-10-10-10h-85.429  c-2.652,0-5.195,1.054-7.071,2.929l-22.779,22.779h-35.884c-0.914-3.368-2.268-6.554-3.998-9.496l25.419-25.419h32.215  c2.652,0,5.195-1.054,7.071-2.929l60.407-60.407c3.905-3.905,3.905-10.237,0-14.143l-36.357-36.357  c-3.906-3.905-10.236-3.905-14.143,0l-60.407,60.407c-1.875,1.875-2.929,4.419-2.929,7.071v32.215l-25.474,25.473  c-2.931-1.693-6.097-3.02-9.442-3.908v-36.027l22.779-22.78c1.875-1.875,2.929-4.418,2.929-7.071V10c0-5.523-4.478-10-10-10h-51.417  c-5.522,0-10,4.477-10,10v85.428c0,2.652,1.054,5.196,2.929,7.071l22.779,22.78v36.027c-3.345,0.888-6.512,2.215-9.442,3.908  l-25.474-25.473v-32.215c0-2.652-1.054-5.196-2.929-7.071L147.75,40.048c-3.906-3.905-10.236-3.905-14.143,0L97.251,76.405  c-3.905,3.905-3.905,10.237,0,14.143l60.407,60.407c1.876,1.875,4.419,2.929,7.071,2.929h32.215l25.419,25.419  c-1.729,2.943-3.084,6.129-3.998,9.497h-35.884l-22.779-22.779c-1.876-1.875-4.419-2.929-7.071-2.929H67.202  c-5.522,0-10,4.477-10,10v51.418c0,5.523,4.478,10,10,10h85.429c2.652,0,5.195-1.054,7.071-2.929l22.779-22.779h35.769  c0.888,3.42,2.238,6.654,3.965,9.644l-25.271,25.272h-32.216c-2.652,0-5.195,1.054-7.071,2.929l-60.407,60.408  c-3.905,3.905-3.905,10.237,0,14.143l36.357,36.357c1.953,1.953,4.512,2.929,7.071,2.929s5.118-0.976,7.071-2.929l53.232-53.232  l-27.446,79.844c-0.002,0.006-0.004,0.013-0.006,0.019l-37.062,107.819H10.008c-5.522,0-10,4.477-10,10c0,5.523,4.478,10,10,10  H221.7c5.522,0,10-4.477,10-10c0-5.523-4.478-10-10-10h-41.501l78.123-46.12l74.724,46.119h-42.743c-5.522,0-10,4.477-10,10  c0,5.523,4.478,10,10,10h211.692c5.522,0,10-4.477,10-10C511.995,496.479,507.518,491.999,501.996,491.999z M256.002,180.001  c10.477,0,19,8.523,19,19s-8.523,19-19,19s-19-8.523-19-19S245.525,180.001,256.002,180.001z M246.002,236.694v35.624  l-19.614,19.615l19.044-55.402C245.622,236.585,245.81,236.643,246.002,236.694z M240.293,306.312l15.709-15.709l15.709,15.709  v71.286h-31.417L240.293,306.312L240.293,306.312z M266.002,272.319v-35.624c0.15-0.04,0.298-0.086,0.447-0.127l18.965,55.164  L266.002,272.319z M230.294,397.598h51.417c5.522,0,10-4.477,10-10v-77.55l26.548,77.225l-59.707,35.247l-63.566-39.232  l25.308-73.625v77.935C220.294,393.121,224.771,397.598,230.294,397.598z M291.772,248.711l9.146,9.146v17.457L291.772,248.711z   M320.917,263.714h22.215l50.407,50.408l-22.215,22.215l-50.407-50.407V263.714z M363.514,183.09h71.286v31.418h-71.286  l-15.71-15.709L363.514,183.09z M320.917,111.667l50.407-50.407l22.215,22.215l-50.407,50.407h-22.215V111.667z M240.293,20h31.417  v71.286l-15.709,15.709l-15.709-15.709L240.293,20L240.293,20z M191.087,133.884h-22.215l-50.407-50.407l22.215-22.215  l50.407,50.407V133.884z M148.489,214.508H77.202V183.09h71.286l15.71,15.709L148.489,214.508z M191.087,285.93l-50.407,50.407  l-22.215-22.215l50.407-50.408h22.215V285.93z M211.086,257.857l8.941-8.941l-8.941,26.009V257.857z M161.883,479.588l26.437-76.911  l50.769,31.333L161.883,479.588z M324.895,406.579l24.823,72.209l-71.934-44.397L324.895,406.579z"/>
<path d="M255.776,491.999h-0.13c-5.522,0-10,4.477-10,10c0,5.523,4.478,10,10,10h0.13c5.522,0,10-4.477,10-10  C265.776,496.476,261.299,491.999,255.776,491.999z"/>
<g>
</g>
<g>
</g>
<g>
</g>
<g>
</g>
<g>
</g>
<g>
</g>
<g>
</g>
<g>
</g>
<g>
</g>
<g>
</g>
<g>
</g>
<g>
</g>
<g>
</g>
<g>
</g>
<g>
</g>
</svg>
