<?xml version="1.0" encoding="iso-8859-1"?>
<!-- Generator: Adobe Illustrator 19.0.0, SVG Export Plug-In . SVG Version: 6.00 Build 0)  -->
<svg xmlns="http://www.w3.org/2000/svg" xmlns:xlink="http://www.w3.org/1999/xlink" version="1.1" id="Capa_1" x="0px" y="0px" viewBox="0 0 512 512" style="enable-background:new 0 0 512 512;" xml:space="preserve">
<rect x="191.964" y="256.019" style="fill:#298CB2;" width="127.99" height="35.997"/>
<polygon style="fill:#72C6CC;" points="301.635,326.79 301.635,292.017 210.365,292.017 210.365,326.79 128.01,502.001   383.989,502.001 "/>
<polygon style="fill:#298CB2;" points="128.01,502.001 383.989,502.001 334.64,397.009 177.36,397.009 "/>
<g>
	
		<ellipse transform="matrix(-0.5 -0.866 0.866 -0.5 270.0856 556.9299)" style="fill:#30995B;" cx="295.812" cy="200.499" rx="27.997" ry="43.136"/>
	
		<ellipse transform="matrix(-0.5 0.866 -0.866 -0.5 497.9282 113.5621)" style="fill:#30995B;" cx="216.182" cy="200.518" rx="27.997" ry="43.136"/>
</g>
<g>
	<path style="fill:#ACD670;" d="M201.723,49.224c58.46,19.504,54.247,102.734,54.247,103.831l0.01,0.012l0.005,0.006l0,0   l-0.009-0.01c-0.292,0.008-69.023,2.17-103.922-36.829c-34.876-38.995-23.938-105.887-23.868-106.173l-0.017-0.02   C128.168,10.04,146.927,30.942,201.723,49.224z"/>
	<path style="fill:#ACD670;" d="M383.832,10.04l-0.017,0.02c0.07,0.286,11.008,67.178-23.868,106.173   c-34.898,38.999-103.63,36.837-103.922,36.829l-0.009,0.01l0,0l0.005-0.006l0.01-0.012c0-1.097-4.214-84.326,54.247-103.831   C365.073,30.942,383.832,10.04,383.832,10.04z"/>
</g>
<path d="M367.399,122.899c15.75-17.611,25.279-43.035,27.558-73.523c1.416-18.946-0.339-34.822-1.136-40.034  c-0.167-2.531-1.285-4.998-3.325-6.808c-4.114-3.651-10.378-3.324-14.055,0.771c-0.178,0.193-18.414,19.447-69.329,36.435  c-23.406,7.808-40.903,25.699-51.113,52.072c-10.209-26.373-27.707-44.263-51.113-52.072  c-50.916-16.988-69.151-36.242-69.277-36.377c-3.677-4.095-9.958-4.441-14.071-0.789c-1.914,1.699-3.02,3.97-3.291,6.329  c-0.758,4.703-2.663,20.958-1.205,40.474c2.278,30.49,11.808,55.913,27.56,73.525c29.433,32.89,79.764,38.938,101.376,39.979  l-0.001,12.261c-3.258-2.729-6.865-5.266-10.803-7.539c-25.806-14.897-54.362-12.111-65.016,6.339  c-10.653,18.454,1.213,44.577,27.017,59.475c11.145,6.434,22.802,9.569,33.309,9.569c5.573,0,10.811-0.897,15.488-2.637v5.673  h-54.006c-5.522,0-9.999,4.477-9.999,9.999v35.997c0,5.523,4.478,9.999,9.999,9.999h8.399v22.54L118.96,497.747  c-1.456,3.098-1.227,6.724,0.607,9.613c1.835,2.889,5.02,4.64,8.441,4.64h255.979c3.423,0,6.606-1.75,8.441-4.64  c1.834-2.89,2.063-6.516,0.607-9.613l-81.403-173.19v-22.54h8.319c5.522,0,9.999-4.477,9.999-9.999V256.02  c0-5.523-4.478-9.999-9.999-9.999h-53.985v-5.693c4.691,1.753,9.949,2.657,15.544,2.657c10.506,0,22.166-3.137,33.309-9.57  c11.632-6.715,20.945-16.117,26.224-26.471c5.915-11.603,6.204-23.632,0.794-33.004c-10.652-18.453-39.211-21.238-65.016-6.339  c-3.902,2.253-7.534,4.813-10.849,7.604l0.001-12.324C287.577,161.845,337.949,155.809,367.399,122.899z M201.965,266.02h44.005  l-0.001,15.999h-35.604h-8.399V266.02H201.965z M219.413,331.043c0.626-1.331,0.95-2.783,0.95-4.254v-24.773h25.603l-0.007,84.993  h-52.852L219.413,331.043z M292.586,331.043l75.654,160.958H143.758l39.95-84.993h58.908l-33.495,33.495  c-3.905,3.905-3.905,10.236,0,14.142c1.953,1.953,4.512,2.929,7.07,2.929c2.559,0,5.118-0.976,7.07-2.929l22.694-22.694  l-0.003,32.718c0,5.523,4.477,9.999,9.998,10c0.001,0,0.001,0,0.001,0c5.522,0,9.999-4.477,9.999-9.998l0.003-32.747l22.721,22.721  c1.953,1.953,4.512,2.929,7.07,2.929c2.559,0,5.118-0.976,7.07-2.929c3.905-3.905,3.905-10.236,0-14.142l-33.495-33.495h6.161  c5.522,0,9.999-4.477,9.999-9.999c0-5.523-4.478-9.999-9.999-9.999h-9.525l0.007-84.993h25.671v24.773  C291.636,328.261,291.96,329.712,292.586,331.043z M309.955,266.02v15.999h-8.319h-35.669l0.001-15.999H309.955z M313.442,58.709  c30.049-10.025,49.883-20.966,62.009-29.17c0.648,21.132-1.924,56.509-22.956,80.026c-23.913,26.723-67.058,32.179-86.383,33.257  C267.057,121.126,273.665,71.98,313.442,58.709z M159.507,109.567c-21.033-23.517-23.606-58.894-22.957-80.028  c12.125,8.204,31.959,19.144,62.008,29.17c39.777,13.271,46.385,62.419,47.33,84.114  C226.583,141.746,183.424,136.295,159.507,109.567z M244.871,217.076c-4.257,7.371-20.785,8.783-37.697-0.98  c-16.912-9.764-23.953-24.784-19.696-32.157c4.257-7.373,20.783-8.784,37.697,0.98c12.722,7.344,19.855,17.663,20.799,25.464v0.719  c-0.027,0.813-0.032,1.621,0,2.422v0.177C245.807,214.944,245.446,216.082,244.871,217.076z M286.824,184.92  c8.351-4.822,16.605-6.917,23.338-6.917c6.901,0,12.204,2.205,14.359,5.938c1.96,3.395,1.489,8.468-1.291,13.922  c-3.493,6.851-10.202,13.498-18.406,18.235c-16.912,9.765-33.439,8.353-37.697,0.98c-0.56-0.969-0.914-2.079-1.08-3.292  c0.053-1.081,0.049-2.171-0.007-3.267c0.267-2.278,1.059-4.777,2.378-7.363C271.91,196.303,278.62,189.657,286.824,184.92z"/>
<path d="M304.912,407.009h0.119c5.522,0,9.999-4.477,9.999-9.999c0-5.523-4.478-9.999-9.999-9.999h-0.119  c-5.522,0-9.999,4.477-9.999,9.999C294.913,402.533,299.39,407.009,304.912,407.009z"/>
<g>
</g>
<g>
</g>
<g>
</g>
<g>
</g>
<g>
</g>
<g>
</g>
<g>
</g>
<g>
</g>
<g>
</g>
<g>
</g>
<g>
</g>
<g>
</g>
<g>
</g>
<g>
</g>
<g>
</g>
</svg>
