<?xml version="1.0" encoding="iso-8859-1"?>
<!-- Generator: Adobe Illustrator 19.0.0, SVG Export Plug-In . SVG Version: 6.00 Build 0)  -->
<svg xmlns="http://www.w3.org/2000/svg" xmlns:xlink="http://www.w3.org/1999/xlink" version="1.1" id="Capa_1" x="0px" y="0px" viewBox="0 0 512 512" style="enable-background:new 0 0 512 512;" xml:space="preserve">
<rect x="266" y="344.206" style="fill:#FFC943;" width="235.99" height="157.794"/>
<g>
	<circle style="fill:#D8902A;" cx="353.866" cy="375.995" r="31.775"/>
	<circle style="fill:#D8902A;" cx="467.291" cy="404.643" r="33.371"/>
</g>
<polygon style="fill:#FFC943;" points="266,344.206 437.728,262.833 501.99,344.206 "/>
<path style="fill:#72C6CC;" d="M204.419,194.399L204.419,194.399c-19.3-29.398-29.415-63.798-29.415-98.965V10H69.009v85.435  c0,35.168-10.115,69.567-29.415,98.965l0,0c-19.3,29.398-29.583,63.797-29.583,98.965v208.615h111.995h111.995V293.364  C234.001,258.196,223.718,223.797,204.419,194.399z"/>
<rect x="69.008" y="10" style="fill:#41A5A5;" width="105.246" height="96.996"/>
<path style="fill:#FFFFFF;" d="M10.01,293.364v208.615h111.995h111.995V293.364c0-12.639-1.336-25.179-3.934-37.423H13.944  C11.346,268.185,10.01,280.724,10.01,293.364z"/>
<g>
	<path style="fill:#D8902A;" d="M271.343,447.534c15.128-2.544,26.655-15.702,26.655-31.553c0-17.67-14.327-31.998-31.999-31.997   L271.343,447.534z"/>
	<path style="fill:#D8902A;" d="M348.998,501.979c0-22.084,17.903-39.987,39.987-39.987c22.084,0,39.987,17.903,39.987,39.987   H348.998z"/>
</g>
<path d="M324.62,392.059c-3.989,3.819-4.127,10.15-0.307,14.138l0.247,0.253c1.946,1.968,4.498,2.948,7.055,2.948  c2.54,0,5.085-0.969,7.042-2.901c3.924-3.872,3.936-10.225,0.077-14.157C334.911,388.376,328.599,388.248,324.62,392.059z"/>
<path d="M212.778,188.91c-18.17-27.677-27.774-60.001-27.774-93.476V10c0-5.523-4.478-10-10-10H69.009c-5.522,0-10,4.477-10,10  v85.435c0,33.477-9.604,65.8-27.774,93.477C10.807,220.025,0.01,256.143,0.01,293.364v208.615c0,5.523,4.478,10,10,10h223.991  c5.522,0,10-4.477,10-10V293.364C244,256.143,233.205,220.025,212.778,188.91L212.778,188.91z M224.001,293.364V491.98H20.01  V293.364c0-9.228,0.769-18.373,2.229-27.375h143c5.522,0,10-4.477,10-10c0-5.523-4.478-10-10-10H26.731  c4.7-16.235,11.809-31.766,21.22-46.102c20.317-30.948,31.056-67.066,31.056-104.454V19.999h85.996v75.435  c0,0.521,0.01,1.041,0.014,1.562h-27.777c-5.522,0-10,4.477-10,10s4.478,10,10,10h28.969c3.32,29.629,13.469,57.942,29.85,82.893  C214.339,227.732,224.001,260.054,224.001,293.364z"/>
<path d="M107.812,96.996h-0.119c-5.522,0-10,4.477-10,10s4.478,10,10,10h0.119c5.522,0,10-4.477,10-10  S113.335,96.996,107.812,96.996z"/>
<path d="M186.67,255.99c0,5.523,4.478,10,10,10h0.119c5.522,0,10-4.477,10-10c0-5.523-4.478-10-10-10h-0.119  C191.148,245.99,186.67,250.467,186.67,255.99z"/>
<path d="M509.831,338.011c0.002-0.001,0.004-0.002,0.007-0.003l-64.263-81.373c-2.889-3.658-7.92-4.834-12.129-2.839  l-171.727,81.373c0.001,0.003,0.002,0.006,0.004,0.009c-3.379,1.605-5.722,5.038-5.722,9.028V502c0,5.523,4.478,10,10,10h235.99  c5.522,0,10-4.477,10-10V344.206C511.99,341.864,511.179,339.715,509.831,338.011z M434.815,275.279l46.537,58.928H310.455  L434.815,275.279z M275.999,396.398c7.115,3.648,11.999,11.054,12,19.583c0,8.493-4.787,15.937-12,19.597V396.398z M360.712,492.001  c4.122-11.644,15.236-20.009,28.274-20.009c13.037,0,24.153,8.366,28.275,20.009H360.712z M437.971,492.001  c-4.637-22.798-24.838-40.008-48.985-40.008c-24.146,0-44.346,17.21-48.984,40.008h-64.002v-35.232  c18.713-4.545,31.999-21.231,31.999-40.789c-0.001-19.711-13.655-36.285-31.999-40.783v-20.991h41.962  c-2.941,4.73-4.972,10.091-5.821,15.852c-0.805,5.464,2.973,10.545,8.437,11.35c5.463,0.803,10.545-2.972,11.351-8.436  c1.574-10.692,10.931-18.753,21.763-18.753c12.13,0,21.998,9.868,21.999,21.997c-0.001,10.786-7.703,19.908-18.313,21.691  c-5.446,0.916-9.119,6.073-8.203,11.52c0.821,4.886,5.055,8.344,9.85,8.344c0.551,0,1.108-0.045,1.67-0.14  c20.277-3.409,34.996-20.826,34.997-41.414c0-8.067-2.292-15.605-6.25-22.01h102.55v11.449c-7.323-4.929-15.93-7.577-24.944-7.577  c-22.036,0-40.676,15.829-44.321,37.636c-0.91,5.447,2.768,10.601,8.215,11.512c5.447,0.912,10.602-2.767,11.512-8.215  c2.027-12.13,12.371-20.933,24.596-20.934c6.651,0,12.907,2.609,17.617,7.348c4.726,4.754,7.327,11.079,7.327,17.809  c0,12.39-9.146,23.09-21.275,24.887c-5.463,0.81-9.235,5.895-8.426,11.358c0.735,4.966,5.005,8.536,9.879,8.536  c0.488,0,0.981-0.036,1.479-0.109c6.734-0.998,12.955-3.515,18.344-7.165v51.263h-54.022V492.001z"/>
<path d="M434.632,420.409c-3.887,3.919-3.839,10.271,0.077,14.16l0.146,0.144c1.933,1.895,4.424,2.832,6.918,2.832  c2.597,0,5.195-1.017,7.167-3.028c3.866-3.944,3.747-10.331-0.196-14.197C444.821,416.437,438.519,416.489,434.632,420.409z"/>
<g>
</g>
<g>
</g>
<g>
</g>
<g>
</g>
<g>
</g>
<g>
</g>
<g>
</g>
<g>
</g>
<g>
</g>
<g>
</g>
<g>
</g>
<g>
</g>
<g>
</g>
<g>
</g>
<g>
</g>
</svg>
