<?xml version="1.0" encoding="iso-8859-1"?>
<!-- Generator: Adobe Illustrator 19.0.0, SVG Export Plug-In . SVG Version: 6.00 Build 0)  -->
<svg xmlns="http://www.w3.org/2000/svg" xmlns:xlink="http://www.w3.org/1999/xlink" version="1.1" id="Capa_1" x="0px" y="0px" viewBox="0 0 511.999 511.999" style="enable-background:new 0 0 511.999 511.999;" xml:space="preserve">
<g>
	<path style="fill:#ACD670;" d="M256.332,153.125l0.01-0.01c-0.028-0.158-3.698-36.82,16.672-56.811   c20.381-19.991,56.412-16.447,56.571-16.432l0.005-0.005l-0.008,0.008l0.005-0.005l-0.006,0.006   c0.029,0.305,4.533,37.728-15.803,57.685C293.361,157.601,256.332,153.125,256.332,153.125z"/>
	<path style="fill:#ACD670;" d="M255.453,113.631v-0.014c-0.132-0.092-28.65-23.421-28.382-51.959   c0.275-28.548,28.26-51.519,28.382-51.62v-0.008v0.011v-0.007v0.009c0.236,0.195,29.883,23.472,29.615,51.963   C284.801,90.614,255.453,113.631,255.453,113.631z"/>
	<path style="fill:#ACD670;" d="M198.291,137.561c-20.336-19.957-15.832-57.38-15.803-57.685l-0.006-0.006l0.005,0.005l-0.008-0.008   l0.005,0.005c0.159-0.015,36.19-3.56,56.571,16.432c20.368,19.99,16.7,56.652,16.672,56.811l0.01,0.01   C255.737,153.125,218.708,157.601,198.291,137.561z"/>
	<path style="fill:#ACD670;" d="M84.382,153.125l0.01-0.01c-0.028-0.158-3.698-36.82,16.672-56.811   c20.381-19.991,56.412-16.447,56.571-16.432l0.005-0.005l-0.008,0.008l0.005-0.005l-0.006,0.006   c0.029,0.305,4.533,37.728-15.803,57.685C121.41,157.601,84.382,153.125,84.382,153.125z"/>
	<path style="fill:#ACD670;" d="M83.502,113.631v-0.014c-0.132-0.092-28.65-23.421-28.382-51.959   c0.275-28.548,28.259-51.519,28.382-51.621v-0.008v0.011v-0.007v0.009c0.236,0.195,29.883,23.472,29.615,51.963   C112.85,90.614,83.502,113.631,83.502,113.631z"/>
	<path style="fill:#ACD670;" d="M26.34,137.561C6.004,117.604,10.508,80.18,10.537,79.875l-0.006-0.006l0.005,0.005l-0.008-0.008   l0.005,0.005c0.159-0.015,36.19-3.56,56.571,16.432c20.368,19.99,16.7,56.652,16.672,56.811l0.01,0.01   C83.786,153.125,46.758,157.601,26.34,137.561z"/>
	<path style="fill:#ACD670;" d="M127.174,376.01l0.006-0.006c-0.017-0.094-2.199-21.893,9.913-33.78   c12.118-11.887,33.543-9.779,33.637-9.771l0.003-0.003l-0.005,0.005l0.003-0.003l-0.004,0.004c0.017,0.181,2.696,22.433-9.397,34.3   C149.191,378.673,127.174,376.01,127.174,376.01z"/>
	<path style="fill:#ACD670;" d="M92.664,366.756c-12.091-11.866-9.414-34.118-9.397-34.3l-0.004-0.004l0.003,0.003l-0.005-0.005   l0.003,0.003c0.094-0.009,21.518-2.117,33.637,9.771c12.111,11.886,9.93,33.685,9.913,33.78l0.006,0.006   C126.82,376.01,104.804,378.673,92.664,366.756z"/>
	<path style="fill:#ACD670;" d="M54.196,299.653l0.006-0.006c-0.017-0.094-2.199-21.893,9.913-33.78   c12.118-11.887,33.543-9.779,33.637-9.771l0.003-0.003l-0.005,0.005l0.003-0.003l-0.004,0.004c0.017,0.181,2.696,22.433-9.396,34.3   C76.214,302.315,54.196,299.653,54.196,299.653z"/>
	<path style="fill:#ACD670;" d="M19.686,290.399c-12.091-11.866-9.414-34.118-9.397-34.3l-0.004-0.004l0.003,0.003l-0.005-0.005   l0.003,0.003c0.094-0.009,21.518-2.117,33.637,9.771c12.111,11.886,9.93,33.685,9.913,33.78l0.006,0.006   C53.843,299.653,31.826,302.315,19.686,290.399z"/>
	<path style="fill:#ACD670;" d="M428.283,153.125l0.01-0.01c-0.028-0.158-3.698-36.82,16.672-56.811   c20.381-19.991,56.412-16.447,56.571-16.432l0.005-0.005l-0.008,0.008l0.005-0.005l-0.006,0.006   c0.029,0.305,4.533,37.728-15.803,57.685C465.312,157.601,428.283,153.125,428.283,153.125z"/>
	<path style="fill:#ACD670;" d="M427.403,113.631v-0.014c-0.132-0.092-28.65-23.421-28.382-51.959   c0.275-28.548,28.26-51.519,28.382-51.62v-0.008v0.011v-0.007v0.009c0.236,0.195,29.883,23.472,29.615,51.963   C456.752,90.614,427.403,113.631,427.403,113.631z"/>
	<path style="fill:#ACD670;" d="M370.242,137.561c-20.336-19.957-15.832-57.38-15.803-57.685l-0.006-0.006l0.005,0.005l-0.008-0.008   l0.005,0.005c0.159-0.015,36.19-3.56,56.571,16.432c20.368,19.99,16.7,56.652,16.672,56.811l0.01,0.01   C427.687,153.125,390.659,157.601,370.242,137.561z"/>
	<path style="fill:#ACD670;" d="M54.224,472.93l0.006-0.006c-0.017-0.094-2.199-21.893,9.913-33.78   c12.118-11.887,33.543-9.779,33.637-9.771l0.003-0.003l-0.005,0.005l0.003-0.003l-0.004,0.004c0.017,0.181,2.696,22.433-9.396,34.3   C76.241,475.591,54.224,472.93,54.224,472.93z"/>
	<path style="fill:#ACD670;" d="M19.713,463.675c-12.091-11.866-9.414-34.118-9.397-34.3l-0.004-0.004l0.003,0.003l-0.005-0.005   l0.003,0.003c0.094-0.009,21.518-2.117,33.637,9.771c12.111,11.886,9.93,33.685,9.913,33.78l0.006,0.006   C53.87,472.93,31.853,475.591,19.713,463.675z"/>
	<path style="fill:#ACD670;" d="M394.431,472.93l0.006-0.006c-0.017-0.094-2.199-21.893,9.913-33.78   c12.118-11.887,33.543-9.779,33.637-9.771l0.003-0.003l-0.005,0.005l0.003-0.003l-0.004,0.004c0.017,0.181,2.696,22.433-9.397,34.3   C416.447,475.591,394.431,472.93,394.431,472.93z"/>
	<path style="fill:#ACD670;" d="M359.919,463.675c-12.091-11.866-9.414-34.118-9.396-34.3l-0.004-0.004l0.003,0.003l-0.005-0.005   l0.003,0.003c0.094-0.009,21.518-2.117,33.637,9.771c12.111,11.886,9.93,33.685,9.913,33.78l0.006,0.006   C394.076,472.93,372.06,475.591,359.919,463.675z"/>
	<path style="fill:#ACD670;" d="M458.177,346.008l0.006-0.006c-0.017-0.094-2.199-21.893,9.913-33.78   c12.118-11.887,33.543-9.779,33.637-9.771l0.003-0.003l-0.005,0.005l0.003-0.003l-0.004,0.004c0.017,0.181,2.696,22.433-9.396,34.3   C480.194,348.671,458.177,346.008,458.177,346.008z"/>
	<path style="fill:#ACD670;" d="M423.666,336.754c-12.091-11.866-9.414-34.118-9.396-34.3l-0.004-0.004l0.003,0.003l-0.005-0.005   l0.003,0.003c0.094-0.009,21.518-2.117,33.637,9.771c12.111,11.886,9.93,33.685,9.913,33.78l0.006,0.006   C457.823,346.008,435.806,348.671,423.666,336.754z"/>
</g>
<g>
	<circle style="fill:#30995B;" cx="219.971" cy="452.971" r="23.997"/>
	<circle style="fill:#30995B;" cx="267.935" cy="364.453" r="23.997"/>
	<circle style="fill:#30995B;" cx="315.899" cy="275.944" r="23.997"/>
</g>
<path d="M127.017,415.045c5.521,0,9.999-4.476,9.999-9.999v-18.888c9.152-0.549,22.014-3.115,31.339-12.266  c14.313-14.046,12.91-36.92,12.367-42.195c-0.198-2.614-1.419-5.144-3.594-6.946c-1.67-1.383-3.657-2.132-5.669-2.273  c-3.631-0.314-26.768-1.695-41.349,12.609c-1.127,1.106-2.15,2.27-3.094,3.472c-0.944-1.202-1.968-2.367-3.095-3.473  c-14.569-14.292-37.682-12.924-41.317-12.61c-2.022,0.136-4.021,0.887-5.699,2.277c-2.144,1.775-3.358,4.259-3.583,6.832  c-0.532,5.034-2.067,28.152,12.355,42.307h-0.001c9.326,9.153,22.188,11.718,31.34,12.267v18.888  C117.018,410.569,121.496,415.045,127.017,415.045z M144.116,349.363c4.282-4.201,10.988-6.022,16.688-6.711  c-0.487,5.648-2.045,12.639-6.456,16.969c-4.281,4.202-11.166,5.886-16.995,6.436C138.023,360.316,139.843,353.557,144.116,349.363z   M99.687,359.62L99.687,359.62c-4.411-4.329-5.97-11.321-6.456-16.97c5.695,0.689,12.403,2.509,16.687,6.711  c4.273,4.194,6.094,10.955,6.764,16.695C110.852,365.506,103.969,363.823,99.687,359.62z"/>
<path d="M104.547,248.761c-1.695-1.57-3.794-2.442-5.937-2.625c-3.096-0.286-26.701-1.918-41.499,12.596  c-1.126,1.105-2.149,2.269-3.092,3.47c-0.944-1.202-1.967-2.366-3.094-3.472c-14.551-14.273-37.603-12.931-41.323-12.61  c-2.44,0.167-4.821,1.225-6.618,3.146c-1.597,1.707-2.481,3.828-2.662,5.995c-0.542,5.129-2.046,28.138,12.359,42.275  c9.326,9.153,22.188,11.719,31.34,12.267v19.124c0,5.522,4.477,9.999,9.999,9.999s9.999-4.476,9.999-9.999v-19.124  c9.152-0.549,22.014-3.115,31.338-12.266c14.324-14.057,12.918-36.885,12.368-42.191  C107.542,252.912,106.472,250.542,104.547,248.761z M26.69,283.263L26.69,283.263c-4.224-4.145-5.906-11.073-6.45-16.969  c5.694,0.689,12.398,2.51,16.682,6.71c4.273,4.194,6.094,10.955,6.764,16.696C37.856,289.149,30.971,287.467,26.69,283.263z   M81.35,283.263c-4.281,4.203-11.166,5.886-16.995,6.437c0.67-5.741,2.49-12.5,6.763-16.694c4.281-4.2,10.983-6.021,16.683-6.71  C87.255,272.192,85.573,279.119,81.35,283.263z"/>
<polygon points="12.683,297.535 12.682,297.535 12.682,297.535 "/>
<path d="M107.732,428.613c-0.183-2.4-1.228-4.739-3.112-6.516c-1.733-1.635-3.9-2.531-6.111-2.696  c-3.444-0.301-26.762-1.744-41.389,12.606c-1.127,1.106-2.15,2.27-3.094,3.472c-0.944-1.202-1.968-2.367-3.095-3.473  c-14.642-14.363-37.997-12.899-41.344-12.608c-2.225,0.156-4.41,1.055-6.155,2.701c-1.858,1.752-2.899,4.051-3.102,6.417  c-0.533,5.057-2.058,28.15,12.355,42.297l0,0c9.326,9.153,22.188,11.719,31.34,12.267v18.887c0,5.522,4.477,9.999,9.999,9.999  s9.999-4.476,9.999-9.999v-18.888c9.152-0.549,22.014-3.115,31.34-12.266C109.682,456.761,108.274,433.882,107.732,428.613z   M26.696,456.54L26.696,456.54c-4.412-4.33-5.97-11.323-6.456-16.972c5.694,0.688,12.4,2.509,16.687,6.713  c4.273,4.194,6.094,10.955,6.764,16.695C37.863,462.425,30.978,460.742,26.696,456.54z M81.357,456.54  c-4.281,4.202-11.166,5.886-16.995,6.437c0.67-5.74,2.49-12.5,6.763-16.694c4.282-4.201,10.981-6.022,16.688-6.711  C87.327,445.219,85.768,452.21,81.357,456.54z"/>
<path d="M444.826,422.097c-1.733-1.635-3.9-2.531-6.111-2.696c-3.444-0.301-26.762-1.744-41.389,12.606  c-1.127,1.106-2.15,2.27-3.094,3.472c-0.944-1.202-1.968-2.367-3.095-3.473c-14.642-14.363-37.998-12.899-41.344-12.608  c-2.225,0.156-4.41,1.055-6.155,2.701c-1.858,1.752-2.899,4.051-3.102,6.417c-0.533,5.057-2.058,28.15,12.355,42.297l0,0  c9.326,9.153,22.188,11.719,31.34,12.267v18.887c0,5.522,4.477,9.999,9.999,9.999s9.999-4.476,9.999-9.999v-18.888  c9.152-0.549,22.014-3.115,31.34-12.266c14.316-14.051,12.908-36.93,12.366-42.199C447.756,426.214,446.711,423.874,444.826,422.097  z M366.902,456.54L366.902,456.54c-4.412-4.33-5.97-11.323-6.456-16.972c5.694,0.688,12.4,2.509,16.687,6.713  c4.273,4.194,6.094,10.955,6.764,16.695C378.069,462.425,371.185,460.742,366.902,456.54z M421.563,456.54  c-4.281,4.202-11.166,5.886-16.995,6.437c0.67-5.74,2.49-12.5,6.763-16.694c4.282-4.201,10.981-6.022,16.688-6.711  C427.533,445.219,425.975,452.21,421.563,456.54z"/>
<path d="M511.687,301.712c-0.162-2.2-1.051-4.359-2.671-6.091c-1.774-1.896-4.118-2.951-6.526-3.137  c-3.407-0.304-26.737-1.797-41.417,12.603c-1.126,1.105-2.149,2.27-3.093,3.471c-0.944-1.202-1.967-2.367-3.094-3.473  c-14.559-14.281-37.651-12.929-41.308-12.611c-2.209,0.147-4.381,1.025-6.126,2.642c-1.914,1.772-2.981,4.125-3.174,6.544  c-0.545,5.215-2,28.135,12.363,42.231c9.326,9.153,22.187,11.719,31.339,12.267v18.887c0,5.522,4.477,9.999,9.999,9.999  c5.521,0,9.999-4.476,9.999-9.999v-18.887c9.152-0.549,22.015-3.115,31.339-12.266C513.629,329.845,512.236,307.037,511.687,301.712  z M430.65,329.618L430.65,329.618c-4.224-4.145-5.905-11.073-6.45-16.969c5.694,0.689,12.398,2.51,16.681,6.709  c4.273,4.194,6.094,10.956,6.765,16.696C441.816,335.504,434.931,333.822,430.65,329.618z M485.31,329.618  c-4.282,4.203-11.166,5.886-16.995,6.437c0.67-5.74,2.489-12.5,6.763-16.694c4.281-4.2,10.985-6.021,16.683-6.71  C491.216,318.547,489.534,325.474,485.31,329.618z"/>
<path d="M219.974,418.973c-18.746,0-33.996,15.25-33.996,33.996c0,15.267,10.116,28.213,23.997,32.493v16.504  c0,5.522,4.477,9.999,9.999,9.999c5.521,0,9.999-4.476,9.999-9.999v-16.504c13.881-4.28,23.997-17.227,23.997-32.493  C253.97,434.224,238.72,418.973,219.974,418.973z M220.611,466.935c-0.212-0.013-0.422-0.032-0.637-0.032  c-0.215,0-0.426,0.019-0.637,0.032c-7.422-0.337-13.361-6.462-13.361-13.966c0-7.719,6.279-13.998,13.998-13.998  c7.719,0,13.998,6.279,13.998,13.998C233.972,460.472,228.033,466.598,220.611,466.935z"/>
<path d="M267.937,423.453c5.521,0,9.999-4.476,9.999-9.999v-16.504c13.881-4.28,23.997-17.227,23.997-32.493  c0-18.746-15.25-33.996-33.996-33.996s-33.996,15.25-33.996,33.996c0,15.267,10.116,28.213,23.997,32.493v16.504  C257.938,418.977,262.415,423.453,267.937,423.453z M267.937,350.46c7.719,0,13.998,6.279,13.998,13.998  c0,7.504-5.939,13.629-13.361,13.966c-0.212-0.013-0.422-0.032-0.637-0.032s-0.426,0.019-0.637,0.032  c-7.422-0.337-13.361-6.462-13.361-13.966C253.939,356.739,260.218,350.46,267.937,350.46z"/>
<path d="M281.997,275.694c0,15.267,10.116,28.213,23.997,32.493v16.504c0,5.522,4.477,9.999,9.999,9.999  c5.521,0,9.999-4.476,9.999-9.999v-16.504c13.881-4.28,23.997-17.227,23.997-32.493c0-18.746-15.25-33.996-33.996-33.996  S281.997,256.949,281.997,275.694z M329.991,275.694c0,7.505-5.941,13.632-13.366,13.966c-0.21-0.013-0.419-0.032-0.632-0.032  s-0.422,0.019-0.632,0.032c-7.424-0.334-13.366-6.461-13.366-13.966c0-7.719,6.279-13.998,13.998-13.998  C323.712,261.696,329.991,267.975,329.991,275.694z"/>
<path d="M318.386,212.354c5.521,0,9.999-4.476,9.999-9.999c0-5.522-4.477-9.999-9.999-9.999h-52.387v-28.809  c14.01-0.091,38.408-2.812,54.748-18.851c22.24-21.826,19.398-59.477,18.785-65.485c-0.148-2.267-1.065-4.492-2.757-6.258  c-1.776-1.855-4.099-2.879-6.478-3.055c-3.245-0.295-19.452-1.399-36.627,3.674c0.83-3.697,1.326-7.528,1.363-11.474  c0.293-31.163-28.31-55.751-33.019-59.584c-1.761-1.545-4.067-2.482-6.595-2.482c-2.5,0-4.785,0.918-6.538,2.436  c-3.917,3.273-31.537,27.473-31.843,59.094c-0.039,4.13,0.416,8.133,1.222,11.987c-17.027-5.011-33.081-3.961-36.46-3.661  c-2.411,0.158-4.771,1.185-6.571,3.065c-1.656,1.73-2.569,3.904-2.744,6.123c-0.577,5.493-3.661,43.605,18.771,65.619h-0.001  c16.342,16.04,40.74,18.76,54.749,18.852v28.809H94.015v-28.809c14.01-0.091,38.408-2.812,54.75-18.851  c22.258-21.845,19.393-59.544,18.782-65.501c-0.163-2.41-1.195-4.767-3.079-6.562c-1.703-1.625-3.832-2.53-6.013-2.722  c-2.875-0.269-19.325-1.488-36.77,3.664c0.83-3.698,1.326-7.53,1.363-11.476c0.293-31.146-28.31-55.749-33.016-59.583  c-1.761-1.547-4.069-2.485-6.598-2.485c-2.496,0-4.777,0.916-6.529,2.428C72.977,5.735,45.358,29.89,45.053,61.563  c-0.039,4.124,0.428,8.131,1.252,11.996c-17.038-5.021-33.109-3.97-36.49-3.67c-2.411,0.158-4.771,1.185-6.571,3.065  c-1.664,1.738-2.578,3.923-2.747,6.153c-0.591,5.639-3.626,43.606,18.774,65.589h-0.001c16.342,16.04,40.74,18.76,54.749,18.852  v28.809H10.032c-5.521,0-9.999,4.476-9.999,9.999c0,5.522,4.477,9.999,9.999,9.999h260.485L106.184,496.966  c-2.762,4.782-1.123,10.898,3.66,13.659c1.574,0.909,3.294,1.341,4.989,1.341c3.456,0,6.816-1.793,8.669-5l170.107-294.611  L318.386,212.354L318.386,212.354z M306.74,130.425c-11.338,11.129-29.892,13.044-40.704,13.119  c0.361-11.732,3.258-29.613,13.945-40.102c11.324-11.108,29.371-13.437,40.011-13.769  C319.947,100.621,318.049,119.327,306.74,130.425z M255.597,23.73c7.709,7.769,19.587,22.33,19.437,38.183  c-0.147,15.885-11.912,30.359-19.504,38.058c-8.041-8.555-18.637-23.246-18.496-38.216C237.187,45.921,248.299,31.503,255.597,23.73  z M205.261,130.425L205.261,130.425c-11.311-11.1-13.208-29.807-13.252-40.753c10.628,0.332,28.683,2.659,40.009,13.768  c0.667,0.654,1.302,1.337,1.91,2.045c0.314,0.403,0.626,0.799,0.939,1.189c8.353,10.654,10.773,26.265,11.099,36.87  C235.154,143.469,216.598,141.552,205.261,130.425z M134.757,130.425c-11.339,11.129-29.893,13.044-40.705,13.119  c0.361-11.732,3.258-29.613,13.946-40.103c11.318-11.103,29.366-13.434,40.01-13.767  C147.963,100.622,146.065,119.327,134.757,130.425z M83.604,23.726c7.709,7.77,19.595,22.341,19.445,38.187  c-0.147,15.886-11.912,30.361-19.504,38.058c-8.041-8.553-18.637-23.244-18.496-38.217C65.202,45.887,76.317,31.479,83.604,23.726z   M33.276,130.425L33.276,130.425c-10.393-10.199-13.202-28.072-13.282-40.754c10.623,0.328,28.702,2.649,40.039,13.769  c10.686,10.488,13.583,28.369,13.946,40.105C63.168,143.469,44.613,141.552,33.276,130.425z"/>
<path d="M353.041,212.354c5.521,0,9.999-4.476,9.999-9.999c0-5.522-4.477-9.999-9.999-9.999h-0.131  c-5.521,0-9.999,4.476-9.999,9.999c0,5.522,4.477,9.999,9.999,9.999H353.041z"/>
<path d="M501.969,212.353c5.521,0,9.999-4.476,9.999-9.999c0-5.522-4.477-9.999-9.999-9.999h-63.985v-28.808  c14.01-0.091,38.408-2.812,54.748-18.851c22.228-21.813,19.41-59.368,18.787-65.465c-0.145-2.273-1.063-4.507-2.759-6.278  c-1.776-1.855-4.099-2.879-6.478-3.055c-3.244-0.295-19.452-1.399-36.627,3.674c0.83-3.698,1.326-7.528,1.363-11.475  C467.309,30.938,438.709,6.351,434,2.515c-1.761-1.545-4.068-2.482-6.596-2.482c-2.5,0-4.785,0.918-6.538,2.436  c-3.917,3.273-31.537,27.473-31.843,59.094c-0.039,4.125,0.428,8.133,1.253,11.999c-17-5.01-33.04-3.976-36.464-3.675  c-2.271,0.142-4.505,1.055-6.277,2.745c-1.869,1.782-2.898,4.118-3.071,6.511c-0.594,5.725-3.566,43.625,18.776,65.554l0,0  c16.343,16.04,40.741,18.76,54.75,18.852v28.808h-31.003c-5.521,0-9.999,4.476-9.999,9.999c0,5.522,4.477,9.999,9.999,9.999h34.741  l-164.335,284.61c-2.762,4.782-1.123,10.898,3.66,13.659c1.574,0.909,3.294,1.341,4.989,1.341c3.456,0,6.816-1.793,8.669-5  l170.107-294.612L501.969,212.353L501.969,212.353z M478.725,130.425c-11.338,11.129-29.892,13.044-40.703,13.119  c0.363-11.735,3.261-29.617,13.944-40.102c11.334-11.118,29.406-13.441,40.041-13.769  C491.926,102.353,489.116,120.227,478.725,130.425z M427.581,23.73c7.709,7.769,19.587,22.33,19.438,38.183  c-0.147,15.886-11.913,30.361-19.505,38.058c-8.04-8.553-18.636-23.244-18.495-38.217C409.172,45.921,420.284,31.503,427.581,23.73z   M377.245,130.425L377.245,130.425c-11.309-11.098-13.206-29.805-13.251-40.752c10.63,0.333,28.687,2.663,40.009,13.767  c10.683,10.484,13.581,28.344,13.946,40.078C407.117,143.414,388.5,141.472,377.245,130.425z"/>
<g>
</g>
<g>
</g>
<g>
</g>
<g>
</g>
<g>
</g>
<g>
</g>
<g>
</g>
<g>
</g>
<g>
</g>
<g>
</g>
<g>
</g>
<g>
</g>
<g>
</g>
<g>
</g>
<g>
</g>
</svg>
