<?xml version="1.0" encoding="iso-8859-1"?>
<!-- Generator: Adobe Illustrator 19.0.0, SVG Export Plug-In . SVG Version: 6.00 Build 0)  -->
<svg xmlns="http://www.w3.org/2000/svg" xmlns:xlink="http://www.w3.org/1999/xlink" version="1.1" id="Capa_1" x="0px" y="0px" viewBox="0 0 512 512" style="enable-background:new 0 0 512 512;" xml:space="preserve">
<g>
	<path style="fill:#EF7159;" d="M255.964,349.611c-25.091,33.807-26.083,76.381-26.083,76.381h-33.113   c0,0,4.196-89.796,39.196-119.296L255.964,349.611z"/>
	<path style="fill:#EF7159;" d="M362.282,349.611v51.447c-5.999,3.817-14.998,24.933-14.998,24.933h39.661l16.127-28.796   l-12.919-70.5L362.282,349.611z"/>
</g>
<path style="fill:#F9BD95;" d="M22.998,283.422l94.175,30.851c7.218,2.365,12.7,3.832,20.277,4.369l19.785,1.401l3.952,39.591  l-7.208,41.424c-5.999,3.817-14.998,24.933-14.998,24.933h57.788l26.843-86.075c23.161,9.228,50.341,14.54,79.411,14.54  c37.7,0,60.43-3.012,87.13-17.835l-3.189-17.426l14.979,81.862c-5.999,3.817-14.998,24.933-14.998,24.933h55.788  c0,0,13.202-104.63,34.809-130.682l5.888-7.889c11.549-17.07,18.292-37.648,18.292-59.799l0,0  c0-59.069-47.954-106.954-107.108-106.954H247.632c-52.659,3.306-99.528-21.953-99.528-21.953s-34.556-26.84-64.848,11.321  c17.115,6.456,28.729,17.634,28.729,17.634l-25.668,33.633c-14.68,19.235-33.652,34.774-55.402,45.376l-7.916,3.859  c0,0-10.034,15.576-10.034,36.681C12.964,268.323,22.998,283.422,22.998,283.422z"/>
<ellipse style="fill:#EF7159;" cx="22.998" cy="246.98" rx="12.998" ry="36.442"/>
<path d="M130.981,194.269c-6.065,0-11,4.934-11,10.999s4.935,10.999,11,10.999s11-4.934,11-10.999S137.046,194.269,130.981,194.269z  "/>
<path d="M444.625,183.595c-19.873-23.234-48.804-36.56-79.374-36.56c-5.523,0-10,4.477-10,10s4.477,10,10,10  c24.716,0,48.107,10.774,64.175,29.56c1.979,2.313,4.782,3.5,7.604,3.5c2.299,0,4.611-0.789,6.495-2.4  C447.723,194.105,448.215,187.792,444.625,183.595z"/>
<path d="M460.921,209.59c-0.628-1.325-1.511-2.45-2.564-3.342c-2.824-2.425-6.827-3.142-10.477-1.549  c-0.749,0.328-1.46,0.754-2.114,1.264c-1.013,0.782-1.848,1.74-2.481,2.808c-0.908,1.517-1.435,3.302-1.401,5.216  c0.014,1.322,0.292,2.662,0.862,3.945c0.01,0.024,0.021,0.048,0.031,0.073c0.574,1.33,1.4,2.47,2.399,3.389  c1.928,1.803,4.386,2.648,6.793,2.648c1.421,0,2.825-0.295,4.09-0.862c5.023-2.251,7.255-8.2,5.028-13.233  C461.034,209.826,460.979,209.707,460.921,209.59z"/>
<path d="M500.689,140.15c7.294-7.284,11.311-16.969,11.311-27.271s-4.017-19.987-11.311-27.271  c-12.817-12.799-33.673-12.799-46.49,0c-10.876,10.861-11.385,27.02-1.208,38.422c6.083,6.815,17.641,8.693,26.313,4.276  c7.71-3.928,11.32-11.807,9.421-20.563c-1.171-5.397-6.495-8.823-11.893-7.653c-4.964,1.077-8.261,5.668-7.847,10.598  c-0.476-0.005-0.962-0.076-1.277-0.209c-2.947-3.481-2.728-7.373,0.623-10.718c5.025-5.018,13.201-5.018,18.227,0  c3.51,3.505,5.443,8.164,5.443,13.119s-1.933,9.614-5.443,13.119c-6.076,6.068-14.694,8.684-23.128,7.054  c-19.332-14.069-43.118-22.385-68.815-22.385H247.632c-0.209,0-0.418,0.006-0.626,0.02c-45.344,2.845-84.55-16.414-90.393-19.44  c-12.615-9.109-27.379-14.137-41.868-13.459c-19.871,0.929-35.243,12.615-42.174,32.063c-1.099,3.082-0.62,6.506,1.281,9.168  s4.961,4.226,8.255,4.188c0.171-0.002,0.339-0.003,0.509-0.003c6.69,0,12.336,1.573,17.103,4.053l-21.351,27.977  C64.704,173.14,46.78,187.82,26.534,197.689l-6.444,3.141c-4.778,0.964-11.313,4.718-15.701,17.021  C1.559,225.785,0,236.13,0,246.979c0,10.85,1.559,21.194,4.388,29.128c4.661,13.069,11.744,16.491,16.571,17.169l93.101,30.499  c7.977,2.613,14.246,4.243,22.684,4.841l11.378,0.806l2.979,29.844l-6.396,36.758c-6.101,6.648-11.774,18.656-14.923,26.046  c-1.317,3.089-0.995,6.632,0.856,9.434s4.985,4.487,8.343,4.487h90.901c5.432,0,9.871-4.336,9.997-9.767  c0.009-0.373,1.062-35.593,20.571-65.55c13.8,2.495,28.113,3.782,42.572,3.782c19.032,0,34.716-0.734,49.26-3.466v35.852  c-5.822,6.778-11.173,18.133-14.197,25.228c-1.316,3.089-0.994,6.633,0.857,9.434c1.852,2.801,4.985,4.486,8.343,4.486h95.448  c5.039,0,9.291-3.749,9.921-8.748c3.571-28.298,16.386-106.018,32.585-125.55c0.109-0.131,0.214-0.266,0.317-0.402l5.888-7.889  c0.092-0.124,0.182-0.25,0.269-0.378c13.09-19.348,20.009-41.964,20.009-65.403c0-29.237-10.798-56.002-28.62-76.527  C489.618,148.875,495.647,145.185,500.689,140.15z M25.996,246.979c0,9.96-1.478,17.212-2.998,21.756  C21.478,264.191,20,256.939,20,246.979c0-9.959,1.478-17.212,2.998-21.755C24.518,229.768,25.996,237.02,25.996,246.979z   M220.671,415.992h-12.815c1.81-14.883,6.14-42.56,15.182-65.587c5.469,2.069,11.097,3.925,16.867,5.548  C226.724,378.95,222.209,402.968,220.671,415.992z M367.856,409.361c2.762-1.854,4.426-4.965,4.426-8.302V355.67  c3.471-1.217,6.938-2.594,10.43-4.151l8.462,46.247c-4.057,5.032-7.837,12.124-10.706,18.225h-17.113  C365.205,412.742,366.85,410.269,367.856,409.361z M475.274,281.629l-5.605,7.51c-19.637,24.039-31.846,99.757-35.679,126.852  h-30.918h-0.067c1.847-3.25,3.489-5.708,4.512-6.63c3.299-2.213,4.981-6.179,4.263-10.103l-14.979-81.862  c-0.994-5.433-6.204-9.028-11.636-8.037c-5.433,0.994-9.031,6.204-8.037,11.637l1.863,10.181  c-22.764,11.191-43.431,13.28-75.968,13.28c-25.035,0-49.511-4.17-71.128-12.083c1.004-1.604,2.045-3.14,3.126-4.596  c3.292-4.435,2.365-10.698-2.07-13.99c-4.436-3.292-10.698-2.366-13.99,2.07c-21.155,28.503-28.889,79.252-31.263,100.134h-13.604  H155.04c1.847-3.25,3.489-5.708,4.512-6.63c2.262-1.519,3.81-3.897,4.278-6.588l7.208-41.424c0.155-0.894,0.188-1.805,0.099-2.708  l-3.952-39.591c-0.484-4.845-4.387-8.638-9.244-8.982l-19.785-1.402c-6.445-0.457-11.075-1.67-17.87-3.896L40.611,278.67  c0.343-0.811,0.676-1.662,0.996-2.561c2.83-7.934,4.388-18.278,4.388-29.128s-1.559-21.194-4.388-29.128  c-0.582-1.631-1.203-3.103-1.851-4.447c21.205-11.155,39.976-26.99,54.51-46.035l20.281-26.575  c6.259,9.083,8.505,18.435,8.68,19.197c1.047,4.644,5.171,7.801,9.746,7.801c0.717,0,1.446-0.078,2.175-0.239  c5.392-1.196,8.793-6.537,7.597-11.929c-0.119-0.537-3.014-13.284-11.619-25.93c-8.583-12.616-19.786-20.894-32.93-24.47  c5.388-5.523,12.032-7.203,17.481-7.458c8.853-0.409,19.445,2.804,29.022,9.577c0.311,0.252,0.641,0.486,0.988,0.704  c7.646,5.647,14.572,13.603,19.341,23.844c2.332,5.007,8.279,7.174,13.287,4.844c5.007-2.332,7.175-8.28,4.844-13.287  c-0.09-0.194-0.189-0.383-0.281-0.576c15.193,4.408,34.088,8.106,54.769,8.105c3.382,0,6.824-0.1,10.292-0.311h146.673  c53.545,0,97.108,43.494,97.108,96.955C491.722,246.974,486.035,265.644,475.274,281.629z"/>
<g>
</g>
<g>
</g>
<g>
</g>
<g>
</g>
<g>
</g>
<g>
</g>
<g>
</g>
<g>
</g>
<g>
</g>
<g>
</g>
<g>
</g>
<g>
</g>
<g>
</g>
<g>
</g>
<g>
</g>
</svg>
