<?xml version="1.0" encoding="iso-8859-1"?>
<!-- Generator: Adobe Illustrator 19.0.0, SVG Export Plug-In . SVG Version: 6.00 Build 0)  -->
<svg xmlns="http://www.w3.org/2000/svg" xmlns:xlink="http://www.w3.org/1999/xlink" version="1.1" id="Capa_1" x="0px" y="0px" viewBox="0 0 512.001 512.001" style="enable-background:new 0 0 512.001 512.001;" xml:space="preserve">
<circle style="fill:#FFC943;" cx="379" cy="362.57" r="123"/>
<circle style="fill:#D8902A;" cx="379" cy="362.57" r="74.3"/>
<g>
	<circle style="fill:#FFC943;" cx="379" cy="362.57" r="34.33"/>
	<circle style="fill:#FFC943;" cx="255.88" cy="149.31" r="123"/>
</g>
<circle style="fill:#D8902A;" cx="255.88" cy="149.31" r="74.3"/>
<g>
	<circle style="fill:#FFC943;" cx="255.88" cy="149.31" r="34.33"/>
	<circle style="fill:#FFC943;" cx="132.88" cy="362.57" r="123"/>
</g>
<circle style="fill:#D8902A;" cx="132.88" cy="362.57" r="74.3"/>
<circle style="fill:#FFC943;" cx="132.88" cy="362.57" r="34.33"/>
<path d="M379,446.708c21.556,0,43.111-8.205,59.521-24.615c21.915-21.916,30.008-53.991,21.119-83.709  c-1.583-5.291-7.155-8.297-12.446-6.715c-5.291,1.583-8.297,7.155-6.715,12.446c6.779,22.665,0.61,47.125-16.101,63.835  c-25.021,25.022-65.736,25.022-90.758,0s-25.022-65.737,0-90.758c17.477-17.477,42.866-23.347,66.261-15.322  c5.225,1.792,10.912-0.99,12.704-6.214c1.792-5.224-0.99-10.912-6.214-12.704c-30.678-10.523-63.972-2.822-86.893,20.098  c-32.82,32.82-32.82,86.222,0,119.043C335.889,438.503,357.444,446.708,379,446.708z"/>
<path d="M424.411,317.224c1.95,1.933,4.495,2.897,7.039,2.897c2.574,0,5.148-0.988,7.103-2.96  c3.888-3.922,3.859-10.254-0.063-14.142l-0.133-0.133c-3.905-3.905-10.237-3.905-14.143,0c-3.905,3.905-3.905,10.237,0,14.143  L424.411,317.224z"/>
<path d="M284.955,456.617c1.953,1.953,4.512,2.929,7.071,2.929s5.119-0.976,7.071-2.929c3.905-3.905,3.905-10.237,0-14.143  l-0.088-0.088c-3.905-3.905-10.237-3.905-14.143,0c-3.905,3.905-3.905,10.237,0,14.143L284.955,456.617z"/>
<path d="M379,318.651c-24.152,0-43.802,19.649-43.802,43.802s19.649,43.801,43.802,43.801s43.802-19.649,43.802-43.801  S403.152,318.651,379,318.651z M379,386.254c-13.125,0-23.802-10.677-23.802-23.801c0-13.125,10.677-23.802,23.802-23.802  s23.802,10.677,23.802,23.802C402.802,375.576,392.125,386.254,379,386.254z"/>
<path d="M288.558,226.101c1.475,0,2.973-0.328,4.387-1.02c29.133-14.25,47.231-43.239,47.231-75.653  c0-46.415-37.761-84.176-84.176-84.176s-84.176,37.761-84.176,84.176c0,30.993,16.958,59.396,44.258,74.125  c4.86,2.623,10.927,0.809,13.549-4.053c2.623-4.86,0.808-10.926-4.053-13.549c-20.82-11.233-33.754-32.892-33.754-56.523  c0-35.387,28.789-64.176,64.176-64.176s64.176,28.789,64.176,64.176c0,24.715-13.802,46.82-36.019,57.688  c-4.961,2.427-7.016,8.416-4.589,13.377C281.303,224.04,284.859,226.101,288.558,226.101z"/>
<path d="M256,213.604c-5.523,0-10,4.477-10,10s4.477,10,10,10h0.232c5.523,0,10-4.477,10-10s-4.477-10-10-10H256z"/>
<path d="M256,36.428h0.124c5.523,0,10-4.477,10-10s-4.477-10-10-10H256c-5.523,0-10,4.477-10,10S250.477,36.428,256,36.428z"/>
<path d="M299.886,149.512c0-11.7-4.556-22.699-12.829-30.972c-8.273-8.273-19.272-12.83-30.972-12.83  c-11.7,0-22.7,4.556-30.973,12.829c-17.078,17.078-17.078,44.867,0,61.945c8.541,8.54,19.754,12.81,30.973,12.809  c11.215-0.001,22.434-4.271,30.972-12.809C295.33,172.212,299.886,161.213,299.886,149.512z M272.914,166.343  c-9.279,9.281-24.38,9.28-33.66,0s-9.28-24.38,0-33.66c4.495-4.496,10.472-6.971,16.83-6.971c6.357,0,12.334,2.476,16.83,6.971l0,0  c4.496,4.495,6.971,10.472,6.971,16.83C279.886,155.87,277.41,161.847,272.914,166.343z"/>
<path d="M192.521,422.093c32.82-32.82,32.82-86.222,0-119.042c-21.916-21.915-53.99-30.009-83.709-21.119  c-5.291,1.583-8.297,7.155-6.715,12.446c1.583,5.291,7.156,8.301,12.446,6.715c22.663-6.777,47.124-0.61,63.835,16.101  c25.022,25.021,25.022,65.736,0,90.758c-12.512,12.513-28.943,18.769-45.379,18.767c-16.432-0.001-32.87-6.257-45.379-18.766  c-17.477-17.477-23.348-42.867-15.322-66.261c1.792-5.224-0.99-10.912-6.214-12.704c-5.221-1.792-10.912,0.991-12.704,6.214  c-10.523,30.676-2.822,63.972,20.098,86.893c16.41,16.41,37.966,24.615,59.521,24.615S176.111,438.503,192.521,422.093z"/>
<path d="M80.386,320.286c2.559,0,5.119-0.976,7.071-2.929l0.164-0.165c3.905-3.905,3.905-10.237,0-14.143  c-3.905-3.904-10.237-3.904-14.143,0l-0.164,0.165c-3.905,3.905-3.905,10.237,0,14.143C75.267,319.31,77.827,320.286,80.386,320.286  z"/>
<path d="M212.815,442.563c-3.905,3.905-3.905,10.237,0,14.143c1.953,1.953,4.512,2.929,7.071,2.929s5.119-0.976,7.071-2.929  l0.088-0.088c3.905-3.905,3.905-10.237,0-14.143c-3.905-3.905-10.237-3.905-14.143,0L212.815,442.563z"/>
<path d="M132.881,406.373c24.152,0,43.801-19.649,43.801-43.801s-19.649-43.802-43.801-43.802s-43.802,19.649-43.802,43.802  S108.729,406.373,132.881,406.373z M132.881,338.77c13.124,0,23.801,10.677,23.801,23.802c0,13.124-10.677,23.801-23.801,23.801  c-13.125,0-23.802-10.677-23.802-23.801C109.079,349.447,119.756,338.77,132.881,338.77z"/>
<path d="M502,475.572h-52.83c8.519-5.298,16.542-11.621,23.876-18.955c25.12-25.12,38.955-58.52,38.955-94.045  s-13.834-68.925-38.955-94.045c-25.121-25.12-58.52-38.955-94.045-38.955c-6.019,0-11.975,0.407-17.842,1.189  C378.601,208.259,389,180.037,389,149.428c0-60.729-41.026-113.699-99.769-128.813c-5.349-1.376-10.8,1.845-12.176,7.193  c-1.376,5.349,1.844,10.8,7.193,12.176C334.149,52.824,369,97.829,369,149.428c0,62.309-50.691,113-113,113s-113-50.691-113-113  c0-51.6,34.851-96.604,84.752-109.443c5.349-1.376,8.569-6.828,7.193-12.176s-6.829-8.567-12.176-7.193  C164.026,35.73,123,88.699,123,149.428c0,30.609,10.399,58.831,27.842,81.332c-5.867-0.782-11.823-1.189-17.842-1.189  c-35.525,0-68.925,13.834-94.045,38.955C13.834,293.647,0,327.046,0,362.572s13.834,68.925,38.955,94.045  c7.334,7.334,15.356,13.657,23.874,18.955H10c-5.523,0-10,4.477-10,10s4.477,10,10,10h492c5.523,0,10-4.477,10-10  S507.523,475.572,502,475.572z M273.755,281.24c-7.36,9.508-13.291,19.831-17.755,30.659c-4.464-10.828-10.395-21.152-17.755-30.659  c5.81,0.779,11.735,1.188,17.755,1.188C262.02,282.428,267.945,282.02,273.755,281.24z M53.097,442.474  c-44.059-44.059-44.059-115.747,0-159.806c44.059-44.06,115.747-44.059,159.806,0c21.088,21.087,32.362,48.85,33.083,77.092  c-0.042,1.955-0.039,3.911,0.004,5.868c-0.494,18.693-5.617,37.408-15.629,54.356c-2.809,4.755-1.231,10.887,3.524,13.696  c4.754,2.81,10.887,1.231,13.696-3.524c3.239-5.483,6.04-11.125,8.418-16.879c2.378,5.754,5.179,11.396,8.418,16.879  c2.809,4.755,8.941,6.332,13.696,3.524c4.755-2.809,6.333-8.941,3.524-13.696c-10.012-16.949-15.135-35.664-15.629-54.357  c0.044-1.956,0.047-3.912,0.004-5.866c0.721-28.242,11.996-56.006,33.084-77.093c44.059-44.06,115.747-44.06,159.806,0  c44.059,44.059,44.059,115.747,0,159.806c-21.227,21.227-49.218,32.512-77.654,33.097h-4.663c-18.907-0.392-37.857-5.511-55-15.638  c-4.752-2.809-10.887-1.232-13.696,3.524c-2.362,3.998-1.613,8.962,1.51,12.114H202.6c3.122-3.151,3.872-8.115,1.51-12.114  c-2.809-4.756-8.941-6.333-13.696-3.524c-17.13,10.119-36.064,15.239-54.955,15.638h-4.738  C102.296,474.98,74.317,463.695,53.097,442.474z"/>
<g>
</g>
<g>
</g>
<g>
</g>
<g>
</g>
<g>
</g>
<g>
</g>
<g>
</g>
<g>
</g>
<g>
</g>
<g>
</g>
<g>
</g>
<g>
</g>
<g>
</g>
<g>
</g>
<g>
</g>
</svg>
