<?xml version="1.0" encoding="iso-8859-1"?>
<!-- Generator: Adobe Illustrator 19.0.0, SVG Export Plug-In . SVG Version: 6.00 Build 0)  -->
<svg xmlns="http://www.w3.org/2000/svg" xmlns:xlink="http://www.w3.org/1999/xlink" version="1.1" id="Capa_1" x="0px" y="0px" viewBox="0 0 512 512" style="enable-background:new 0 0 512 512;" xml:space="preserve">
<path style="fill:#30995B;" d="M117.203,150.457c15.352-39.144,33.25-65.858,43.933-63.357  c13.269,3.106,10.384,50.106-6.444,104.977c-14.145,46.124-33.639,83.127-47.376,91.908l-28.78,0.935  c-13.789-6.701-34.31-44.831-49.034-92.843C12.674,137.206,9.788,90.206,23.057,87.099c10.868-2.544,29.2,25.148,44.725,65.4  L117.203,150.457z"/>
<ellipse style="fill:#ACD670;" cx="92.33" cy="171.9" rx="24.873" ry="118.04"/>
<path style="fill:#EF7159;" d="M159.103,458.138c9.663-37.834,14.972-74.814,14.975-91.951  c0.007-42.111-36.691-76.255-81.968-76.263s-81.986,34.124-81.993,76.236c-0.003,17.14,5.296,54.133,14.95,91.978H159.103z"/>
<path style="fill:#30995B;" d="M281.234,150.457c15.352-39.144,33.25-65.858,43.933-63.357  c13.269,3.106,10.384,50.106-6.444,104.977c-14.145,46.124-33.639,83.127-47.376,91.908l-28.78,0.935  c-13.789-6.701-34.31-44.831-49.034-92.843C176.705,137.206,173.82,90.206,187.089,87.1c10.868-2.544,29.2,25.148,44.725,65.4  L281.234,150.457z"/>
<ellipse style="fill:#ACD670;" cx="256.36" cy="171.9" rx="24.873" ry="118.04"/>
<path style="fill:#EF7159;" d="M323.133,458.138c9.663-37.834,14.972-74.814,14.975-91.951  c0.007-42.111-36.691-76.255-81.968-76.263s-81.986,34.124-81.993,76.236c-0.003,17.14,5.296,54.133,14.95,91.978H323.133z"/>
<path style="fill:#30995B;" d="M445.264,150.457c15.352-39.144,33.25-65.858,43.933-63.357  c13.269,3.106,10.384,50.106-6.444,104.977c-14.145,46.124-33.639,83.127-47.376,91.908l-28.78,0.935  c-13.789-6.701-34.31-44.831-49.034-92.843C340.735,137.206,337.85,90.206,351.119,87.1c10.868-2.544,29.2,25.148,44.725,65.4  L445.264,150.457z"/>
<ellipse style="fill:#ACD670;" cx="420.39" cy="171.9" rx="24.873" ry="118.04"/>
<path style="fill:#EF7159;" d="M487.163,458.138c9.663-37.834,14.972-74.814,14.975-91.951  c0.007-42.111-36.691-76.255-81.968-76.263s-81.986,34.124-81.993,76.236c-0.003,17.14,5.296,54.133,14.95,91.978H487.163z"/>
<path d="M90.16,380.7c-2.63,0-5.21,1.07-7.07,2.93s-2.93,4.44-2.93,7.07c0,2.64,1.07,5.21,2.93,7.07c1.87,1.86,4.44,2.93,7.07,2.93  c2.64,0,5.21-1.07,7.07-2.93c1.87-1.86,2.93-4.43,2.93-7.07c0-2.63-1.06-5.21-2.93-7.07C95.37,381.77,92.8,380.7,90.16,380.7z"/>
<path d="M254.13,380.7c-2.64,0-5.22,1.07-7.08,2.93s-2.92,4.44-2.92,7.07c0,2.64,1.06,5.21,2.92,7.07c1.87,1.86,4.44,2.93,7.08,2.93  c2.63,0,5.21-1.07,7.07-2.93c1.86-1.86,2.93-4.43,2.93-7.07c0-2.63-1.07-5.21-2.93-7.07C259.34,381.77,256.76,380.7,254.13,380.7z"/>
<path d="M418.09,380.7c-2.64,0-5.22,1.07-7.07,2.93c-1.87,1.86-2.93,4.44-2.93,7.07c0,2.64,1.06,5.21,2.93,7.07  c1.86,1.86,4.43,2.93,7.07,2.93c2.63,0,5.21-1.07,7.07-2.93c1.86-1.86,2.93-4.44,2.93-7.07s-1.07-5.21-2.93-7.07  C423.3,381.77,420.72,380.7,418.09,380.7z"/>
<path d="M502,448.138h-2.241c8.38-35.929,12.238-66.994,12.241-81.95c0.004-23.176-9.653-44.926-27.191-61.243  c-10.101-9.397-22.133-16.315-35.242-20.471c16.845-18.855,32.966-58.027,42.608-89.466c11.7-38.149,21.418-89.561,10.302-108.903  c-3.367-5.859-7.916-7.989-11.139-8.743c-14.578-3.415-26.741,14.314-30.739,20.14c-2.925,4.261-5.882,9.146-8.831,14.552  c-1.121-9.261-2.503-17.905-4.141-25.68c-6.111-29.003-14.81-42.512-27.373-42.512S398.992,57.37,392.88,86.374  c-1.68,7.973-3.091,16.858-4.226,26.388c-2.927-5.411-5.865-10.318-8.779-14.619c-4.06-5.995-16.415-24.234-31.175-20.78  c-3.1,0.726-7.423,2.733-10.745,8.098c-3.322-5.365-7.645-7.372-10.745-8.098c-14.578-3.415-26.741,14.314-30.739,20.14  c-2.925,4.261-5.882,9.146-8.831,14.552c-1.121-9.262-2.503-17.905-4.141-25.68c-6.111-29.003-14.81-42.512-27.373-42.512  s-21.262,13.508-27.373,42.512c-1.68,7.973-3.091,16.858-4.226,26.388c-2.927-5.411-5.865-10.318-8.779-14.619  c-4.06-5.995-16.414-24.234-31.175-20.78c-3.048,0.714-7.281,2.662-10.58,7.828c-3.299-5.166-7.532-7.114-10.58-7.828  c-14.576-3.415-26.741,14.314-30.739,20.14c-2.925,4.261-5.882,9.146-8.831,14.552c-1.121-9.262-2.503-17.905-4.141-25.68  c-6.111-29.003-14.809-42.512-27.373-42.512c-12.563,0-21.262,13.508-27.373,42.512c-1.68,7.973-3.091,16.858-4.226,26.388  c-2.927-5.411-5.865-10.318-8.779-14.619c-4.06-5.995-16.411-24.234-31.175-20.78c-3.222,0.754-7.771,2.884-11.138,8.743  C-1.478,105.45,8.24,156.862,19.94,195.011c9.813,31.996,25.83,70.723,42.62,89.477C26.292,296.047,0.122,328.29,0.116,366.159  c-0.002,14.961,3.848,46.038,12.22,81.979H10c-5.523,0-10,4.477-10,10s4.477,10,10,10h492c5.523,0,10-4.477,10-10  S507.523,448.138,502,448.138z M485.998,98.219c1.092,3.819,2.146,12.222,0.647,27.52c-1.771,18.083-6.598,40.601-13.592,63.405  c-7.426,24.215-15.889,44.512-23.737,59.458c3.763-21.651,5.81-48.472,5.81-76.699c0-6.338-0.107-12.601-0.31-18.754  C468.303,119.03,480.29,102.833,485.998,98.219z M411.227,96.76c3.11-17.163,6.673-26.33,9.027-30.567  c2.354,4.238,5.917,13.404,9.027,30.567c3.77,20.806,5.846,47.492,5.846,75.143s-2.076,54.337-5.846,75.143  c-3.11,17.163-6.673,26.33-9.027,30.567c-2.354-4.238-5.917-13.404-9.027-30.567c-3.77-20.806-5.846-47.492-5.846-75.143  S407.457,117.565,411.227,96.76z M354.033,98.245c5.761,4.753,18.128,21.56,31.619,56.004c-0.179,5.799-0.272,11.695-0.272,17.654  c0,28.784,2.134,56.091,6.039,77.96c-7.812-14.585-16.542-34.98-24.435-60.719c-6.994-22.804-11.821-45.322-13.592-63.405  C351.898,110.476,352.944,102.075,354.033,98.245z M328.048,195.008c3.701-12.066,7.2-25.458,9.908-38.744  c2.708,13.285,6.207,26.678,9.908,38.744c9.813,31.996,25.83,70.723,42.62,89.477c-22.793,7.266-41.596,22.699-52.425,42.564  c-4.39-8.071-10.149-15.533-17.211-22.104c-10.134-9.428-22.212-16.36-35.371-20.511  C302.309,265.563,318.414,226.424,328.048,195.008z M338.03,438.208c0.703,3.26,1.448,6.575,2.229,9.93h-4.461  C336.58,444.784,337.326,441.469,338.03,438.208z M321.872,98.219c1.092,3.818,2.146,12.222,0.647,27.52  c-1.771,18.083-6.598,40.601-13.592,63.405c-7.426,24.215-15.889,44.512-23.737,59.458c3.763-21.651,5.81-48.472,5.81-76.699  c0-6.338-0.107-12.601-0.31-18.755C304.177,119.03,316.164,102.833,321.872,98.219z M247.1,96.76  c3.11-17.163,6.673-26.33,9.027-30.567c2.354,4.238,5.917,13.404,9.027,30.567c3.77,20.806,5.846,47.492,5.846,75.143  s-2.076,54.337-5.846,75.143c-3.11,17.163-6.673,26.33-9.027,30.567c-2.354-4.238-5.917-13.404-9.027-30.567  c-3.77-20.806-5.846-47.492-5.846-75.143S243.33,117.565,247.1,96.76z M189.907,98.245c5.761,4.753,18.128,21.56,31.619,56.004  c-0.179,5.799-0.272,11.695-0.272,17.654c0,28.784,2.134,56.091,6.039,77.96c-7.812-14.585-16.542-34.98-24.435-60.719  c-6.994-22.804-11.821-45.322-13.592-63.405C187.772,110.476,188.817,102.075,189.907,98.245z M164.252,195.008  c3.625-11.821,7.059-24.915,9.742-37.934c2.684,13.019,6.117,26.113,9.742,37.934c9.82,32.021,25.855,70.781,42.658,89.519  c-22.735,7.282-41.489,22.694-52.298,42.522c-4.39-8.071-10.149-15.533-17.212-22.104c-10.101-9.398-22.133-16.315-35.242-20.471  C138.489,265.619,154.611,226.447,164.252,195.008z M174.068,438.209c0.703,3.26,1.448,6.575,2.229,9.929h-4.461  C172.619,444.784,173.364,441.469,174.068,438.209z M158.075,98.219c1.092,3.818,2.146,12.222,0.647,27.52  c-1.771,18.083-6.598,40.601-13.591,63.405c-7.426,24.215-15.889,44.511-23.738,59.458c3.763-21.651,5.81-48.472,5.81-76.699  c0-6.338-0.107-12.601-0.31-18.755C140.381,119.03,152.367,102.833,158.075,98.219z M83.304,96.76  c3.11-17.163,6.673-26.33,9.027-30.567c2.354,4.238,5.917,13.404,9.027,30.567c3.77,20.805,5.846,47.492,5.846,75.143  s-2.076,54.338-5.846,75.143c-3.11,17.163-6.673,26.33-9.027,30.567c-2.354-4.238-5.917-13.404-9.027-30.567  c-3.77-20.806-5.846-47.492-5.846-75.143S79.534,117.565,83.304,96.76z M25.47,125.739c-1.495-15.263-0.449-23.664,0.641-27.494  c5.761,4.753,18.128,21.56,31.618,56.004c-0.179,5.799-0.272,11.695-0.272,17.654c0,28.784,2.134,56.091,6.039,77.96  c-7.812-14.585-16.542-34.98-24.435-60.719C32.068,166.34,27.241,143.822,25.47,125.739z M32.889,448.138  c-1.088-4.518-2.107-8.991-3.06-13.388h26.135c5.523,0,10-4.477,10-10s-4.477-10-10-10H27.142c-0.431,0-0.853,0.036-1.269,0.089  c-3.802-21.043-5.758-38.734-5.757-48.677c0.001-7.972,1.542-15.619,4.359-22.703c0.578,0.104,1.17,0.167,1.778,0.167h43.931  c5.523,0,10-4.477,10-10s-4.477-10-10-10H36.977c13.174-14.434,32.894-23.641,54.917-23.697c0.146,0.004,0.29,0.015,0.437,0.015  c0.086,0,0.17-0.007,0.256-0.009c19.182,0.117,37.164,7.08,50.677,19.653c13.425,12.491,20.817,29.04,20.814,46.598  c0,3.754-0.281,8.614-0.834,14.34h-42.718c-5.523,0-10,4.477-10,10s4.477,10,10,10H160.7c-2.146,14.085-5.298,30.528-9.418,47.613  H32.889V448.138z M196.851,448.138c-1.088-4.518-2.107-8.991-3.06-13.388h26.135c5.523,0,10-4.477,10-10s-4.477-10-10-10h-28.823  c-0.431,0-0.853,0.036-1.269,0.089c-3.802-21.043-5.758-38.734-5.757-48.678c0.001-7.972,1.541-15.618,4.359-22.703  c0.578,0.104,1.171,0.167,1.779,0.167h43.931c5.523,0,10-4.477,10-10s-4.477-10-10-10h-33.208  c13.154-14.412,32.836-23.612,54.82-23.695c0.124,0.003,0.245,0.013,0.37,0.013c0.108,0,0.214-0.009,0.322-0.011  c19.219,0.094,37.24,7.061,50.776,19.655c13.425,12.491,20.817,29.04,20.814,46.597c-0.001,3.754-0.281,8.615-0.834,14.34h-42.718  c-5.523,0-10,4.477-10,10s4.477,10,10,10h40.174c-2.146,14.085-5.298,30.528-9.418,47.613H196.851V448.138z M360.812,448.138  c-1.088-4.518-2.107-8.991-3.06-13.388h26.135c5.523,0,10-4.477,10-10s-4.477-10-10-10h-28.823c-0.431,0-0.853,0.036-1.269,0.089  c-3.802-21.044-5.759-38.734-5.757-48.678c0.001-7.972,1.541-15.618,4.359-22.703c0.578,0.104,1.171,0.167,1.779,0.167h43.931  c5.523,0,10-4.477,10-10s-4.477-10-10-10h-33.208c13.174-14.434,32.894-23.641,54.917-23.697c0.146,0.004,0.29,0.015,0.437,0.015  c0.086,0,0.17-0.007,0.255-0.009c19.182,0.117,37.164,7.08,50.677,19.653c13.425,12.491,20.817,29.04,20.814,46.597  c-0.001,3.754-0.281,8.615-0.834,14.34h-42.718c-5.523,0-10,4.477-10,10s4.477,10,10,10h40.174  c-2.146,14.085-5.298,30.528-9.418,47.613H360.812V448.138z"/>
<g>
</g>
<g>
</g>
<g>
</g>
<g>
</g>
<g>
</g>
<g>
</g>
<g>
</g>
<g>
</g>
<g>
</g>
<g>
</g>
<g>
</g>
<g>
</g>
<g>
</g>
<g>
</g>
<g>
</g>
</svg>
