<?xml version="1.0" encoding="iso-8859-1"?>
<!-- Generator: Adobe Illustrator 19.0.0, SVG Export Plug-In . SVG Version: 6.00 Build 0)  -->
<svg xmlns="http://www.w3.org/2000/svg" xmlns:xlink="http://www.w3.org/1999/xlink" version="1.1" id="Capa_1" x="0px" y="0px" viewBox="0 0 512 512" style="enable-background:new 0 0 512 512;" xml:space="preserve">
<g>
	<rect x="10" y="10" style="fill:#ACD670;" width="318" height="492"/>
	<rect x="383.54" y="109.03" style="fill:#ACD670;" width="64.47" height="37.972"/>
</g>
<g>
	<polygon style="fill:#30995B;" points="446.5,147 383.5,147 328,184 328,502 502,502 502,184  "/>
	<rect x="10" y="448" style="fill:#30995B;" width="318" height="54"/>
	<rect x="10" y="9" style="fill:#30995B;" width="318" height="54"/>
</g>
<g>
	<path style="fill:#FFC943;" d="M168.4,270.971v-0.014c-0.128-0.09-27.874-22.787-27.614-50.552   c0.268-27.775,27.495-50.124,27.614-50.223v-0.007v0.011v-0.007v0.008c0.23,0.19,29.074,22.836,28.813,50.556   C196.954,248.577,168.4,270.971,168.4,270.971z"/>
	<path style="fill:#FFC943;" d="M182.029,331.489l0.01-0.01c-0.027-0.154-3.597-35.823,16.22-55.272   c19.829-19.45,54.884-16.001,55.039-15.987l0.005-0.005l-0.008,0.008l0.005-0.005l-0.006,0.006   c0.028,0.297,4.41,36.706-15.375,56.123C218.054,335.845,182.029,331.489,182.029,331.489z"/>
	<path style="fill:#FFC943;" d="M100.081,316.347c-19.785-19.417-15.403-55.826-15.375-56.123l-0.006-0.006l0.005,0.005   l-0.008-0.008l0.005,0.005c0.154-0.014,35.21-3.464,55.039,15.987c19.817,19.449,16.247,55.118,16.22,55.272l0.01,0.01   C155.971,331.489,119.946,335.845,100.081,316.347z"/>
	<path style="fill:#FFC943;" d="M415.751,396.656v-0.018c-0.164-0.115-35.565-29.074-35.233-64.5   c0.342-35.438,35.081-63.953,35.233-64.08v-0.009v0.014v-0.008v0.011c0.293,0.242,37.095,29.137,36.763,64.505   C452.183,368.083,415.751,396.656,415.751,396.656z"/>
</g>
<path d="M299.609,458c2.641,0,5.21-1.07,7.07-2.93c1.87-1.86,2.93-4.44,2.93-7.07s-1.06-5.21-2.93-7.07  c-1.86-1.86-4.43-2.93-7.07-2.93c-2.63,0-5.21,1.07-7.069,2.93c-1.86,1.86-2.931,4.44-2.931,7.07s1.07,5.21,2.931,7.07  C294.41,456.93,296.979,458,299.609,458z"/>
<path d="M36.68,74c2.63,0,5.21-1.07,7.07-2.93c1.859-1.86,2.93-4.44,2.93-7.07c0-2.63-1.07-5.21-2.93-7.07S39.31,54,36.68,54  s-5.21,1.07-7.07,2.93c-1.859,1.86-2.93,4.44-2.93,7.07c0,2.63,1.07,5.21,2.93,7.07C31.47,72.93,34.05,74,36.68,74z"/>
<path d="M161.241,277.953c0.792,0.813,1.729,1.497,2.784,2.01c1.39,0.676,2.885,1.008,4.374,1.008c2.196,0,4.377-0.724,6.172-2.131  c1.32-1.036,32.341-25.732,32.643-58.002c0.284-30.418-27.595-54.41-32.216-58.176c-1.761-1.546-4.069-2.483-6.598-2.483  c-2.498,0-4.782,0.917-6.534,2.432c-3.848,3.212-30.781,26.799-31.08,57.701C130.516,249.232,155.033,272.541,161.241,277.953z   M168.593,183.873c8.592,8.76,18.752,22.813,18.621,36.777c-0.142,15.227-11.339,29.131-18.699,36.638  c-7.767-8.315-17.863-22.428-17.729-36.787C150.933,205.289,161.526,191.435,168.593,183.873z"/>
<path d="M172.028,331.558c0.007,1.071,0.187,2.149,0.548,3.196c1.249,3.617,4.453,6.204,8.252,6.663  c0.49,0.059,4.246,0.488,9.894,0.488c13.542,0,37.948-2.469,54.201-18.421c21.707-21.303,18.958-58.019,18.357-63.92  c-0.14-2.137-0.964-4.245-2.488-5.97c-1.792-2.026-4.226-3.156-6.732-3.346c-4.881-0.444-40.699-2.861-62.806,18.822  C170.169,289.764,171.423,323.799,172.028,331.558z M205.262,283.346c10.852-10.645,28.116-12.955,38.462-13.308  c-0.074,10.643-1.973,28.537-12.81,39.172c-10.868,10.667-28.616,12.581-39.129,12.685  C192.175,310.521,195.015,293.403,205.262,283.346z"/>
<path d="M147.278,341.905c5.646,0,9.403-0.429,9.894-0.488c3.799-0.459,6.998-3.051,8.247-6.668  c0.351-1.016,0.529-2.063,0.546-3.104c0.603-7.587,1.946-41.803-19.221-62.577c-21.993-21.573-57.567-19.287-62.7-18.83  c-2.541,0.168-5.019,1.303-6.835,3.357c-1.494,1.69-2.314,3.75-2.477,5.844c-0.567,5.431-3.538,42.569,18.344,64.043  C109.331,339.438,133.737,341.905,147.278,341.905z M132.736,283.345c10.24,10.05,13.085,27.151,13.478,38.524  c-10.532-0.13-28.338-2.068-39.128-12.659c0,0,0,0-0.001,0c-10.838-10.636-12.735-28.53-12.809-39.173  C104.608,270.39,121.883,272.698,132.736,283.345z"/>
<path d="M507.547,175.68L458,142.648v-33.62c0-5.523-4.478-10-10-10h-64.465c-5.522,0-10,4.477-10,10v32.597L338,165.315V10  c0-5.523-4.478-10-10-10H10C4.478,0,0,4.477,0,10v492c0,5.523,4.478,10,10,10h492c5.522,0,10-4.477,10-10V184  C512,180.657,510.329,177.534,507.547,175.68z M393.535,119.028H438V137h-44.465V119.028z M318,54h-44.967V20H318V54z M209.775,54  V20h43.258v34H209.775z M146.517,54V20h43.259v34H146.517z M83.259,54V20h43.258v34H83.259z M63.259,20v34.275  c-4.414,1.039-7.704,4.993-7.704,9.725c0,5.523,4.478,10,10,10H318v110v308h-44.967v-34h0.704c5.522,0,10-4.477,10-10  s-4.478-10-10-10H20V20H63.259z M126.517,458v34H83.259v-34H126.517z M146.517,458h43.259v34h-43.259V458z M209.775,458h43.258v34  h-43.258V458z M20,458h43.259v34H20V458z M338,492V189.352L386.527,157h56.945L492,189.352V438h-87.938c-5.522,0-10,4.477-10,10  s4.478,10,10,10H492v34H338z"/>
<path d="M408.635,403.681c0.783,0.793,1.705,1.463,2.742,1.967c1.39,0.676,2.885,1.008,4.374,1.008c2.196,0,4.377-0.724,6.172-2.131  c1.643-1.288,40.219-31.999,40.592-71.861c0.354-37.663-34.564-67.572-40.137-72.103c-1.765-1.561-4.085-2.507-6.626-2.507  c-2.513,0-4.81,0.927-6.566,2.459c-3.291,2.766-38.296,33.089-38.667,71.531C370.178,368.471,401.591,397.632,408.635,403.681z   M415.92,281.626c9.662,9.376,26.8,29.096,26.595,50.851c-0.146,15.607-8.865,30.064-17.297,40.423v-40.548c0-5.523-4.478-10-10-10  s-10,4.477-10,10v38.357c-7.581-10.22-14.836-23.846-14.699-38.475C390.728,310.493,406.769,290.995,415.92,281.626z"/>
<path d="M374.632,438h-0.119c-5.522,0-10,4.477-10,10s4.478,10,10,10h0.119c5.522,0,10-4.477,10-10S380.154,438,374.632,438z"/>
<g>
</g>
<g>
</g>
<g>
</g>
<g>
</g>
<g>
</g>
<g>
</g>
<g>
</g>
<g>
</g>
<g>
</g>
<g>
</g>
<g>
</g>
<g>
</g>
<g>
</g>
<g>
</g>
<g>
</g>
</svg>
