<?xml version="1.0" encoding="iso-8859-1"?>
<!-- Generator: Adobe Illustrator 19.0.0, SVG Export Plug-In . SVG Version: 6.00 Build 0)  -->
<svg xmlns="http://www.w3.org/2000/svg" xmlns:xlink="http://www.w3.org/1999/xlink" version="1.1" id="Capa_1" x="0px" y="0px" viewBox="0 0 512.001 512.001" style="enable-background:new 0 0 512.001 512.001;" xml:space="preserve">
<g>
	<path style="fill:#ACD670;" d="M345.557,219.759c17.122,6.204,37.755,35.188,15.04,76.66   c-22.715,41.471-62.754,45.135-78.353,33.299c-15.599-11.837-14.919-31.855-6.637-40.632c10.572-11.205,20.262-6.658,29.147-20.137   c9.03-13.699-0.396-25.613,8.81-39.704C320.451,218.706,332.56,215.049,345.557,219.759z"/>
	<path style="fill:#ACD670;" d="M245.485,400.161c-13.935,11.726-49.352,15.102-73.91-25.304s-7.711-76.913,10.339-84.504   c18.05-7.591,35.046,3.007,38.507,14.568c4.418,14.759-4.365,20.876,2.866,35.311c7.348,14.67,22.38,12.464,29.98,27.481   C258.951,378.944,256.062,391.26,245.485,400.161z"/>
</g>
<path style="fill:#F9BD95;" d="M492.064,155.32l-96.178-78.299c-21.554-17.458-48.45-26.984-76.187-26.984H165.77  c-26.179,0-51.859,7.17-74.251,20.732L47.576,97.383H10.025V248.11H124.35c23.847,0,46.717-9.472,63.582-26.333l45.836-45.828  c5.963-5.963,14.052-9.314,22.486-9.314h85.241c5.622,0,11.015-2.234,14.99-6.209l0,0c11.563-11.563,8.186-29.323-3.493-37.305  l2.854-0.378l98.57,76.793c12.069,8.323,28.361,6.839,38.727-3.528l1-1C505.367,183.784,504.399,165.311,492.064,155.32z"/>
<path d="M226.595,465.526c-1.335,0-2.691-0.269-3.992-0.836c-11.095-4.838-22.749-11.923-38.88-21.728  c-9.277-5.64-19.793-12.032-32.414-19.339C98.494,393.045,31.305,405.46,14.094,413.18c-5.04,2.261-10.956,0.008-13.216-5.031  c-2.26-5.038-0.008-10.956,5.03-13.216c26.674-11.965,99.647-20.909,155.421,11.383c12.806,7.414,23.419,13.866,32.782,19.557  c15.459,9.398,26.629,16.188,36.485,20.486c5.062,2.208,7.376,8.1,5.168,13.163C234.125,463.282,230.452,465.526,226.595,465.526z"/>
<path d="M256.023,471.963h-0.047c-5.522,0-9.999-4.477-9.999-9.999c0-5.522,4.477-9.999,9.999-9.999  c5.522,0,10.022,4.477,10.022,9.999C265.998,467.487,261.546,471.963,256.023,471.963z"/>
<path d="M285.629,465.428c-3.849,0-7.517-2.234-9.162-5.984c-2.219-5.057,0.082-10.955,5.139-13.174  c9.808-4.304,20.914-11.055,36.286-20.399c9.362-5.691,19.974-12.142,32.778-19.555c55.774-32.291,128.747-23.348,155.421-11.383  c5.039,2.26,7.291,8.177,5.031,13.216c-2.259,5.039-8.174,7.291-13.216,5.031c-17.21-7.72-84.402-20.135-137.216,10.443  c-12.619,7.306-23.134,13.698-32.41,19.337c-16.031,9.745-27.614,16.786-38.639,21.623  C288.334,465.156,286.97,465.428,285.629,465.428z"/>
<path d="M302.712,345.588c-10.283,0-19.688-2.729-26.509-7.904c-9.516-7.22-15.282-17.538-16.236-29.054  c-0.836-10.094,2.292-19.965,8.369-26.406c6.354-6.734,12.553-9.182,17.533-11.148c4.803-1.896,7.447-2.941,10.539-7.63  c2.676-4.06,2.765-7.773,2.69-13.988c-0.086-7.153-0.192-16.055,6.097-25.682c9.395-14.382,26.575-19.648,43.77-13.417l0,0  c11.965,4.336,22.635,15.6,27.844,29.399c4.881,12.93,7.554,34.09-7.44,61.465c-17.003,31.046-40.928,40.246-53.676,42.968  C311.298,345.128,306.93,345.587,302.712,345.588z M334.686,227.746c-5.293,0-9.753,2.38-12.75,6.967  c-2.962,4.533-2.912,8.715-2.842,14.505c0.084,7.065,0.19,15.859-5.99,25.233c-6.568,9.964-13.956,12.881-19.891,15.224  c-4.084,1.613-7.035,2.778-10.332,6.272c-1.654,1.752-3.428,5.692-2.985,11.031c0.278,3.35,1.737,9.723,8.395,14.773  c3.719,2.822,12.032,5.27,23.228,2.88c9.4-2.007,27.137-8.964,40.311-33.017c11.343-20.709,9.67-35.789,6.27-44.794  c-3.836-10.16-10.989-15.863-15.948-17.661l0,0C339.536,228.212,337.029,227.746,334.686,227.746z"/>
<path d="M221.466,417.951c-2.964,0-5.954-0.237-8.924-0.725c-13.639-2.237-33.3-10.502-49.511-37.175  c-18.385-30.249-14.391-55.569-10.373-67.969c4.762-14.697,14.249-26.265,25.38-30.946c11.011-4.63,22.831-4.465,33.279,0.467  c9.16,4.323,16.144,11.968,18.683,20.451c2.655,8.87,1.676,15.461,0.888,20.758c-0.759,5.106-1.177,7.92,1.339,12.943  c2.178,4.348,5.349,6.28,10.769,9.323c6.237,3.502,14.001,7.861,19.192,18.121c7.756,15.327,3.728,32.84-10.266,44.614l-6.437-7.65  l6.437,7.65C244.172,414.334,233.03,417.951,221.466,417.951z M194.27,297.798c-2.515,0-5.378,0.468-8.478,1.771  c-4.304,1.811-10.581,7.787-14.109,18.675c-2.963,9.144-5.805,27.984,8.437,51.419c12.264,20.177,26.16,26.269,35.658,27.828  c10.718,1.758,19.233-1.585,23.27-4.98l0,0c6.936-5.836,8.867-13.23,5.298-20.284c-2.445-4.832-6.092-6.878-11.141-9.713  c-6.161-3.46-13.83-7.765-18.858-17.804c-5.344-10.67-4.178-18.526-3.24-24.839c0.646-4.344,1.112-7.481-0.266-12.084  c-0.691-2.309-3.216-5.814-8.06-8.1C200.967,298.83,198.004,297.798,194.27,297.798z"/>
<path d="M124.35,258.109H10.025c-5.522,0-9.999-4.477-9.999-9.999V97.383c0-5.522,4.477-9.999,9.999-9.999h34.76L86.34,62.217  c23.957-14.51,51.424-22.179,79.432-22.179H319.7c29.931,0,59.223,10.375,82.481,29.213l96.198,78.314  c8.058,6.526,13.003,16.232,13.547,26.613c0.543,10.381-3.361,20.55-10.711,27.9l-0.998,0.999  c-13.784,13.783-35.431,15.755-51.476,4.691c-0.159-0.11-0.315-0.225-0.469-0.344l-75.042-58.464  c-1.141,6.832-4.42,13.282-9.673,18.535c-5.891,5.892-13.727,9.138-22.061,9.138h-85.241c-5.823,0-11.298,2.268-15.415,6.385  l-45.837,45.829C176.128,247.718,151.037,258.109,124.35,258.109z M20.024,238.111H124.35c21.347,0,41.416-8.312,56.512-23.405  l45.836-45.828c7.893-7.894,18.39-12.242,29.555-12.242h85.241c2.992,0,5.804-1.165,7.919-3.281  c4.225-4.225,5.382-10.042,3.096-15.561c-2.287-5.52-7.218-8.815-13.193-8.815H217.968c-7.441,0-14.672,2.145-20.909,6.201  l-34.184,22.232c-4.64,2.996-10.829,1.664-13.824-2.977c-2.996-4.64-1.663-10.829,2.977-13.824l0.124-0.08l34.003-22.116  c9.49-6.172,20.491-9.436,31.812-9.436h121.349c5.725,0,11.123,1.332,15.878,3.785c2.363-0.151,4.783,0.523,6.794,2.09  l98.317,76.596c8.076,5.421,18.871,4.382,25.765-2.514l0.998-0.999c3.401-3.401,5.133-7.916,4.882-12.716  c-0.251-4.8-2.447-9.109-6.182-12.135l-96.198-78.315c-19.689-15.947-44.511-24.739-69.874-24.739H165.77  c-24.355,0-48.24,6.668-69.072,19.286l-43.942,26.613c-1.563,0.946-3.354,1.446-5.18,1.446H20.024V238.111z"/>
<g>
</g>
<g>
</g>
<g>
</g>
<g>
</g>
<g>
</g>
<g>
</g>
<g>
</g>
<g>
</g>
<g>
</g>
<g>
</g>
<g>
</g>
<g>
</g>
<g>
</g>
<g>
</g>
<g>
</g>
</svg>
