<?xml version="1.0" encoding="iso-8859-1"?>
<!-- Generator: Adobe Illustrator 19.0.0, SVG Export Plug-In . SVG Version: 6.00 Build 0)  -->
<svg xmlns="http://www.w3.org/2000/svg" xmlns:xlink="http://www.w3.org/1999/xlink" version="1.1" id="Capa_1" x="0px" y="0px" viewBox="0 0 512 512" style="enable-background:new 0 0 512 512;" xml:space="preserve">
<rect x="10" y="259.75" style="fill:#30995B;" width="54" height="180"/>
<path style="fill:#F9BD95;" d="M494.067,320.596c-9.78-9.78-25.15-11.18-36.536-3.328l-88.21,74.793  c8.043-8.204,8.453-24.767-0.984-34.204l0,0c-3.75-3.751-8.838-5.858-14.142-5.858h-93.326c-7.957,0-15.587-3.161-21.213-8.787  l-53.184-53.433c-9.377-9.377-22.095-14.645-35.355-14.645H64v142.198l41.456,25.108c21.125,12.795,45.352,19.56,70.05,19.56  h158.126c26.168,0,51.542-8.987,71.876-25.457l86.962-76.169C504.513,350.123,505.249,331.779,494.067,320.596z"/>
<path style="fill:#30995B;" d="M194.074,296.114c25.765-15.958,56.145-25.171,88.676-25.171c58.178,0,109.471,29.462,139.804,74.281  L378.985,387.1c0,0,0.014-37.093-45.986-37.093s-83.024,0-83.024,0L194.074,296.114z"/>
<g>
	<path style="fill:#ACD670;" d="M232.627,86.33c54.174,18.084,50.27,95.254,50.27,96.271l0.01,0.011l0.005,0.006l0,0l-0.008-0.01   c-0.271,0.007-63.963,2.012-96.303-34.147c-32.32-36.156-22.183-98.177-22.119-98.442L164.465,50   C164.465,50,181.849,69.38,232.627,86.33z"/>
	<path style="fill:#ACD670;" d="M401.386,50l-0.016,0.018c0.065,0.266,10.201,62.286-22.119,98.442   c-32.34,36.159-96.032,34.155-96.303,34.147l-0.008,0.01l0,0l0.005-0.006l0.01-0.011c0-1.017-3.904-78.187,50.27-96.271   C384.002,69.38,401.386,50,401.386,50z"/>
</g>
<path d="M64,339.879c-5.522,0-10,4.477-10,10v0.129c0,5.523,4.478,10,10,10s10-4.477,10-10v-0.129  C74,344.356,69.522,339.879,64,339.879z"/>
<path d="M501.138,313.526c-13.194-13.197-33.922-15.082-49.284-4.49c-0.272,0.188-0.536,0.391-0.789,0.605l-25.961,22.012  c-31.695-41.744-79.935-67.439-132.166-70.409v-68.842c20.509-1.068,66.628-6.931,93.769-37.277  c32.227-36.051,26.236-94.229,24.67-105.56c-0.112-2.595-1.23-5.144-3.317-7.014c-4.11-3.683-10.43-3.339-14.117,0.771  c-0.156,0.174-16.93,17.849-63.884,33.522c-21.397,7.142-37.504,23.28-47.132,47.005c-9.628-23.725-25.735-39.862-47.132-47.005  c-46.947-15.671-63.775-33.407-63.884-33.522c-3.687-4.11-9.998-4.445-14.108-0.762c-2.043,1.83-3.155,4.314-3.306,6.854  c-1.532,10.954-7.723,69.496,24.65,105.712c27.154,30.361,73.306,36.213,93.792,37.277v68.833  c-27.487,1.502-54.18,9.283-78.07,22.802l-1.324-1.33c-11.333-11.332-26.4-17.573-42.427-17.573H74v-5.385c0-5.523-4.478-10-10-10  H10c-5.522,0-10,4.477-10,10v180c0,5.523,4.478,10,10,10h54c5.522,0,10-4.477,10-10v-4.669l26.275,15.913  C122.964,464.736,148.979,472,175.506,472h158.126c28.366,0,56.128-9.833,78.17-27.687c0.1-0.081,0.198-0.164,0.295-0.248  l86.916-76.128c7.823-6.688,12.544-16.415,12.957-26.701C512.384,330.923,508.436,320.823,501.138,313.526z M336.39,95.816  c27.001-9.013,45.147-18.839,56.529-26.395c0.448,19.604-2.229,51.238-21.122,72.373c-21.668,24.228-60.564,29.453-78.731,30.548  C294.06,151.99,300.43,107.819,336.39,95.816z M194.055,141.796c-18.893-21.136-21.571-52.771-21.123-72.375  c11.382,7.556,29.528,17.382,56.529,26.395c35.96,12.004,42.33,56.175,43.324,76.527  C254.636,171.249,215.728,166.028,194.055,141.796z M282.75,280.943c50.185,0,97.122,23.67,127.071,63.667l-25.651,21.75  c-1.539-5.874-4.507-11.318-8.763-15.574c-5.667-5.666-13.2-8.787-21.213-8.787h-93.326c-5.342,0-10.364-2.08-14.125-5.841  l-37.174-37.349C232.071,287.097,257.138,280.943,282.75,280.943z M485.989,352.758c-0.036,0.03-0.072,0.061-0.107,0.092  l-86.814,76.039C380.599,443.794,357.368,452,333.632,452H175.506c-22.874,0-45.306-6.263-64.869-18.113L74,411.698v-28.09  c0-5.523-4.478-10-10-10s-10,4.477-10,10v46.141H20v-160h34v44.395c0,5.523,4.478,10,10,10s10-4.477,10-10v-29.01h77.116  c10.685,0,20.729,4.161,28.268,11.699l53.2,53.45c7.555,7.555,17.6,11.715,28.284,11.715h93.326c2.671,0,5.182,1.04,7.07,2.929  c4.585,4.584,4.955,12.137,2.976,16.916c-0.506,1.223-1.09,2.146-1.699,2.854c0,0-2.05,2.259-5.009,2.259H224.75  c-6.91,0-13.624-1.992-19.417-5.759l-32.217-20.954c-4.627-3.015-10.822-1.706-13.837,2.922c-3.014,4.628-1.705,10.823,2.923,13.837  l32.227,20.96c9.046,5.884,19.531,8.994,30.321,8.994h132.782c7.275,0,13.775-2.747,18.691-7.639l87.355-74.067  c7.374-4.834,17.154-3.848,23.417,2.416c3.412,3.411,5.185,7.945,4.99,12.766C491.792,345.255,489.663,349.631,485.989,352.758z"/>
<g>
</g>
<g>
</g>
<g>
</g>
<g>
</g>
<g>
</g>
<g>
</g>
<g>
</g>
<g>
</g>
<g>
</g>
<g>
</g>
<g>
</g>
<g>
</g>
<g>
</g>
<g>
</g>
<g>
</g>
</svg>
