<?xml version="1.0" encoding="iso-8859-1"?>
<!-- Generator: Adobe Illustrator 19.0.0, SVG Export Plug-In . SVG Version: 6.00 Build 0)  -->
<svg xmlns="http://www.w3.org/2000/svg" xmlns:xlink="http://www.w3.org/1999/xlink" version="1.1" id="Capa_1" x="0px" y="0px" viewBox="0 0 512 512" style="enable-background:new 0 0 512 512;" xml:space="preserve">
<path style="fill:#72C6CC;" d="M439.502,309.275V47.506c0-20.71-16.789-37.499-37.499-37.499l0,0  c-20.71,0-37.499,16.789-37.499,37.499v261.769c-36.645,14.836-62.498,50.757-62.498,92.721c0,55.226,44.771,99.997,99.997,99.997  S502,457.223,502,401.996C502,360.031,476.147,324.11,439.502,309.275z"/>
<circle style="fill:#FFC943;" cx="155.996" cy="256.003" r="65.998"/>
<circle style="fill:#EF7159;" cx="401.999" cy="405.089" r="55.998"/>
<path d="M195.69,295.513l-0.125,0.124c-3.921,3.89-3.945,10.221-0.056,14.142c1.955,1.97,4.526,2.957,7.099,2.957  c2.546,0,5.094-0.966,7.043-2.901l0.125-0.124c3.921-3.89,3.945-10.221,0.056-14.142  C205.941,291.649,199.609,291.623,195.69,295.513z"/>
<path d="M172.213,309.611c-19.813,5.973-41.2,0.606-55.812-14.007c-21.835-21.835-21.835-57.364,0-79.199  c21.835-21.835,57.363-21.835,79.199,0c15.077,15.077,20.265,37.028,13.54,57.287c-1.739,5.242,1.1,10.901,6.341,12.641  c5.241,1.74,10.901-1.099,12.642-6.34c9.123-27.486,2.08-57.27-18.38-77.73c-29.634-29.633-77.85-29.633-107.483,0  c-29.632,29.633-29.632,77.849,0,107.482c14.478,14.478,33.847,22.268,53.71,22.267c7.345,0,14.762-1.066,22.017-3.254  c5.288-1.594,8.282-7.172,6.688-12.46C183.079,311.01,177.498,308.018,172.213,309.611z"/>
<path d="M155.996,170.875c5.522,0,10-4.477,10-10v-50.873c0-5.523-4.478-10-10-10s-10,4.477-10,10v50.873  C145.996,166.398,150.474,170.875,155.996,170.875z"/>
<path d="M155.996,341.124c-5.522,0-10,4.477-10,10v50.873c0,5.523,4.478,10,10,10s10-4.477,10-10v-50.873  C165.995,345.601,161.518,341.124,155.996,341.124z"/>
<path d="M241.12,256c0,5.523,4.478,10,10,10h50.872c5.522,0,10-4.477,10-10s-4.478-10-10-10H251.12  C245.597,246,241.12,250.477,241.12,256z"/>
<path d="M70.872,256c0-5.523-4.478-10-10-10H10c-5.522,0-10,4.477-10,10c0,5.523,4.478,10,10,10h50.873  C66.394,266,70.872,261.523,70.872,256z"/>
<path d="M223.259,198.737c2.559,0,5.118-0.977,7.071-2.929l35.973-35.972c3.905-3.905,3.905-10.237,0-14.142  c-3.905-3.905-10.235-3.905-14.143,0l-35.973,35.972c-3.905,3.905-3.905,10.237,0,14.142  C218.14,197.761,220.699,198.737,223.259,198.737z"/>
<path d="M81.662,316.192L45.69,352.164c-3.905,3.905-3.905,10.237,0,14.142c1.953,1.953,4.512,2.929,7.071,2.929  c2.559,0,5.118-0.977,7.071-2.929l35.972-35.972c3.905-3.905,3.905-10.237,0-14.142C91.897,312.287,85.568,312.287,81.662,316.192z"/>
<path d="M230.33,316.191c-3.906-3.905-10.236-3.905-14.143,0c-3.905,3.905-3.905,10.237,0,14.142l35.973,35.972  c1.953,1.953,4.512,2.929,7.071,2.929s5.118-0.977,7.071-2.929c3.905-3.905,3.905-10.237,0-14.142L230.33,316.191z"/>
<path d="M81.662,195.808c1.953,1.953,4.512,2.929,7.071,2.929c2.559,0,5.118-0.977,7.071-2.929c3.905-3.905,3.905-10.237,0-14.142  l-35.972-35.972c-3.905-3.905-10.235-3.905-14.143,0c-3.905,3.905-3.905,10.237,0,14.142L81.662,195.808z"/>
<path d="M448.671,358.418c-10.076-10.076-22.836-16.488-36.668-18.578v-27.113h4.334c5.522,0,10-4.477,10-10c0-5.523-4.478-10-10-10  h-4.334v-26.945h4.334c5.522,0,10-4.477,10-10c0-5.523-4.478-10-10-10h-4.334v-26.945h4.334c5.522,0,10-4.477,10-10s-4.478-10-10-10  h-4.334v-26.945h4.334c5.522,0,10-4.477,10-10s-4.478-10-10-10h-4.334v-26.945h4.365c5.522,0,10-4.477,10-10s-4.478-10-10-10h-4.365  V78.005h4.334c5.522,0,10-4.477,10-10s-4.478-10-10-10h-4.696c-1.157-4.244-5.028-7.368-9.638-7.368c-5.522,0-10,4.477-10,10  v279.204c-13.832,2.09-26.592,8.502-36.668,18.578c-14.597,14.598-21.44,34.722-18.777,55.214c0.712,5.478,5.726,9.343,11.206,8.627  c5.477-0.712,9.339-5.729,8.628-11.206c-1.857-14.29,2.912-28.32,13.087-38.495c8.688-8.688,20.238-13.473,32.525-13.473  s23.838,4.785,32.525,13.473c8.688,8.688,13.474,20.239,13.474,32.526s-4.785,23.837-13.474,32.526  c-10.427,10.427-24.787,15.154-39.391,12.961c-5.464-0.815-10.553,2.945-11.372,8.407c-0.818,5.461,2.945,10.553,8.407,11.372  c3.236,0.485,6.48,0.723,9.714,0.723c17.389,0,34.355-6.893,46.784-19.32c12.466-12.466,19.33-29.039,19.33-46.668  S461.135,370.884,448.671,358.418z"/>
<path d="M369.38,437.516c-3.896-3.914-10.228-3.927-14.142-0.031c-3.914,3.897-3.928,10.229-0.03,14.142l0.112,0.113  c1.954,1.962,4.52,2.944,7.086,2.944c2.552,0,5.104-0.971,7.056-2.914c3.914-3.897,3.928-10.229,0.03-14.142L369.38,437.516z"/>
<path d="M449.502,302.759V47.506c0-26.19-21.308-47.499-47.499-47.499c-26.19,0-47.499,21.308-47.499,47.499v255.253  c-38.187,18.233-62.498,56.474-62.498,99.237c0,60.652,49.345,109.997,109.997,109.997S512,462.648,512,401.996  C512,359.233,487.688,320.991,449.502,302.759z M402.003,491.994c-49.625,0-89.998-40.373-89.998-89.998  c0-36.862,22.079-69.619,56.251-83.453c3.775-1.528,6.247-5.195,6.247-9.269V47.506c0-15.164,12.337-27.499,27.499-27.499  c15.163,0,27.499,12.336,27.499,27.499v261.769c0,4.074,2.472,7.741,6.247,9.269c34.172,13.834,56.251,46.591,56.251,83.453  C492.001,451.621,451.628,491.994,402.003,491.994z"/>
<g>
</g>
<g>
</g>
<g>
</g>
<g>
</g>
<g>
</g>
<g>
</g>
<g>
</g>
<g>
</g>
<g>
</g>
<g>
</g>
<g>
</g>
<g>
</g>
<g>
</g>
<g>
</g>
<g>
</g>
</svg>
