<?xml version="1.0" encoding="iso-8859-1"?>
<!-- Generator: Adobe Illustrator 19.0.0, SVG Export Plug-In . SVG Version: 6.00 Build 0)  -->
<svg xmlns="http://www.w3.org/2000/svg" xmlns:xlink="http://www.w3.org/1999/xlink" version="1.1" id="Capa_1" x="0px" y="0px" viewBox="0 0 512 512" style="enable-background:new 0 0 512 512;" xml:space="preserve">
<polygon style="fill:#DFDCE5;" points="173.955,173 91.977,91.022 9.999,173 9.999,474.971 173.955,474.971 "/>
<polygon style="fill:#A766B2;" points="9.999,173 9.999,175.011 173.955,175.011 173.955,173 91.977,91.022 "/>
<polygon style="fill:#DFDCE5;" points="337.933,173 255.955,91.022 173.977,173 173.977,474.971 337.933,474.971 "/>
<polygon style="fill:#A766B2;" points="173.977,173 173.977,175.011 337.933,175.011 337.933,173 255.955,91.022 "/>
<polygon style="fill:#DFDCE5;" points="501.911,173 419.933,91.022 337.955,173 337.955,474.971 501.911,474.971 "/>
<polygon style="fill:#A766B2;" points="337.955,173 337.955,175.011 501.911,175.011 501.911,173 419.933,91.022 "/>
<path d="M256.181,47.029h0.13c5.521,0,9.999-4.476,9.999-9.999s-4.477-9.999-9.999-9.999h-0.13c-5.521,0-9.999,4.476-9.999,9.999  S250.659,47.029,256.181,47.029z"/>
<path d="M290.253,47.028h37.725v43.994c0,5.522,4.477,9.999,9.999,9.999s9.999-4.476,9.999-9.999V47.028h144.026v43.994  c0,5.522,4.477,9.999,9.999,9.999s9.999-4.476,9.999-9.999V37.029c0-5.522-4.477-9.999-9.999-9.999  c-0.011,0-0.022,0.002-0.034,0.002s-0.022-0.002-0.034-0.002H290.253c-5.521,0-9.999,4.476-9.999,9.999  S284.732,47.028,290.253,47.028z"/>
<path d="M173.956,113.371c-5.521,0-9.999,4.476-9.999,9.999v0.131c0,5.522,4.477,9.999,9.999,9.999s9.999-4.476,9.999-9.999v-0.131  C183.955,117.847,179.477,113.371,173.956,113.371z"/>
<path d="M10,113.371c-5.521,0-9.999,4.476-9.999,9.999v0.131c0,5.522,4.477,9.999,9.999,9.999s9.999-4.476,9.999-9.999v-0.131  C19.998,117.847,15.521,113.371,10,113.371z"/>
<path d="M9.999,101.021c5.521,0,9.999-4.476,9.999-9.999V47.028h143.959v43.994c0,5.522,4.477,9.999,9.999,9.999  s9.999-4.476,9.999-9.999V47.028h37.704c5.521,0,9.999-4.476,9.999-9.999s-4.477-9.999-9.999-9.999h-47.693c-0.003,0-0.007,0-0.01,0  s-0.006,0-0.01,0H10.009c-0.003,0-0.007,0-0.01,0C4.477,27.03,0,31.507,0,37.029v53.993C0,96.544,4.477,101.021,9.999,101.021z"/>
<path d="M136.092,185.009h0.132c5.521,0,9.999-4.476,9.999-9.999s-4.477-9.999-9.999-9.999h-0.132c-5.521,0-9.999,4.476-9.999,9.999  S130.571,185.009,136.092,185.009z"/>
<path d="M511.932,414.209V173c0-2.652-1.054-5.195-2.929-7.07l-81.977-81.978c-1.876-1.875-4.418-2.929-7.07-2.929  c-2.652,0-5.194,1.054-7.07,2.929l-74.931,74.93l-74.929-74.93c-1.876-1.875-4.418-2.929-7.07-2.929  c-2.652,0-5.194,1.054-7.07,2.929l-74.919,74.919L99.048,83.952c-1.876-1.875-4.418-2.929-7.07-2.929s-5.194,1.054-7.07,2.929  L2.929,165.93C1.054,167.805,0,170.348,0,173v301.971c0,5.522,4.477,9.999,9.999,9.999h163.956c0.004,0,0.007,0,0.011,0  s0.007,0,0.011,0h163.956c0.008,0,0.015-0.001,0.022-0.001s0.015,0.001,0.022,0.001h163.956c5.521,0,9.999-4.476,9.999-9.999  v-58.983c0.026-0.294,0.045-0.589,0.045-0.89C511.977,414.797,511.958,414.503,511.932,414.209z M19.997,464.972V185.009h83.748  c5.521,0,9.999-4.476,9.999-9.999s-4.477-9.999-9.999-9.999H32.127l59.85-59.85l71.978,71.979V405.1h-48.97  c-5.521,0-9.999,4.476-9.999,9.999s4.477,9.999,9.999,9.999h48.971v39.875H19.997z M183.976,464.972V185.009h83.748  c5.521,0,9.999-4.476,9.999-9.999s-4.477-9.999-9.999-9.999h-71.618l59.85-59.85l71.978,71.979V405.1h-48.948  c-5.521,0-9.999,4.476-9.999,9.999s4.477,9.999,9.999,9.999h48.949v39.875H183.976z M347.976,464.972V185.009H431.7  c5.521,0,9.999-4.476,9.999-9.999s-4.477-9.999-9.999-9.999h-71.594l59.85-59.85l71.979,71.979V405.1h-48.949  c-5.521,0-9.999,4.476-9.999,9.999s4.477,9.999,9.999,9.999h48.949v39.875H347.976z"/>
<path d="M300.07,185.009h0.131c5.521,0,9.999-4.476,9.999-9.999s-4.477-9.999-9.999-9.999h-0.131c-5.521,0-9.999,4.476-9.999,9.999  S294.549,185.009,300.07,185.009z"/>
<path d="M464.047,185.009h0.131c5.521,0,9.999-4.476,9.999-9.999s-4.477-9.999-9.999-9.999h-0.131c-5.521,0-9.999,4.476-9.999,9.999  S458.526,185.009,464.047,185.009z"/>
<path d="M337.978,113.371c-5.521,0-9.999,4.476-9.999,9.999v0.131c0,5.522,4.477,9.999,9.999,9.999s9.999-4.476,9.999-9.999v-0.131  C347.977,117.847,343.5,113.371,337.978,113.371z"/>
<path d="M502.001,113.371c-5.521,0-9.999,4.476-9.999,9.999v0.131c0,5.522,4.477,9.999,9.999,9.999s9.999-4.476,9.999-9.999v-0.131  C512,117.847,507.524,113.371,502.001,113.371z"/>
<g>
</g>
<g>
</g>
<g>
</g>
<g>
</g>
<g>
</g>
<g>
</g>
<g>
</g>
<g>
</g>
<g>
</g>
<g>
</g>
<g>
</g>
<g>
</g>
<g>
</g>
<g>
</g>
<g>
</g>
</svg>
