<?xml version="1.0" encoding="iso-8859-1"?>
<!-- Generator: Adobe Illustrator 19.0.0, SVG Export Plug-In . SVG Version: 6.00 Build 0)  -->
<svg xmlns="http://www.w3.org/2000/svg" xmlns:xlink="http://www.w3.org/1999/xlink" version="1.1" id="Capa_1" x="0px" y="0px" viewBox="0 0 512 512" style="enable-background:new 0 0 512 512;" xml:space="preserve">
<path style="fill:#EF7159;" d="M326.001,103c0,19.33,15.67,35,35,35s35-15.67,35-35H326.001z"/>
<g>
	<path style="fill:#FFC943;" d="M396.002,103c0,19.33,15.67,35,35,35s35-15.67,35-35H396.002z"/>
	<path style="fill:#FFC943;" d="M256,103c0,19.33,15.67,35,35,35s35-15.67,35-35H256z"/>
</g>
<path style="fill:#EF7159;" d="M185.999,103c0,19.33,15.67,35,35,35c19.33,0,35-15.67,35-35H185.999z"/>
<path style="fill:#FFC943;" d="M115.998,103c0,19.33,15.67,35,35,35c19.33,0,35-15.67,35-35H115.998z"/>
<path style="fill:#EF7159;" d="M115.998,103c0,19.33-15.67,35-35,35s-35-15.67-35-35H115.998z"/>
<polygon style="fill:#ACD670;" points="45.997,103 79.876,10 432.124,10 466.003,103 "/>
<g>
	<path style="fill:#EF7159;" d="M140,218L140,218c-11.046,0-20,8.954-20,20v28h40v-28C160,226.954,151.046,218,140,218z"/>
	<path style="fill:#EF7159;" d="M180,218L180,218c-11.046,0-20,8.954-20,20v28h40v-28C200,226.954,191.046,218,180,218z"/>
	<path style="fill:#EF7159;" d="M220,218L220,218c-11.046,0-20,8.954-20,20v28h40v-28C240,226.954,231.046,218,220,218z"/>
</g>
<rect x="104" y="266" style="fill:#A766B2;" width="152" height="64"/>
<g>
	<circle style="fill:#ACD670;" cx="305.01" cy="306" r="24"/>
	<circle style="fill:#ACD670;" cx="353.01" cy="306" r="24"/>
</g>
<g>
	<circle style="fill:#30995B;" cx="329.01" cy="264.42" r="24"/>
	<circle style="fill:#30995B;" cx="377.01" cy="264.42" r="24"/>
</g>
<circle style="fill:#ACD670;" cx="401.01" cy="306" r="24"/>
<rect x="64" y="330" style="fill:#DFDCE5;" width="384" height="172"/>
<circle style="fill:#ACD670;" cx="217.1" cy="443.06" r="32"/>
<path style="fill:#A766B2;" d="M277.736,396.759c-5.251-10.496-16.102-17.702-28.636-17.702c-17.673,0-32,14.327-32,32  c0,0,24.271,2.105,35.086,29.274C262.25,414.25,277.736,396.759,277.736,396.759z"/>
<path style="fill:#EF7159;" d="M330.579,437.347c12.105-12.105,11.344-32.492-1.699-45.535s-33.43-13.804-45.535-1.699  s-47.665,69.641-35.037,82.27C260.938,485.012,318.475,449.452,330.579,437.347z"/>
<path d="M475.993,103.385c0.001-0.129,0.01-0.256,0.01-0.385c-0.003,0-0.006,0-0.009,0.001c0-1.138-0.183-2.293-0.595-3.424  l-33.879-93C440.081,2.628,436.327,0,432.124,0H79.876c-4.203,0-7.958,2.628-9.396,6.577l-33.879,93  c-0.412,1.13-0.595,2.284-0.595,3.421c-0.003,0.001-0.006,0.001-0.009,0.002c0,0.129,0.009,0.256,0.01,0.385  c0.002,0.052,0.001,0.104,0.004,0.156C36.303,128.105,56.365,148,80.998,148c14.125,0,26.744-6.547,35-16.76  c8.256,10.213,20.875,16.76,35,16.76s26.744-6.547,35-16.76c8.256,10.213,20.875,16.76,35,16.76s26.744-6.547,35-16.76  c8.256,10.213,20.875,16.76,35,16.76s26.744-6.547,35-16.76c8.256,10.213,20.875,16.76,35,16.76s26.744-6.547,35-16.76  c8.256,10.213,20.875,16.76,35,16.76c24.632,0,44.694-19.895,44.987-44.459C475.992,103.489,475.991,103.437,475.993,103.385z   M451.725,93.021h-45.723V20h19.122L451.725,93.021z M125.998,20h50.001v73.021h-50.001C125.998,93.021,125.998,20,125.998,20z   M195.999,20H246v73.021h-50.001V20z M266,20h50.001v73.021H266V20z M336.001,20h50.001v73.021h-50.001V20z M86.876,20h19.122  v73.021H60.275L86.876,20z M80.998,128c-10.222,0-19.027-6.17-22.897-14.979h45.794C100.024,121.83,91.22,128,80.998,128z   M150.999,128c-10.222,0-19.027-6.17-22.897-14.979h45.794C170.025,121.83,161.221,128,150.999,128z M221,128  c-10.222,0-19.027-6.17-22.897-14.979h45.794C240.026,121.83,231.222,128,221,128z M291,128c-10.222,0-19.027-6.17-22.897-14.979  h45.794C310.027,121.83,301.223,128,291,128z M361.001,128c-10.222,0-19.027-6.17-22.897-14.979h45.794  C380.028,121.83,371.224,128,361.001,128z M431.002,128c-10.222,0-19.027-6.17-22.897-14.979H453.9  C450.029,121.83,441.225,128,431.002,128z"/>
<path d="M221.965,288h-0.131c-5.523,0-10,4.477-10,10s4.477,10,10,10h0.131c5.523,0,10-4.477,10-10S227.488,288,221.965,288z"/>
<path d="M64,183.272c5.523,0,10-4.477,10-10v-0.131c0-5.523-4.477-10-10-10s-10,4.477-10,10v0.131  C54,178.795,58.477,183.272,64,183.272z"/>
<path d="M448,183.272c5.523,0,10-4.477,10-10v-0.131c0-5.523-4.477-10-10-10s-10,4.477-10,10v0.131  C438,178.795,442.477,183.272,448,183.272z"/>
<path d="M448,195.624c-5.523,0-10,4.477-10,10V320h-6.018c1.939-4.273,3.029-9.01,3.029-14c0-15.686-10.68-28.918-25.149-32.824  c0.746-2.796,1.149-5.729,1.149-8.757c0-18.748-15.252-34-34-34c-9.359,0-17.846,3.802-24,9.941c-6.154-6.139-14.641-9.941-24-9.941  c-18.748,0-34,15.252-34,34c0,3.027,0.403,5.961,1.149,8.757c-14.469,3.906-25.149,17.138-25.149,32.824  c0,4.99,1.089,9.727,3.029,14H266v-54c0-5.523-4.477-10-10-10h-6v-18c0-10.37-5.29-19.526-13.311-24.916  c0.213-0.019,0.427-0.03,0.644-0.03l0,0c5.522,0,10-4.477,10-10s-4.477-10-10-10c-0.001,0,0,0,0,0  c-10.848,0-20.507,6.475-24.942,15.926c-4.67,1.226-8.898,3.552-12.391,6.683c-1.001-0.897-2.061-1.731-3.176-2.489  c0.432-0.078,0.875-0.12,1.325-0.12l0,0c5.522,0,10-4.477,10-10s-4.477-10-10-10c-0.001,0,0,0-0.001,0  c-10.762,0-20.355,6.375-24.836,15.707c-5.034,1.151-9.591,3.567-13.312,6.903c-0.941-0.844-1.937-1.627-2.979-2.348  c0.623-0.169,1.274-0.261,1.943-0.261l0,0c5.522,0,10-4.477,10-10s-4.477-10-10-10c-0.001,0,0,0-0.001,0  c-10.687,0-20.222,6.285-24.743,15.51C120.436,211.266,110,223.435,110,238v18h-6c-5.523,0-10,4.477-10,10v54H74V205.624  c0-5.523-4.477-10-10-10s-10,4.477-10,10V329.99c0,0.003,0,0.006,0,0.01v172c0,5.523,4.477,10,10,10h384c5.523,0,10-4.477,10-10  V336.01c0-0.003,0-0.006,0-0.01V205.624C458,200.101,453.523,195.624,448,195.624z M415.011,306c0,7.72-6.28,14-14,14  s-14-6.28-14-14s6.28-14,14-14S415.011,298.28,415.011,306z M339.011,306c0-7.72,6.28-14,14-14s14,6.28,14,14s-6.28,14-14,14  S339.011,313.72,339.011,306z M377.011,250.419c7.72,0,14,6.28,14,14s-6.28,14-14,14s-14-6.28-14-14  S369.292,250.419,377.011,250.419z M329.011,250.419c7.72,0,14,6.28,14,14s-6.28,14-14,14s-14-6.28-14-14  S321.292,250.419,329.011,250.419z M291.011,306c0-7.72,6.28-14,14-14s14,6.28,14,14s-6.28,14-14,14S291.011,313.72,291.011,306z   M219.996,228c0.006,0,0.011,0.001,0.017,0.001c0.003,0,0.006,0,0.009,0c5.504,0.012,9.979,4.492,9.979,9.999v18h-20v-18  C210,232.487,214.483,228.003,219.996,228z M180,228c5.514,0,10,4.486,10,10v18h-20v-18C170,232.486,174.486,228,180,228z M130,238  c0-5.514,4.486-10,10-10s10,4.486,10,10v18h-20V238z M114,308h75.483c5.523,0,10-4.477,10-10s-4.477-10-10-10H114v-12h132v44H114  V308z M438,492H74V340h30h152h182V492z"/>
<path d="M330.109,379.811c-15.937-11.351-37.318-11.067-51.634,1.211c-7.707-7.568-18.138-11.965-29.376-11.965  c-0.568,0-1.132,0.021-1.695,0.043c-5.535-10.599-16.813-17.645-29.218-17.342c-5.521,0.128-9.893,4.708-9.765,10.229  c0.128,5.521,4.706,9.884,10.229,9.765c3.294-0.069,6.388,1.235,8.656,3.413c-9.639,5.874-16.73,15.524-19.223,26.876  c-18.839,4.138-32.985,20.952-32.985,41.015c0,23.159,18.841,42,42,42c8.482,0,16.379-2.535,22.989-6.876  c0.364,0.438,0.742,0.866,1.15,1.274c3.756,3.757,8.773,5.645,15.221,5.645c9.372,0,21.765-3.991,37.689-12.032  c16.825-8.496,35.934-21.08,43.502-28.649c12.331-12.331,14.685-31.078,7.354-46.773c2.198,0.479,4.28,1.556,5.955,3.231  c1.953,1.953,4.512,2.929,7.071,2.929c2.559,0,5.118-0.977,7.071-2.929c3.905-3.905,3.906-10.237,0-14.142  C355.819,377.45,341.836,374.977,330.109,379.811z M265.58,396.477c-4.664,6.694-9.631,14.685-14.012,22.622  c-5.443-7.806-13.463-13.681-22.82-16.387c3.294-8.004,11.174-13.656,20.352-13.656C255.535,389.056,261.466,391.809,265.58,396.477  z M217.1,465.056c-12.131,0-22-9.869-22-22s9.869-22,22-22c12.131,0,22,9.869,22,22c0,1.777-0.217,3.504-0.617,5.16  c-0.256,0.813-0.5,1.615-0.722,2.4C234.671,459.034,226.575,465.056,217.1,465.056z M323.508,430.275  c-4.046,4.046-15.094,11.905-27.704,19.163l-7.637-7.637c-3.905-3.905-10.237-3.905-14.143,0c-3.905,3.905-3.905,10.237,0,14.143  l3.076,3.076c-12.221,5.391-18.911,6.296-21.461,6.033c-0.156-1.509,0.106-4.483,1.45-9.173c0.153-0.476,0.293-0.958,0.429-1.442  c1.643-5.276,4.556-12.477,9.558-21.977c5.478-10.405,11.893-20.489,16.992-27.483l7.294,7.294c1.953,1.953,4.512,2.929,7.071,2.929  c2.559,0,5.119-0.977,7.071-2.929c3.905-3.905,3.906-10.237,0-14.142l-6.018-6.018c7.433-1.823,16.05,0.498,22.322,6.77  C330.933,408.006,331.695,422.089,323.508,430.275z"/>
<g>
</g>
<g>
</g>
<g>
</g>
<g>
</g>
<g>
</g>
<g>
</g>
<g>
</g>
<g>
</g>
<g>
</g>
<g>
</g>
<g>
</g>
<g>
</g>
<g>
</g>
<g>
</g>
<g>
</g>
</svg>
