<?xml version="1.0" encoding="iso-8859-1"?>
<!-- Generator: Adobe Illustrator 19.0.0, SVG Export Plug-In . SVG Version: 6.00 Build 0)  -->
<svg xmlns="http://www.w3.org/2000/svg" xmlns:xlink="http://www.w3.org/1999/xlink" version="1.1" id="Capa_1" x="0px" y="0px" viewBox="0 0 512 512" style="enable-background:new 0 0 512 512;" xml:space="preserve">
<path style="fill:#DFDCE5;" d="M186.291,193.093v-66.001c0-28.391-23.016-51.408-51.408-51.408l0,0  c-28.391,0-51.408,23.016-51.408,51.408v42.028c0,40.555,8.817,80.625,25.84,117.434l0,0  c32.312,69.865,102.272,114.59,179.246,114.59l0,0c79.881,0,151.895-48.122,182.459-121.924l30.977-74.8H197.616  C191.362,204.418,186.291,199.348,186.291,193.093z"/>
<path style="fill:#A766B2;" d="M226.326,240.36h201.378l-51.109,53.268c-46.684,48.656-123.772,50.85-173.148,4.929l0,0  C181.097,277.77,195.804,240.36,226.326,240.36z"/>
<path style="fill:#FFC943;" d="M83.475,161.328H12.857c-2.468,0-3.777-2.917-2.136-4.76l0,0c4.014-4.512,9.142-7.891,14.871-9.801  l57.884-19.296L83.475,161.328L83.475,161.328z"/>
<circle style="fill:#231F20;" cx="130.132" cy="132.812" r="8.64"/>
<path d="M510.314,198.862c-1.855-2.776-4.975-4.444-8.314-4.444H197.616c-0.73,0-1.325-0.594-1.325-1.325v-66.001  c0-33.861-27.547-61.408-61.408-61.408c-31.504,0-57.53,23.851-61.001,54.443l-51.454,17.152  c-7.377,2.46-14.009,6.831-19.179,12.641c-3.361,3.778-4.195,9.2-2.124,13.813c2.07,4.613,6.675,7.594,11.732,7.594h60.649  c0.321,40.988,9.533,82.231,26.734,119.423c16.656,36.016,43.132,66.349,76.564,87.722c21.616,13.819,45.415,23.419,70.26,28.483  v19.358h-9.637c-5.523,0-10,4.477-10,10s4.477,10,10,10h31.611c5.523,0,10-4.477,10-10s-4.477-10-10-10h-1.973v-16.288  c7.115,0.738,14.289,1.116,21.497,1.116c5.769,0,11.51-0.246,17.216-0.717v15.89h-9.637c-5.523,0-10,4.477-10,10s4.477,10,10,10  h31.611c5.523,0,10-4.477,10-10s-4.477-10-10-10h-1.973v-18.521c27.772-5.044,54.276-15.727,78.063-31.622  c34.238-22.878,60.663-55.082,76.419-93.126l30.977-74.8C512.517,205.159,512.17,201.639,510.314,198.862z M73.476,141.344v9.983  H43.529L73.476,141.344z M461.782,275.392c-29.12,70.315-97.113,115.751-173.22,115.751c-72.811,0-139.606-42.702-170.17-108.788  c-16.3-35.247-24.917-74.402-24.917-113.237v-41.824c0-0.012,0-0.024,0-0.036v-0.168c0-22.832,18.575-41.408,41.408-41.408  s41.408,18.575,41.408,41.408v66.001c0,11.759,9.566,21.325,21.325,21.325h289.419L461.782,275.392z"/>
<path d="M185.752,258.004c-6.704,17.052-2.534,35.397,10.883,47.875c24.866,23.126,56.973,35.731,90.794,35.731  c1.29,0,2.588-0.019,3.883-0.056c35.24-1.003,68.088-15.564,92.496-41.003l51.109-53.268c2.774-2.892,3.555-7.16,1.983-10.846  c-1.572-3.686-5.192-6.078-9.199-6.078H226.326C208.002,230.36,192.456,240.953,185.752,258.004z M204.366,265.322  c2.844-7.233,10.105-14.962,21.959-14.962h177.924l-15.47,16.123c-0.7,0.147-1.395,0.366-2.074,0.673  c-33.548,15.191-70.413,20.148-106.611,14.334c-5.451-0.878-10.583,2.834-11.459,8.288c-0.875,5.453,2.835,10.583,8.288,11.459  c10.896,1.75,21.841,2.618,32.757,2.618c15.621,0,31.171-1.798,46.392-5.323c-43.067,32.583-105.133,30.536-145.815-7.3  C201.576,283.161,201.522,272.555,204.366,265.322z"/>
<path d="M244.5,293.315c1.049,0.35,2.115,0.516,3.164,0.516c4.187,0,8.089-2.65,9.485-6.841c1.747-5.239-1.085-10.902-6.325-12.649  l-0.075-0.025c-5.238-1.747-10.865,1.098-12.612,6.337C236.392,285.893,239.26,291.569,244.5,293.315z"/>
<g>
</g>
<g>
</g>
<g>
</g>
<g>
</g>
<g>
</g>
<g>
</g>
<g>
</g>
<g>
</g>
<g>
</g>
<g>
</g>
<g>
</g>
<g>
</g>
<g>
</g>
<g>
</g>
<g>
</g>
</svg>
