<?xml version="1.0" encoding="iso-8859-1"?>
<!-- Generator: Adobe Illustrator 19.0.0, SVG Export Plug-In . SVG Version: 6.00 Build 0)  -->
<svg xmlns="http://www.w3.org/2000/svg" xmlns:xlink="http://www.w3.org/1999/xlink" version="1.1" id="Capa_1" x="0px" y="0px" viewBox="0 0 512 512" style="enable-background:new 0 0 512 512;" xml:space="preserve">
<g>
	<path style="fill:#D1C584;" d="M500.445,345.851C501.462,341.397,502,336.762,502,332s-0.538-9.397-1.555-13.851h-6.787   c-1.308-5.083-3.33-9.877-5.934-14.285l4.805-4.805c-4.971-7.91-11.678-14.617-19.588-19.588l-4.805,4.805   c-4.408-2.605-9.202-4.626-14.285-5.934v-6.787C449.398,270.538,444.762,270,440,270s-9.397,0.538-13.851,1.555v6.787   c-5.083,1.308-9.876,3.33-14.285,5.934l-4.805-4.805c-7.91,4.971-14.617,11.678-19.588,19.588l4.805,4.805   c-2.605,4.408-4.626,9.202-5.934,14.285h-6.787C378.539,322.603,378,327.238,378,332s0.538,9.397,1.555,13.851h6.787   c1.308,5.083,3.33,9.876,5.934,14.285l-4.805,4.805c4.971,7.91,11.678,14.617,19.588,19.588l4.805-4.805   c4.408,2.605,9.202,4.626,14.285,5.934v6.787c4.454,1.017,9.09,1.555,13.851,1.555s9.397-0.538,13.851-1.555v-6.787   c5.083-1.308,9.876-3.33,14.285-5.934l4.805,4.805c7.91-4.971,14.617-11.678,19.588-19.588l-4.805-4.805   c2.605-4.408,4.626-9.202,5.934-14.285H500.445z"/>
	<path style="fill:#D1C584;" d="M267.643,321c1.541-6.752,2.357-13.781,2.357-21s-0.816-14.248-2.357-21h-10.289   c-1.983-7.706-5.048-14.974-8.997-21.658l7.286-7.286c-7.537-11.993-17.706-22.162-29.698-29.698l-7.286,7.286   c-6.684-3.949-13.952-7.014-21.658-8.997v-10.289c-6.752-1.541-13.781-2.357-21-2.357s-14.248,0.816-21,2.357v10.289   c-7.706,1.983-14.974,5.048-21.658,8.997l-7.286-7.286c-11.993,7.537-22.162,17.706-29.698,29.698l7.286,7.286   c-3.949,6.684-7.014,13.952-8.997,21.658H84.357C82.817,285.752,82,292.781,82,300s0.816,14.248,2.357,21h10.289   c1.983,7.706,5.048,14.974,8.997,21.658l-7.286,7.286c7.537,11.993,17.706,22.162,29.698,29.698l7.286-7.286   c6.684,3.949,13.952,7.014,21.658,8.997v10.289c6.752,1.541,13.781,2.357,21,2.357s14.248-0.816,21-2.357v-10.289   c7.706-1.983,14.974-5.048,21.658-8.997l7.286,7.286c11.993-7.537,22.162-17.706,29.698-29.698l-7.286-7.286   c3.949-6.684,7.014-13.952,8.997-21.658H267.643z"/>
</g>
<path style="fill:#CE4A30;" d="M384,246h118v-63.843l-120-33.77l-28-7.88L306,127L274.988,10H82v215.41  c21.983-27.667,55.918-45.41,94-45.41c66.274,0,120,53.726,120,120h64.5L384,246z"/>
<polygon style="fill:#FFC943;" points="382,148.387 382,196 502,196 502,182.157 382,148.388 "/>
<polygon style="fill:#72C6CC;" points="305.735,126 274.988,10 82,10 82,126 "/>
<rect x="82" y="10" style="fill:#EF7159;" width="87.72" height="116"/>
<g>
	<circle style="fill:#41A5A5;" cx="176" cy="300" r="44"/>
	<circle style="fill:#41A5A5;" cx="440" cy="332" r="20"/>
</g>
<rect x="354" y="104" style="fill:#EF7159;" width="28" height="92"/>
<path d="M176,354c29.776,0,54-24.224,54-54s-24.224-54-54-54s-54,24.224-54,54S146.224,354,176,354z M176,266  c18.748,0,34,15.252,34,34s-15.252,34-34,34s-34-15.252-34-34S157.253,266,176,266z"/>
<path d="M504.709,172.531L392,140.813V104c0-5.523-4.477-10-10-10h-4V53.978c0-11.026-8.971-19.997-19.997-19.997h-2.565  c-5.523,0-10,4.477-10,10s4.477,10,10,10L358,53.978V94h-4c-5.523,0-10,4.477-10,10v23.305l-29.796-8.385L284.654,7.438  C283.491,3.053,279.524,0,274.988,0H82c-5.523,0-10,4.477-10,10v215.41c0,4.253,2.69,8.041,6.706,9.442  c4.016,1.399,8.478,0.109,11.124-3.221C110.852,205.174,142.26,190,176,190c60.654,0,110,49.346,110,110c0,5.523,4.477,10,10,10  h64.5c3.98,0,7.581-2.36,9.169-6.01L390.554,256H502c5.523,0,10-4.477,10-10v-63.843C512,177.678,509.021,173.745,504.709,172.531z   M478.741,186H392v-24.41L478.741,186z M364,114h8v72h-8V114z M292.739,116h-52.334l41.369-41.369L292.739,116z M275.847,52.273  l-59.834,59.834c-1.132,1.132-1.925,2.471-2.401,3.893H195.46l31.012-31.012c3.905-3.905,3.905-10.237,0-14.143  c-3.905-3.905-10.237-3.905-14.143,0l-34.662,34.662V20h89.626L275.847,52.273z M157.667,20v96H92V20H157.667z M384,236  c-3.98,0-7.581,2.36-9.169,6.01L353.946,290h-48.327C300.496,222.972,244.318,170,176,170c-31.213,0-60.733,10.983-84,30.75V136  h209.683c0.516,0.247,1.047,0.468,1.608,0.626L344,148.082V196c0,5.523,4.477,10,10,10h28h109.667c0.113,0,0.222-0.013,0.333-0.017  V236H384z"/>
<path d="M440,302c-16.542,0-30,13.458-30,30s13.458,30,30,30s30-13.458,30-30S456.542,302,440,302z M440,342  c-5.514,0-10-4.486-10-10s4.486-10,10-10s10,4.486,10,10S445.514,342,440,342z"/>
<path d="M510.195,348.076C511.393,342.825,512,337.417,512,332s-0.607-10.825-1.805-16.076c-1.003-4.395-4.814-7.556-9.28-7.765  c-0.313-0.797-0.642-1.588-0.987-2.374c3.008-3.305,3.466-8.232,1.068-12.048c-5.74-9.133-13.601-16.995-22.734-22.734  c-3.815-2.397-8.744-1.938-12.048,1.068c-0.786-0.345-1.577-0.674-2.374-0.987c-0.208-4.465-3.37-8.277-7.765-9.28  c-10.501-2.396-21.65-2.396-32.151,0c-4.395,1.003-7.556,4.814-7.765,9.28c-0.797,0.313-1.588,0.642-2.374,0.987  c-3.305-3.008-8.233-3.466-12.048-1.068c-9.133,5.74-16.995,13.601-22.734,22.734c-2.398,3.816-1.939,8.744,1.068,12.048  c-0.345,0.786-0.674,1.577-0.987,2.374c-4.465,0.208-8.277,3.37-9.28,7.765C368.608,321.175,368,326.583,368,332  s0.607,10.825,1.805,16.076c1.003,4.395,4.814,7.556,9.28,7.765c0.313,0.797,0.642,1.588,0.987,2.374  c-3.008,3.305-3.466,8.232-1.068,12.048c3.153,5.016,6.964,9.63,11.255,13.738H237.295c10.627-7.78,19.815-17.599,26.813-28.736  c2.482-3.95,1.903-9.092-1.396-12.392l-2.04-2.04c1.552-3.206,2.917-6.488,4.088-9.833h2.881c4.666,0,8.711-3.227,9.75-7.775  C279.123,315.642,280,307.828,280,300s-0.877-15.642-2.608-23.225c-1.038-4.548-5.084-7.775-9.75-7.775h-2.881  c-1.171-3.344-2.537-6.627-4.088-9.833l2.04-2.039c3.299-3.299,3.878-8.442,1.396-12.392c-8.292-13.195-19.649-24.552-32.844-32.844  c-3.952-2.483-9.093-1.903-12.392,1.396l-2.04,2.04c-3.206-1.552-6.488-2.917-9.833-4.088v-2.881c0-4.666-3.227-8.711-7.775-9.75  c-15.167-3.461-31.283-3.461-46.45,0c-4.548,1.038-7.775,5.084-7.775,9.75v2.881c-3.345,1.171-6.627,2.536-9.833,4.088l-2.04-2.04  c-3.299-3.299-8.442-3.878-12.392-1.396c-13.195,8.292-24.552,19.649-32.844,32.844c-2.483,3.95-1.903,9.093,1.396,12.392  l2.04,2.039c-1.551,3.206-2.917,6.489-4.088,9.833h-2.881c-4.666,0-8.711,3.227-9.75,7.775C72.878,284.358,72,292.172,72,300  s0.877,15.642,2.608,23.225c1.038,4.548,5.084,7.775,9.75,7.775h2.881c1.171,3.344,2.537,6.627,4.088,9.833l-2.04,2.039  c-3.299,3.299-3.878,8.442-1.396,12.392C94.889,366.4,104.077,376.22,114.704,384h-11.039c-5.523,0-10,4.477-10,10s4.477,10,10,10  H502c5.523,0,10-4.477,10-10s-4.477-10-10-10h-12.259c4.292-4.108,8.103-8.721,11.255-13.738c2.398-3.816,1.939-8.744-1.068-12.048  c0.345-0.786,0.674-1.577,0.987-2.374C505.381,355.632,509.192,352.471,510.195,348.076z M112.254,337.571  c-3.546-6.001-6.211-12.415-7.922-19.063c-1.138-4.419-5.122-7.507-9.685-7.507h-1.931C92.24,307.362,92,303.684,92,300  s0.24-7.362,0.716-11h1.931c4.563,0,8.547-3.088,9.685-7.507c1.711-6.648,4.376-13.063,7.922-19.063  c2.321-3.929,1.688-8.931-1.538-12.158l-1.375-1.374c4.481-5.825,9.732-11.075,15.557-15.556l1.374,1.374  c3.227,3.227,8.229,3.86,12.157,1.539c6.002-3.546,12.416-6.211,19.064-7.922c4.419-1.138,7.507-5.122,7.507-9.685v-1.931  c7.276-0.952,14.724-0.952,22,0v1.931c0,4.563,3.088,8.547,7.507,9.685c6.648,1.711,13.062,4.376,19.064,7.922  c3.928,2.321,8.931,1.688,12.157-1.539l1.374-1.374c5.825,4.481,11.076,9.731,15.557,15.556l-1.375,1.374  c-3.227,3.227-3.859,8.229-1.538,12.158c3.546,6.001,6.211,12.415,7.922,19.063c1.138,4.419,5.122,7.507,9.685,7.507h1.931  c0.476,3.638,0.716,7.316,0.716,11s-0.24,7.362-0.716,11h-1.931c-4.563,0-8.547,3.088-9.685,7.507  c-1.711,6.648-4.376,13.062-7.922,19.064c-2.321,3.929-1.688,8.93,1.539,12.157l1.374,1.374  c-4.481,5.825-9.731,11.076-15.556,15.557l-1.374-1.375c-3.227-3.226-8.23-3.859-12.158-1.538  c-6.001,3.546-12.415,6.211-19.063,7.922c-4.419,1.138-7.507,5.122-7.507,9.685v1.931c-7.276,0.952-14.724,0.952-22,0v-1.931  c0-4.563-3.088-8.547-7.507-9.685c-6.648-1.711-13.063-4.376-19.063-7.922c-3.929-2.321-8.931-1.688-12.158,1.538l-1.374,1.375  c-5.825-4.481-11.075-9.731-15.556-15.556l1.375-1.374C113.942,346.502,114.575,341.5,112.254,337.571z M491.847,336.016  c-3.775,0.694-6.889,3.521-7.873,7.342c-1.049,4.075-2.684,8.008-4.859,11.69c-2.009,3.4-1.806,7.605,0.378,10.767  c-1.744,2.032-3.646,3.933-5.677,5.677c-3.162-2.184-7.366-2.388-10.767-0.378c-3.682,2.176-7.615,3.811-11.69,4.859  c-3.822,0.984-6.648,4.097-7.342,7.873c-2.67,0.204-5.362,0.204-8.032,0c-0.694-3.775-3.521-6.889-7.342-7.873  c-4.075-1.049-8.008-2.684-11.69-4.859c-3.401-2.01-7.605-1.806-10.767,0.378c-2.032-1.744-3.933-3.646-5.677-5.677  c2.184-3.162,2.387-7.367,0.378-10.767c-2.176-3.682-3.811-7.615-4.859-11.69c-0.984-3.822-4.097-6.648-7.873-7.342  C388.052,334.681,388,333.341,388,332s0.051-2.681,0.153-4.016c3.775-0.694,6.889-3.521,7.873-7.342  c1.049-4.075,2.684-8.008,4.859-11.69c2.009-3.4,1.806-7.605-0.378-10.767c1.744-2.032,3.646-3.933,5.677-5.677  c3.162,2.184,7.366,2.387,10.767,0.378c3.682-2.176,7.615-3.811,11.69-4.859c3.822-0.984,6.648-4.097,7.342-7.873  c2.67-0.204,5.362-0.204,8.032,0c0.694,3.775,3.521,6.889,7.342,7.873c4.075,1.049,8.008,2.684,11.69,4.859  c3.401,2.009,7.605,1.806,10.767-0.378c2.032,1.744,3.933,3.646,5.677,5.677c-2.184,3.162-2.387,7.367-0.378,10.767  c2.176,3.682,3.811,7.615,4.859,11.69c0.984,3.822,4.097,6.648,7.873,7.342c0.102,1.335,0.153,2.675,0.153,4.016  S491.949,334.681,491.847,336.016z"/>
<path d="M502,438H368c-5.523,0-10,4.477-10,10s4.477,10,10,10h134c5.523,0,10-4.477,10-10S507.523,438,502,438z"/>
<path d="M333.472,458c5.523,0,10-4.477,10-10s-4.477-10-10-10h-0.13c-5.523,0-10,4.477-10,10s4.477,10,10,10H333.472z"/>
<path d="M10,458h289.394c5.523,0,10-4.477,10-10s-4.477-10-10-10H10c-5.523,0-10,4.477-10,10S4.477,458,10,458z"/>
<path d="M108,492H10c-5.523,0-10,4.477-10,10s4.477,10,10,10h98c5.523,0,10-4.477,10-10S113.523,492,108,492z"/>
<path d="M142.659,492h-0.13c-5.523,0-10,4.477-10,10s4.477,10,10,10h0.13c5.523,0,10-4.477,10-10S148.182,492,142.659,492z"/>
<path d="M502,492H176.606c-5.523,0-10,4.477-10,10s4.477,10,10,10H502c5.523,0,10-4.477,10-10S507.523,492,502,492z"/>
<path d="M10,404h25.061c5.523,0,10-4.477,10-10s-4.477-10-10-10H10c-5.523,0-10,4.477-10,10S4.477,404,10,404z"/>
<path d="M69.589,404h0.13c5.523,0,10-4.477,10-10s-4.477-10-10-10h-0.13c-5.523,0-10,4.477-10,10S64.066,404,69.589,404z"/>
<path d="M10,349.999h25.061c5.523,0,10-4.477,10-10s-4.477-10-10-10H10c-5.523,0-10,4.477-10,10S4.477,349.999,10,349.999z"/>
<path d="M69.589,349.999h0.13c5.523,0,10-4.477,10-10s-4.477-10-10-10h-0.13c-5.523,0-10,4.477-10,10S64.066,349.999,69.589,349.999  z"/>
<path d="M242.276,65.041c2.559,0,5.119-0.976,7.071-2.929l0.093-0.093c3.905-3.905,3.905-10.237,0-14.143  c-3.905-3.905-10.237-3.905-14.143,0l-0.093,0.093c-3.905,3.905-3.905,10.237,0,14.143  C237.157,64.064,239.717,65.041,242.276,65.041z"/>
<g>
</g>
<g>
</g>
<g>
</g>
<g>
</g>
<g>
</g>
<g>
</g>
<g>
</g>
<g>
</g>
<g>
</g>
<g>
</g>
<g>
</g>
<g>
</g>
<g>
</g>
<g>
</g>
<g>
</g>
</svg>
