<?xml version="1.0" encoding="iso-8859-1"?>
<!-- Generator: Adobe Illustrator 19.0.0, SVG Export Plug-In . SVG Version: 6.00 Build 0)  -->
<svg xmlns="http://www.w3.org/2000/svg" xmlns:xlink="http://www.w3.org/1999/xlink" version="1.1" id="Capa_1" x="0px" y="0px" viewBox="0 0 512.003 512.003" style="enable-background:new 0 0 512.003 512.003;" xml:space="preserve">
<polygon style="fill:#DFDCE5;" points="177.745,420.002 158.827,206.093 128.662,206.093 109.745,420.002 "/>
<path style="fill:#FFFFFF;" d="M178.109,155.611c12.105,6.992,99.773,86.577,99.773,86.577s-113.767-36.723-124.857-43.127h-18.162  c-12.105,6.992-124.861,43.12-124.861,43.12s88.687-80.162,99.776-86.566l8.892-15.919c0-13.98,25.088-129.693,25.088-129.693  s25.081,116.885,25.081,129.693L178.109,155.611z"/>
<circle style="fill:#A766B2;" cx="143.741" cy="164.852" r="34"/>
<g>
	<polygon style="fill:#DFDCE5;" points="426.945,420.002 412.769,256.944 390.164,256.944 375.989,420.002  "/>
	<path style="fill:#DFDCE5;" d="M427.218,219.115c9.071,5.239,74.765,64.877,74.765,64.877s-85.252-27.519-93.562-32.318h-13.61   c-9.071,5.239-93.565,32.312-93.565,32.312s66.458-60.07,74.768-64.869l6.663-11.929c0-10.476,18.8-97.186,18.8-97.186   s18.794,87.589,18.794,97.186L427.218,219.115z"/>
</g>
<circle style="fill:#A766B2;" cx="401.471" cy="226.032" r="25.478"/>
<path d="M10.003,252.181c1.015,0,2.043-0.155,3.051-0.478c14.278-4.575,71.708-23.067,104.633-35.017l-17.096,193.316H10.002  c-5.522,0-10,4.477-10,10s4.478,10,10,10h247.394c5.522,0,10-4.477,10-10s-4.478-10-10-10H186.9l-17.118-193.56  c32.742,11.845,90.626,30.613,105.027,35.262c1.015,0.327,2.05,0.484,3.071,0.484c3.493,0,6.83-1.837,8.656-4.992  c2.359-4.077,1.554-9.248-1.934-12.414c-14.376-13.05-85.14-77.093-100.355-87.12c-1.434-3.367-3.279-6.516-5.466-9.393  c-1.198-17.662-21.148-111.268-25.247-130.367c-0.988-4.605-5.057-7.897-9.767-7.902c-0.004,0-0.007,0-0.007,0  c-4.71,0-8.779,3.281-9.777,7.881c-4.105,18.938-24.115,111.918-25.26,130.368c-2.278,2.992-4.181,6.281-5.64,9.801  c-15.698,10.878-85.448,73.749-99.787,86.71c-3.495,3.158-4.312,8.327-1.961,12.409C3.159,250.336,6.502,252.182,10.003,252.181z   M167.745,164.848c0,13.233-10.767,24-24,24s-24-10.767-24-24s10.767-24,24-24S167.745,151.615,167.745,164.848z M120.668,410.003  l17.817-201.48c1.726,0.207,3.479,0.325,5.259,0.325s3.533-0.119,5.259-0.325l17.817,201.48H120.668z M174.009,196.741  c6.136-5.825,10.594-13.393,12.578-21.906c12.345,10.347,30.969,26.701,49.389,43.117  C211.219,209.739,188.562,202.017,174.009,196.741z M143.723,58.411c5.266,25.554,9.91,49.043,12.617,64.284  c-3.993-1.195-8.219-1.846-12.595-1.846c-4.4,0-8.649,0.657-12.661,1.865C133.871,106.849,138.719,82.558,143.723,58.411z   M100.987,175.206c2.046,8.444,6.531,15.94,12.668,21.703c-15.141,5.513-38.449,13.407-61.714,21.098  C71.263,200.827,89.139,185.184,100.987,175.206z"/>
<path d="M301.247,293.987c1.015,0,2.043-0.155,3.051-0.478c10.188-3.264,49.606-15.958,74.82-24.962L366.82,410.002h-40.818  c-5.522,0-10,4.477-10,10s4.478,10,10,10h176c5.522,0,10-4.477,10-10s-4.478-10-10-10h-65.888l-12.313-141.627  c23.813,8.491,60.905,20.548,75.109,25.133c1.015,0.327,2.05,0.484,3.071,0.484c3.493,0,6.83-1.837,8.656-4.992  c2.359-4.077,1.554-9.248-1.934-12.414c-10.594-9.617-61.944-56.087-74.893-65.099c-1.005-2.227-2.231-4.332-3.655-6.286  c-1.359-14.845-14.672-77.577-18.903-97.298c-0.988-4.605-5.057-7.897-9.767-7.902c-4.672,0.024-8.786,3.277-9.784,7.881  c-3.025,13.953-17.538,81.4-18.919,97.309c-1.497,2.054-2.778,4.273-3.811,6.626c-12.756,9.193-59.621,51.361-74.432,64.75  c-3.495,3.158-4.312,8.327-1.961,12.409C294.403,292.141,297.746,293.987,301.247,293.987z M416.945,226.037  c0,8.535-6.943,15.478-15.479,15.478c-8.534,0-15.478-6.943-15.478-15.478s6.943-15.478,15.478-15.478  C410.002,210.559,416.945,217.502,416.945,226.037z M386.897,410.003l12.913-148.53c0.55,0.025,1.102,0.042,1.657,0.042  c0.556,0,1.108-0.017,1.658-0.042l12.913,148.53H386.897z M428.597,248.863c2.707-3.212,4.854-6.907,6.292-10.938  c6.656,5.65,15.319,13.2,24.872,21.647C447.678,255.515,436.817,251.79,428.597,248.863z M407.75,191.127  c-2.041-0.366-4.138-0.568-6.283-0.568c-2.164,0-4.279,0.205-6.336,0.578c1.564-8.589,3.771-19.864,6.31-32.36  C403.969,171.273,406.174,182.544,407.75,191.127z M368.134,238.189c1.458,3.986,3.617,7.635,6.319,10.809  c-8.192,2.926-18.972,6.622-30.95,10.633C352.949,251.291,361.52,243.822,368.134,238.189z"/>
<path d="M291.473,410.003h-0.13c-5.522,0-10,4.477-10,10s4.478,10,10,10h0.13c5.522,0,10-4.477,10-10  S296.996,410.003,291.473,410.003z"/>
<path d="M108.002,492.003h-98c-5.522,0-10,4.477-10,10s4.478,10,10,10h98c5.522,0,10-4.477,10-10S113.524,492.003,108.002,492.003z"/>
<path d="M142.66,492.003h-0.13c-5.522,0-10,4.477-10,10s4.478,10,10,10h0.13c5.522,0,10-4.477,10-10S148.182,492.003,142.66,492.003  z"/>
<path d="M502.002,492.002H176.608c-5.522,0-10,4.477-10,10s4.478,10,10,10h325.394c5.522,0,10-4.477,10-10  S507.524,492.002,502.002,492.002z"/>
<g>
</g>
<g>
</g>
<g>
</g>
<g>
</g>
<g>
</g>
<g>
</g>
<g>
</g>
<g>
</g>
<g>
</g>
<g>
</g>
<g>
</g>
<g>
</g>
<g>
</g>
<g>
</g>
<g>
</g>
</svg>
