<?xml version="1.0" encoding="iso-8859-1"?>
<!-- Generator: Adobe Illustrator 19.0.0, SVG Export Plug-In . SVG Version: 6.00 Build 0)  -->
<svg xmlns="http://www.w3.org/2000/svg" xmlns:xlink="http://www.w3.org/1999/xlink" version="1.1" id="Capa_1" x="0px" y="0px" viewBox="0 0 511.999 511.999" style="enable-background:new 0 0 511.999 511.999;" xml:space="preserve">
<path style="fill:#DFDCE5;" d="M468.115,256.07L468.115,256.07c0-0.021,0-0.042,0-0.063c0-0.021,0-0.042,0-0.063l0,0  c-0.01-81.761-9.973-99.902-9.973-127.431c0-28.159,65.387-80.64,36.47-110.013c-29.864-30.336-96.532,30.369-141.046,30.369  s-50.479-13.963-97.629-13.963s-52.987,13.963-97.502,13.963S47.253-11.837,17.389,18.499  c-28.917,29.373,36.47,81.854,36.47,110.012c0,27.529-9.963,45.67-9.973,127.431l0,0c0,0.021,0,0.042,0,0.063  c0,0.021,0,0.042,0,0.063l0,0c0.01,81.761,9.973,99.902,9.973,127.431c0,28.159-65.387,80.64-36.47,110.013  c29.864,30.336,96.532-30.496,141.046-30.496s50.479,14.09,97.629,14.09s52.987-14.09,97.502-14.09s111.182,60.832,141.046,30.496  c28.917-29.374-36.47-81.855-36.47-110.013C458.142,355.971,468.105,337.831,468.115,256.07z"/>
<g>
	<path style="fill:#ACD670;" d="M249.924,165.823c8.885-15.899,40.819-31.59,78.087-2.485s34.43,69.214,20.231,82.702   c-14.198,13.488-33.846,9.589-41.174,0c-9.355-12.242-3.305-21.071-15.176-32.015c-12.064-11.122-25.344-3.739-37.767-15.096   C244.836,190.433,243.18,177.89,249.924,165.823z"/>
	<path style="fill:#ACD670;" d="M180.135,306.751c-18.211,0.255-47.767-19.555-41.196-66.384s42.727-64.424,61.506-58.872   s25.227,24.517,20.586,35.657c-5.924,14.222-16.596,13.398-20.138,29.15c-3.6,16.008,9.434,23.817,5.809,40.256   C203.992,298.852,193.959,306.558,180.135,306.751z"/>
	<path style="fill:#ACD670;" d="M337.311,299.642c9.327,15.643,6.949,51.144-36.892,68.868s-77.155-4.79-81.737-23.829   c-4.582-19.039,8.619-34.106,20.586-35.657c15.279-1.98,19.901,7.674,35.314,2.865c15.663-4.887,15.909-20.079,31.958-25.158   C318.542,282.931,330.231,287.767,337.311,299.642z"/>
</g>
<path d="M472.927,511.999c-4.74,0-9.846-0.618-15.337-1.849c-14.868-3.333-31.231-10.879-47.056-18.175  c-20.21-9.32-41.11-18.957-56.967-18.957c-20.597,0-32.244,3.177-44.574,6.541c-13.606,3.711-27.674,7.549-52.927,7.549  c-25.25,0-39.351-3.837-52.986-7.548c-12.364-3.364-24.041-6.542-44.643-6.542c-15.857,0-36.757,9.637-56.967,18.957  c-15.824,7.297-32.188,14.842-47.055,18.175c-19.117,4.287-33.558,1.138-44.15-9.622c-10.778-10.949-13.076-25.326-6.829-42.735  c4.74-13.21,13.64-26.507,22.247-39.366c8.521-12.73,18.178-27.159,18.178-34.929c0-9.356-1.294-17.87-2.932-28.649  c-2.968-19.531-7.032-46.282-7.042-98.736c0-0.041,0-0.08,0-0.109c0.007-52.549,4.073-79.307,7.042-98.845  c1.638-10.78,2.932-19.293,2.932-28.649c0-7.771-9.658-22.198-18.178-34.929C17.074,80.724,8.174,67.429,3.433,54.218  c-6.247-17.408-3.949-31.787,6.829-42.735C20.854,0.724,35.297-2.433,54.417,1.837c14.874,3.32,31.244,10.85,47.074,18.131  c20.201,9.292,41.09,18.9,56.943,18.9c20.609,0,32.261-3.15,44.596-6.484c13.601-3.677,27.664-7.479,52.905-7.479  c25.238,0,39.333,3.801,52.964,7.477c12.369,3.336,24.051,6.486,44.664,6.486c15.853,0,36.742-9.608,56.943-18.9  c15.831-7.282,32.201-14.812,47.074-18.131c19.118-4.268,33.563-1.112,44.155,9.646c10.778,10.949,13.076,25.327,6.829,42.736  c-4.74,13.21-13.64,26.507-22.247,39.366c-8.521,12.73-18.178,27.159-18.178,34.929c0,9.356,1.294,17.87,2.932,28.649  c2.968,19.531,7.032,46.281,7.042,98.736c0,0.041,0,0.08,0,0.109v0.064c-0.006,52.486-4.072,79.243-7.042,98.781  c-1.638,10.78-2.932,19.293-2.932,28.649c0,7.77,9.658,22.198,18.178,34.929c8.607,12.859,17.507,26.155,22.247,39.366  c6.247,17.408,3.949,31.787-6.829,42.735C494.189,508.197,484.684,511.999,472.927,511.999z M353.565,453.019  c20.246,0,43.172,10.572,65.342,20.794c20.111,9.274,39.444,18.187,53.619,18.188c6.034,0,11.131-1.614,14.96-5.503  c11.234-11.412-0.286-30.8-17.785-56.946c-11.087-16.562-21.558-32.207-21.558-46.052c0-10.867,1.394-20.04,3.159-31.654  c2.873-18.907,6.808-44.802,6.814-95.779c0-0.032,0-0.064,0-0.096c-0.009-51.017-3.942-76.902-6.815-95.806  c-1.765-11.614-3.159-20.787-3.159-31.654c0-13.846,10.472-29.49,21.557-46.052c17.5-26.145,29.02-45.534,17.785-56.946  c-12.835-13.039-39.931-0.573-68.62,12.624c-22.155,10.192-45.066,20.731-65.299,20.731c-23.261,0-36.79-3.648-49.871-7.176  c-12.943-3.49-25.168-6.787-47.757-6.787c-22.585,0-34.778,3.296-47.686,6.786c-13.053,3.529-26.55,7.178-49.815,7.178  c-20.232,0-43.144-10.539-65.3-20.729C64.446,24.942,37.348,12.477,24.514,25.514C13.281,36.926,24.8,56.314,42.3,82.46  c11.087,16.562,21.558,32.206,21.558,46.051c0,10.867-1.394,20.04-3.159,31.654c-2.873,18.907-6.808,44.803-6.814,95.779  c0,0.032,0,0.064,0,0.096c0.009,51.018,3.942,76.902,6.815,95.806c1.765,11.614,3.159,20.787,3.159,31.654  c0,13.846-10.472,29.49-21.557,46.052c-17.5,26.145-29.02,45.534-17.785,56.946c12.822,13.027,39.905,0.537,68.578-12.686  c22.17-10.224,45.096-20.794,65.342-20.794c23.273,0,36.806,3.683,49.893,7.244c12.938,3.521,25.158,6.846,47.735,6.846  c22.574,0,34.762-3.325,47.664-6.844C316.787,456.702,330.288,453.019,353.565,453.019z"/>
<path d="M158.435,99.138c-5.523,0-10-4.477-10-10s4.477-10,10-10c20.609,0,32.26-3.15,44.596-6.484  c6.553-1.771,13.328-3.603,21.522-5.013c5.444-0.939,10.615,2.716,11.551,8.159c0.937,5.443-2.716,10.614-8.159,11.551  c-7.272,1.251-13.307,2.883-19.695,4.61C195.197,95.489,181.7,99.138,158.435,99.138z"/>
<path d="M256,85.175h-0.063c-5.523,0-10-4.477-10-10s4.477-10,10-10c5.523,0,10.032,4.477,10.032,10S261.523,85.175,256,85.175z"/>
<path d="M353.565,99.138c-23.262,0-36.79-3.648-49.872-7.176c-7.044-1.899-13.698-3.694-21.988-4.978  c-5.458-0.845-9.197-5.955-8.352-11.413c0.846-5.457,5.951-9.197,11.413-8.352c9.377,1.452,16.879,3.476,24.135,5.432  c12.369,3.336,24.052,6.486,44.664,6.486c5.523,0,10,4.477,10,10S359.088,99.138,353.565,99.138z"/>
<path d="M327.046,264.756c-1.065,0-2.135-0.042-3.208-0.127c-10.098-0.802-19.336-5.481-24.713-12.519  c-5.623-7.357-7.039-13.87-8.177-19.102c-1.097-5.045-1.702-7.825-5.832-11.632c-3.576-3.296-7.227-3.982-13.373-4.911  c-7.074-1.069-15.877-2.399-24.365-10.159c-12.679-11.593-15.106-29.398-6.185-45.363c6.208-11.11,19.046-19.823,33.505-22.741  c13.548-2.734,34.863-1.96,59.466,17.253c27.9,21.788,33.124,46.884,33.754,59.904c0.748,15.431-4.034,29.61-12.79,37.928  C347.277,260.749,337.407,264.756,327.046,264.756z M286.33,157.053c-2.862,0-5.43,0.301-7.675,0.754  c-10.647,2.148-17.429,8.288-20.002,12.893l0,0c-4.423,7.914-3.613,15.512,2.222,20.847c3.997,3.654,8.133,4.279,13.858,5.145  c6.987,1.056,15.683,2.37,23.939,9.981c8.775,8.09,10.462,15.85,11.819,22.086c0.933,4.291,1.607,7.392,4.524,11.209  c1.463,1.915,5.066,4.301,10.407,4.725c3.351,0.268,9.876-0.147,15.934-5.903c3.385-3.216,7.142-11.028,6.588-22.461  c-0.465-9.602-4.472-28.229-26.087-45.109C307.673,160.143,295.496,157.053,286.33,157.053z M249.924,165.823h0.01H249.924z"/>
<path d="M179.783,316.754c-12.593,0-26.324-6.729-35.955-17.648c-9.143-10.367-19.129-29.213-14.791-60.126  c4.919-35.057,24.041-52.128,35.002-59.185c12.991-8.363,27.662-11.31,39.241-7.888c11.456,3.387,20.499,10.998,25.467,21.43  c4.354,9.146,4.921,19.486,1.516,27.661c-3.561,8.548-8.492,13.031-12.455,16.632c-3.821,3.473-5.926,5.386-7.158,10.867  c-1.067,4.744,0.165,8.25,2.434,14.036c2.611,6.661,5.861,14.949,3.385,26.179c-3.7,16.776-17.906,27.782-36.194,28.038l0,0  C180.111,316.753,179.947,316.754,179.783,316.754z M193.147,190.516c-4.743,0-11.25,1.567-18.282,6.095  c-8.083,5.203-22.211,17.987-26.022,45.147c-3.282,23.384,3.619,36.899,9.986,44.119c7.184,8.146,15.87,10.963,21.166,10.876l0,0  c9.065-0.127,15.24-4.627,16.943-12.348c1.166-5.288-0.361-9.183-2.475-14.573c-2.58-6.58-5.79-14.768-3.326-25.723  c2.618-11.644,8.496-16.985,13.219-21.278c3.25-2.954,5.598-5.088,7.445-9.523c0.926-2.224,1.191-6.538-1.111-11.375  c-1.445-3.035-5.065-8.479-13.08-10.849C196.405,190.729,194.896,190.516,193.147,190.516z"/>
<path d="M269.219,384.976c-15.261,0-26.84-4.331-33.81-7.917c-13.738-7.069-23.625-18.298-26.451-30.04  c-2.795-11.614-0.726-23.252,5.826-32.77c5.743-8.344,14.416-14.005,23.197-15.143c9.183-1.191,15.53,0.84,20.631,2.47  c4.919,1.573,7.627,2.438,12.99,0.766c4.642-1.449,7.062-4.268,10.939-9.126c4.463-5.592,10.017-12.551,20.979-16.02  c16.378-5.185,33.013,1.616,42.379,17.325l0,0c6.518,10.932,7.645,26.407,2.942,40.388c-4.407,13.101-15.735,31.173-44.674,42.873  C291.081,383.071,279.34,384.976,269.219,384.976z M243.378,318.748c-0.882,0-1.814,0.06-2.825,0.191  c-2.39,0.31-6.258,2.237-9.295,6.65c-1.905,2.769-4.811,8.627-2.855,16.751c1.093,4.54,5.98,11.699,16.157,16.936  c8.548,4.398,26.685,10.242,52.11-0.037c21.892-8.851,30.146-21.583,33.215-30.707c3.463-10.294,1.538-19.238-1.164-23.77  c-4.643-7.787-11.628-10.885-19.165-8.5c-5.163,1.634-7.772,4.904-11.384,9.429c-4.408,5.523-9.894,12.398-20.613,15.742  c-11.394,3.555-18.958,1.135-25.037-0.808C249.228,319.572,246.652,318.748,243.378,318.748z"/>
<g>
</g>
<g>
</g>
<g>
</g>
<g>
</g>
<g>
</g>
<g>
</g>
<g>
</g>
<g>
</g>
<g>
</g>
<g>
</g>
<g>
</g>
<g>
</g>
<g>
</g>
<g>
</g>
<g>
</g>
</svg>
