<?xml version="1.0" encoding="iso-8859-1"?>
<!-- Generator: Adobe Illustrator 19.0.0, SVG Export Plug-In . SVG Version: 6.00 Build 0)  -->
<svg xmlns="http://www.w3.org/2000/svg" xmlns:xlink="http://www.w3.org/1999/xlink" version="1.1" id="Capa_1" x="0px" y="0px" viewBox="0 0 512 512" style="enable-background:new 0 0 512 512;" xml:space="preserve">
<path style="fill:#CE4A30;" d="M180.49,118.446c15.902-6.291,25.734-23.08,22.643-40.577c-2.433-13.77-12.236-24.384-24.634-28.506  c-0.105-0.948-0.187-1.894-0.356-2.846C173.899,22.489,150.98,6.45,126.95,10.695c-10.113,1.786-18.78,6.906-25.146,13.999  c-8.484-5.39-18.906-7.786-29.584-5.9c-22.684,4.007-37.825,25.644-33.818,48.329c1.746,9.883,6.837,18.334,13.905,24.393  L180.49,118.446z"/>
<path style="fill:#FFC943;" d="M501.483,144.621c3.624-14.017-12.309-24.868-24.012-16.346  c-40.804,29.714-107.974,73.199-151.624,73.199c-52.287,0-103.893-6.77-129.859-52.154l-23.961-41.881  c-13.302-23.25-38.096-37.534-64.883-37.377l0,0c-26.348,0.154-51.012,12.978-66.271,34.457L10,147.975l11.107,5.554  c28.16,14.08,49.376,39.014,58.767,69.064l29.71,95.073c22.212,71.081,88.042,119.478,162.513,119.478h4.014  c88.167,0,165.175-59.633,187.239-144.994L501.483,144.621z"/>
<path style="fill:#CE4A30;" d="M212.231,227.974l20.462,6.727c45.28,14.884,94.283,13.874,138.911-2.863l71.29-26.736  c0,0-24.688,157.45-145.492,157.45c-88.166,0-119.029-50.996-129.425-93.63C161.566,242.628,186.521,219.523,212.231,227.974z"/>
<path d="M500.839,119.721c-8.988-6.112-20.47-5.925-29.254,0.472c-63.122,45.967-114.879,71.282-145.737,71.282  c-48.935,0-97.487-5.709-121.18-47.122l-12.03-21.027c15.281-10.086,23.627-28.611,20.344-47.195  c-2.623-14.848-12.174-27.356-25.497-33.873c-6.318-28.013-33.703-46.459-62.273-41.408c-9.371,1.655-17.928,5.636-25.121,11.637  c-9.276-4.058-19.545-5.317-29.609-3.539c-28.078,4.96-46.886,31.838-41.927,59.916c1.456,8.24,4.911,15.981,9.96,22.547  c-2.043,2.33-3.983,4.766-5.796,7.316L1.848,142.183c-1.691,2.381-2.257,5.381-1.55,8.213c0.708,2.833,2.618,5.215,5.23,6.521  l11.106,5.554c25.59,12.794,45.161,35.794,53.694,63.103l29.71,95.073c11.539,36.924,34.112,68.553,65.281,91.468  c16.657,12.246,34.958,21.404,54.293,27.28c-0.144,0.675-0.223,1.375-0.223,2.093v32.231l-24.728,20.579  c-4.245,3.533-4.823,9.837-1.29,14.082c1.978,2.377,4.824,3.604,7.691,3.604c2.254,0,4.522-0.759,6.391-2.314l21.936-18.256  l21.936,18.256c1.868,1.555,4.137,2.314,6.391,2.314c2.868,0,5.715-1.228,7.691-3.604c3.533-4.245,2.955-10.549-1.29-14.082  l-24.729-20.579v-29.53c10.695,1.956,21.628,2.954,32.707,2.954h4.015c9.079,0,18.043-0.61,26.853-1.778v28.354l-24.728,20.579  c-4.245,3.533-4.823,9.837-1.29,14.082c1.978,2.377,4.824,3.604,7.691,3.604c2.254,0,4.522-0.759,6.391-2.314l21.936-18.256  l21.936,18.256c1.868,1.555,4.137,2.314,6.391,2.314c2.868,0,5.715-1.228,7.691-3.604c3.533-4.245,2.955-10.549-1.29-14.082  l-24.729-20.579V441.69c72.181-17.066,130.876-72.793,150.068-147.038l38.135-147.528  C513.887,136.592,509.833,125.837,500.839,119.721z M73.96,28.641c7.775-1.372,15.761,0.223,22.482,4.494  c4.127,2.621,9.538,1.875,12.804-1.761c5.161-5.751,11.885-9.496,19.443-10.831c8.99-1.588,18.063,0.42,25.544,5.655  s12.476,13.069,14.063,22.057c0.073,0.42,0.131,0.961,0.197,1.588l0.066,0.618c0.428,3.883,3.077,7.16,6.783,8.393  c9.355,3.111,16.231,11.064,17.943,20.757c1.805,10.218-2.529,20.397-10.615,26.3l-1.967-3.437  c-15.068-26.337-43.27-42.551-73.621-42.412c-19.536,0.114-38.327,6.503-53.754,17.788c-2.55-3.694-4.276-7.904-5.082-12.465  C45.208,48.164,56.742,31.682,73.96,28.641z M491.803,142.118l-38.135,147.528c-20.926,80.956-93.94,137.498-177.558,137.498h-4.015  c-70.474,0-131.947-45.195-152.968-112.462l-29.71-95.073c-10.146-32.468-33.416-59.814-63.84-75.025l-0.667-0.333l24.112-33.942  c13.361-18.807,35.109-30.115,58.179-30.249c0.125-0.001,0.248-0.001,0.374-0.001c22.997,0,44.343,12.369,55.771,32.346  l23.962,41.881c28.832,50.393,86.212,57.188,138.539,57.188c44.932,0,110.455-40.848,157.509-75.114  c2.782-2.025,5.288-0.745,6.237-0.1C490.546,136.906,492.667,138.774,491.803,142.118z"/>
<path d="M108.763,120.957c-6.077,0-11.02,4.944-11.02,11.021c0,6.078,4.944,11.021,11.02,11.021c6.078,0,11.021-4.944,11.021-11.021  C119.784,125.901,114.84,120.957,108.763,120.957z"/>
<path d="M449.211,197.35c-2.757-2.247-6.499-2.859-9.828-1.611l-71.29,26.736c-42.342,15.879-89.319,16.849-132.277,2.727  l-20.462-6.727c-15.566-5.116-32.041-1.532-44.069,9.588c-12.04,11.131-16.908,27.29-13.021,43.227  c6.857,28.126,19.834,50.957,38.564,67.858c24.564,22.164,58.403,33.403,100.575,33.403c53.295,0,97.157-29.037,126.845-83.971  c21.837-40.408,28.263-80.254,28.525-81.931C453.323,203.137,451.968,199.596,449.211,197.35z M177.692,266.552  c-2.14-8.777,0.54-17.676,7.168-23.804c4.633-4.283,10.463-6.534,16.482-6.534c2.58,0,5.196,0.414,7.766,1.259l20.462,6.727  c47.269,15.539,98.958,14.472,145.546-3l38.424-14.411c-39.437,32.974-81.139,47.201-124.18,42.292  c-5.484-0.624-10.442,3.315-11.068,8.801c-0.626,5.487,3.314,10.442,8.801,11.068c6.233,0.711,12.452,1.066,18.655,1.066  c23.213,0,46.167-4.972,68.455-14.851c16.042-7.11,31.801-16.798,47.068-28.901c-3.745,10.283-8.538,21.554-14.619,32.808  c-1.485,2.748-3.008,5.409-4.56,8.004c-21.648,14.469-46.006,23.327-70.532,25.613c-5.499,0.513-9.541,5.386-9.028,10.884  c0.483,5.184,4.841,9.072,9.944,9.072c0.311,0,0.624-0.014,0.939-0.043c13.108-1.222,26.152-4.103,38.84-8.492  c-21.17,18.902-46.202,28.442-74.855,28.442C231.884,352.553,191.608,323.618,177.692,266.552z"/>
<path d="M261.285,263.212l-0.37-0.113c-5.283-1.62-10.872,1.35-12.49,6.629c-1.619,5.28,1.35,10.872,6.63,12.491l0.433,0.131  c0.967,0.293,1.942,0.432,2.903,0.432c4.291,0,8.257-2.784,9.565-7.103C269.557,270.395,266.57,264.813,261.285,263.212z"/>
<path d="M303.533,312.396l-0.885-0.106c-5.493-0.677-10.471,3.227-11.143,8.707c-0.672,5.482,3.227,10.47,8.707,11.143l1,0.12  c0.395,0.046,0.785,0.068,1.173,0.068c5.003,0,9.324-3.75,9.919-8.84C312.945,318.003,309.018,313.037,303.533,312.396z"/>
<g>
</g>
<g>
</g>
<g>
</g>
<g>
</g>
<g>
</g>
<g>
</g>
<g>
</g>
<g>
</g>
<g>
</g>
<g>
</g>
<g>
</g>
<g>
</g>
<g>
</g>
<g>
</g>
<g>
</g>
</svg>
