<?xml version="1.0" encoding="iso-8859-1"?>
<!-- Generator: Adobe Illustrator 19.0.0, SVG Export Plug-In . SVG Version: 6.00 Build 0)  -->
<svg xmlns="http://www.w3.org/2000/svg" xmlns:xlink="http://www.w3.org/1999/xlink" version="1.1" id="Capa_1" x="0px" y="0px" viewBox="0 0 511.998 511.998" style="enable-background:new 0 0 511.998 511.998;" xml:space="preserve">
<path style="fill:#FFC943;" d="M474.255,154.712c-14.707,0.4-26.241,12.839-26.241,27.551v12.182c0,26.764-21.696,48.46-48.46,48.46  h-68.037c-26.764,0-48.46-21.696-48.46-48.46v-12.751c0-14.908-12.085-26.993-26.993-26.993h-0.127  c-14.908,0-26.993,12.085-26.993,26.993v12.751c0,26.764-21.696,48.46-48.46,48.46h-68.037c-26.764,0-48.46-21.696-48.46-48.46  v-12.182c0-14.712-11.535-27.152-26.241-27.551C22.494,154.297,10,166.54,10,181.702v61.204v112.093l0,0  c43.619,0,78.98,35.369,78.98,79l0,0h87.977l0,0c0-43.63,35.36-79,78.98-79l0,0c43.619,0,78.98,35.369,78.98,79l0,0h88.104l0,0  c0-43.63,35.36-79,78.98-79l0,0V181.702C502,166.54,489.506,154.297,474.255,154.712z"/>
<g>
	<path style="fill:#F9BD95;" d="M282.93,186.999c0-60.199,36.927-109,82.479-109s82.479,48.801,82.479,109l0.127-4.736v12.182   c0,26.764-21.696,48.46-48.46,48.46h-68.037c-26.764,0-48.46-21.696-48.46-48.46v-12.751"/>
	<path style="fill:#F9BD95;" d="M63.923,186.999c0-60.199,36.927-109,82.479-109s82.479,48.801,82.479,109l0.127-4.736v12.182   c0,26.764-21.696,48.46-48.46,48.46H112.51c-26.764,0-48.46-21.696-48.46-48.46v-12.751"/>
</g>
<path d="M500.803,155.182c-7.216-7.023-16.76-10.751-26.819-10.466c-7.499,0.204-14.467,2.741-20.236,6.904  c-4.262-17.769-11.728-34.097-22.043-47.73c-17.515-23.144-41.059-35.891-66.297-35.891s-48.782,12.747-66.296,35.891  c-10.257,13.556-17.694,29.779-21.968,47.431c-5.986-4.167-13.25-6.619-21.081-6.619h-0.127c-7.877,0-15.182,2.483-21.188,6.696  c-4.271-17.682-11.716-33.932-21.988-47.508c-17.513-23.144-41.057-35.891-66.295-35.891S97.683,80.746,80.169,103.89  c-10.3,13.612-17.758,29.912-22.023,47.65c-5.748-4.117-12.677-6.622-20.129-6.824c-10.062-0.281-19.603,3.442-26.819,10.466  C3.977,162.208,0,171.627,0,181.702v173.297c0,5.523,4.478,10,10,10c38.035,0,68.979,30.953,68.979,69c0,5.523,4.478,10,10,10  h87.978c5.522,0,10-4.477,10-10c0-38.047,30.944-69,68.979-69s68.979,30.953,68.979,69c0,5.523,4.478,10,10,10h88.104  c5.522,0,10-4.477,10-10c0-38.047,30.944-69,68.979-69c5.522,0,10-4.477,10-10V181.702C512,171.627,508.023,162.208,500.803,155.182  z M365.408,87.999c39.965,0,72.479,44.411,72.479,99c0,0.517,0.051,1.02,0.127,1.516v5.93c0,21.207-17.253,38.46-38.46,38.46  h-68.037c-21.207,0-38.46-17.253-38.46-38.46v-12.75c0-0.104-0.007-0.207-0.008-0.311  C295.188,129.398,326.823,87.999,365.408,87.999z M146.465,87.999c39.965,0,72.479,44.411,72.479,99v7.446  c0,21.207-17.253,38.46-38.46,38.46h-68.037c-21.207,0-38.46-17.253-38.46-38.46v-7.446C73.986,132.41,106.5,87.999,146.465,87.999z   M492,345.558c-41.092,4.618-73.808,37.339-78.422,78.441h-69.22c-4.982-44.387-42.736-79-88.422-79s-83.439,34.613-88.422,79  H98.422c-4.614-41.103-37.33-73.823-78.422-78.441V181.702c0-4.629,1.827-8.958,5.146-12.187c3.313-3.225,7.65-4.946,12.328-4.806  c9.105,0.247,16.513,8.123,16.513,17.555v12.182c0,32.235,26.225,58.46,58.46,58.46h68.037c32.235,0,58.46-26.225,58.46-58.46  v-12.75c0-9.37,7.623-16.993,16.993-16.993h0.127c9.232,0,16.752,7.404,16.972,16.583c-0.069,1.897-0.106,3.802-0.106,5.714  c0,0.517,0.051,1.02,0.127,1.516v5.93c0,32.235,26.225,58.46,58.46,58.46h68.037c32.235,0,58.46-26.225,58.46-58.46v-12.182  c0-9.432,7.407-17.308,16.513-17.555c4.651-0.117,9.014,1.581,12.328,4.806c3.318,3.229,5.146,7.558,5.146,12.187v163.856H492z"/>
<path d="M95.01,196.966c5.523,0,10-4.51,10-10.033l0.001-0.183c0-5.523-4.478-9.967-10-9.967c-5.523,0-10,4.51-10,10.033  l-0.001,0.183C85.01,192.522,89.487,196.966,95.01,196.966z"/>
<path d="M96.841,164.229c1.009,0.321,2.03,0.474,3.036,0.474c4.237,0,8.172-2.716,9.526-6.97  c7.104-22.315,21.652-36.734,37.062-36.734c5.522,0,10-4.477,10-10s-4.478-10-10-10c-24.293,0-46.321,19.889-56.12,50.668  C88.67,156.93,91.578,162.554,96.841,164.229z"/>
<path d="M313.954,196.999c5.522,0,10-4.477,10-10v-0.25c0-5.523-4.478-10-10-10s-10,4.477-10,10v0.25  C303.954,192.522,308.432,196.999,313.954,196.999z"/>
<path d="M315.784,164.229c1.009,0.321,2.03,0.474,3.036,0.474c4.237,0,8.172-2.716,9.526-6.97  c7.104-22.315,21.652-36.734,37.062-36.734c5.522,0,10-4.477,10-10s-4.478-10-10-10c-24.293,0-46.321,19.889-56.12,50.668  C307.613,156.93,310.521,162.554,315.784,164.229z"/>
<g>
</g>
<g>
</g>
<g>
</g>
<g>
</g>
<g>
</g>
<g>
</g>
<g>
</g>
<g>
</g>
<g>
</g>
<g>
</g>
<g>
</g>
<g>
</g>
<g>
</g>
<g>
</g>
<g>
</g>
</svg>
