<?xml version="1.0" encoding="iso-8859-1"?>
<!-- Generator: Adobe Illustrator 19.0.0, SVG Export Plug-In . SVG Version: 6.00 Build 0)  -->
<svg xmlns="http://www.w3.org/2000/svg" xmlns:xlink="http://www.w3.org/1999/xlink" version="1.1" id="Capa_1" x="0px" y="0px" viewBox="0 0 512 512" style="enable-background:new 0 0 512 512;" xml:space="preserve">
<g>
	<path style="fill:#FFC943;" d="M229.642,277.489l-0.013,0.015c0.053,0.217,8.448,50.688-17.972,80.228   c-26.437,29.543-76.686,27.884-76.907,27.878l-0.007,0.008l0.01-0.012l-0.006,0.007l0.008-0.009   c-0.067-0.42-9.688-51.87,16.69-81.361C177.927,274.629,229.642,277.489,229.642,277.489z"/>
	<path style="fill:#FFC943;" d="M114.43,304.243c26.378,29.491,16.757,80.941,16.69,81.361l0.008,0.009l-0.006-0.007l0.01,0.012   l-0.007-0.008c-0.221,0.006-50.47,1.665-76.907-27.878c-26.42-29.54-18.025-80.011-17.972-80.228l-0.013-0.015   C36.232,277.489,87.946,274.629,114.43,304.243z"/>
	<path style="fill:#FFC943;" d="M229.642,370.141l-0.013,0.015c0.053,0.217,8.448,50.688-17.972,80.228   c-26.437,29.543-76.686,27.884-76.907,27.878l-0.007,0.008l0.01-0.012l-0.006,0.007l0.008-0.009   c-0.067-0.42-9.688-51.87,16.69-81.361C177.927,367.281,229.642,370.141,229.642,370.141z"/>
	<path style="fill:#FFC943;" d="M114.43,396.895c26.378,29.491,16.757,80.941,16.69,81.361l0.008,0.009l-0.006-0.007l0.01,0.012   l-0.007-0.008c-0.221,0.006-50.47,1.665-76.907-27.878c-26.42-29.54-18.025-80.011-17.972-80.228l-0.013-0.015   C36.232,370.141,87.946,367.281,114.43,396.895z"/>
	<path style="fill:#FFC943;" d="M229.642,184.754l-0.013,0.015c0.053,0.217,8.448,50.688-17.972,80.228   c-26.437,29.543-76.686,27.884-76.907,27.878l-0.007,0.008l0.01-0.012l-0.006,0.007l0.008-0.009   c-0.067-0.42-9.688-51.87,16.69-81.361C177.927,181.893,229.642,184.754,229.642,184.754z"/>
	<path style="fill:#FFC943;" d="M114.43,211.507c26.378,29.491,16.757,80.941,16.69,81.361l0.008,0.009l-0.006-0.007l0.01,0.012   l-0.007-0.008c-0.221,0.006-50.47,1.665-76.907-27.878c-26.42-29.54-18.025-80.011-17.972-80.228l-0.013-0.015   C36.232,184.754,87.946,181.893,114.43,211.507z"/>
	<path style="fill:#FFC943;" d="M229.642,92.072l-0.013,0.015c0.053,0.217,8.448,50.688-17.972,80.228   c-26.437,29.543-76.686,27.884-76.907,27.878l-0.007,0.008l0.01-0.012l-0.006,0.007l0.008-0.009   c-0.067-0.42-9.688-51.87,16.69-81.361C177.927,89.212,229.642,92.072,229.642,92.072z"/>
	<path style="fill:#FFC943;" d="M114.43,118.826c26.378,29.491,16.757,80.941,16.69,81.361l0.008,0.009l-0.006-0.007l0.01,0.012   l-0.007-0.008c-0.221,0.006-50.47,1.665-76.907-27.878c-26.42-29.54-18.025-80.011-17.972-80.228l-0.013-0.015   C36.232,92.072,87.946,89.212,114.43,118.826z"/>
	<path style="fill:#FFC943;" d="M475.642,277.489l-0.013,0.015c0.053,0.217,8.448,50.688-17.972,80.228   c-26.437,29.543-76.686,27.884-76.907,27.878l-0.007,0.008l0.01-0.012l-0.006,0.007l0.008-0.009   c-0.067-0.42-9.688-51.87,16.69-81.361C423.927,274.629,475.642,277.489,475.642,277.489z"/>
	<path style="fill:#FFC943;" d="M360.43,304.243c26.378,29.491,16.757,80.941,16.69,81.361l0.008,0.009l-0.006-0.007l0.01,0.012   l-0.007-0.008c-0.221,0.006-50.47,1.665-76.907-27.878c-26.42-29.54-18.025-80.011-17.972-80.228l-0.013-0.015   C282.232,277.489,333.946,274.629,360.43,304.243z"/>
	<path style="fill:#FFC943;" d="M475.642,370.141l-0.013,0.015c0.053,0.217,8.448,50.688-17.972,80.228   c-26.437,29.543-76.686,27.884-76.907,27.878l-0.007,0.008l0.01-0.012l-0.006,0.007l0.008-0.009   c-0.067-0.42-9.688-51.87,16.69-81.361C423.927,367.281,475.642,370.141,475.642,370.141z"/>
	<path style="fill:#FFC943;" d="M360.43,396.895c26.378,29.491,16.757,80.941,16.69,81.361l0.008,0.009l-0.006-0.007l0.01,0.012   l-0.007-0.008c-0.221,0.006-50.47,1.665-76.907-27.878c-26.42-29.54-18.025-80.011-17.972-80.228l-0.013-0.015   C282.232,370.141,333.946,367.281,360.43,396.895z"/>
	<path style="fill:#FFC943;" d="M475.642,184.754l-0.013,0.015c0.053,0.217,8.448,50.688-17.972,80.228   c-26.437,29.543-76.686,27.884-76.907,27.878l-0.007,0.008l0.01-0.012l-0.006,0.007l0.008-0.009   c-0.067-0.42-9.688-51.87,16.69-81.361C423.927,181.893,475.642,184.754,475.642,184.754z"/>
	<path style="fill:#FFC943;" d="M360.43,211.507c26.378,29.491,16.757,80.941,16.69,81.361l0.008,0.009l-0.006-0.007l0.01,0.012   l-0.007-0.008c-0.221,0.006-50.47,1.665-76.907-27.878c-26.42-29.54-18.025-80.011-17.972-80.228l-0.013-0.015   C282.232,184.754,333.946,181.893,360.43,211.507z"/>
</g>
<path d="M239.623,91.466c-0.067-1.112-0.321-2.222-0.77-3.283c-1.486-3.519-4.846-5.884-8.66-6.095  c-2.309-0.127-56.853-2.748-86.204,30.072c-4.577,5.118-8.197,10.766-11.053,16.662c-2.856-5.896-6.476-11.544-11.053-16.662l0,0  C92.532,79.34,37.99,81.958,35.68,82.087c-3.814,0.211-7.168,2.584-8.654,6.103c-0.432,1.023-0.683,2.094-0.76,3.167  c-1.321,9.029-6.145,52.981,17,83.351c-4.336-0.102-7.104,0.033-7.586,0.06c-3.814,0.211-7.168,2.584-8.654,6.103  c-0.432,1.023-0.683,2.094-0.76,3.167c-1.322,9.035-6.151,53.035,17.043,83.406c-4.36-0.103-7.145,0.032-7.629,0.059  c-3.814,0.211-7.168,2.584-8.654,6.103c-0.432,1.023-0.683,2.094-0.76,3.167c-1.321,9.026-6.141,52.951,16.978,83.32  c-4.323-0.1-7.082,0.034-7.563,0.061c-3.814,0.211-7.168,2.584-8.654,6.103c-0.432,1.024-0.683,2.094-0.76,3.167  c-1.384,9.462-6.639,57.282,20.5,87.625c22.491,25.134,59.487,30.094,76.12,31.022V492H10c-5.523,0-10,4.477-10,10s4.477,10,10,10  h208.727c5.523,0,10-4.477,10-10s-4.477-10-10-10h-75.842v-3.922c16.601-0.914,53.691-5.846,76.225-31.028  c27.035-30.227,21.921-77.801,20.514-87.516c-0.067-1.112-0.321-2.222-0.77-3.283c-1.485-3.519-4.846-5.884-8.66-6.095  c-0.481-0.026-3.241-0.161-7.564-0.06c23.028-30.247,18.336-73.947,16.994-83.214c-0.067-1.112-0.321-2.222-0.77-3.283  c-1.486-3.519-4.846-5.884-8.66-6.095c-0.484-0.027-3.269-0.162-7.629-0.058c23.103-30.25,18.403-74.024,17.059-83.299  c-0.067-1.112-0.321-2.222-0.77-3.283c-1.486-3.519-4.846-5.884-8.66-6.095c-0.482-0.026-3.251-0.161-7.587-0.059  C245.661,144.461,240.967,100.735,239.623,91.466z M158.898,125.492c16.974-18.979,47.11-22.711,61.754-23.362  c0.983,14.443,0.612,44.442-16.448,63.517c-16.914,18.901-46.233,23.284-60.666,24.276  C142.227,175.12,141.956,144.434,158.898,125.492z M106.976,218.173C106.976,218.174,106.976,218.174,106.976,218.173  c16.942,18.942,16.67,49.63,15.36,64.433c-14.411-0.991-43.746-5.37-60.665-24.276c-17.068-19.083-17.432-49.103-16.448-63.539  C59.839,195.412,89.919,199.101,106.976,218.173z M143.538,282.604c-1.31-14.804-1.581-45.491,15.36-64.431  c16.974-18.979,47.11-22.711,61.754-23.362c0.983,14.443,0.612,44.442-16.448,63.516C187.29,277.229,157.97,281.612,143.538,282.604  z M45.223,102.11c14.616,0.621,44.695,4.31,61.752,23.382l0,0c16.943,18.943,16.67,49.63,15.359,64.432  c-14.411-0.991-43.746-5.37-60.665-24.276C44.603,146.565,44.239,116.546,45.223,102.11z M61.671,351.066  c-17.068-19.083-17.432-49.103-16.448-63.539c14.616,0.621,44.695,4.31,61.752,23.382l0,0c16.943,18.943,16.67,49.63,15.359,64.432  c-7.904-0.543-20.296-2.113-32.668-6.532c-0.822-0.318-1.645-0.624-2.468-0.92C77.855,364.252,68.693,358.913,61.671,351.066z   M122.336,467.994c-14.411-0.991-43.746-5.37-60.665-24.276C44.61,424.643,44.239,394.643,45.222,380.2  c14.644,0.651,44.78,4.382,61.754,23.362l0,0C123.919,422.504,123.646,453.191,122.336,467.994z M204.204,443.715  C187.29,462.617,157.97,467,143.538,467.992c-1.311-14.804-1.582-45.49,15.36-64.431c16.974-18.979,47.11-22.711,61.754-23.362  C221.635,394.642,221.263,424.642,204.204,443.715z M176.232,368.8c-12.374,4.424-24.775,5.996-32.694,6.54  c-1.311-14.804-1.582-45.489,15.36-64.431c16.974-18.979,47.11-22.711,61.754-23.362c0.983,14.443,0.612,44.442-16.448,63.517  c-7.031,7.857-16.207,13.2-25.565,16.839C177.836,368.191,177.034,368.49,176.232,368.8z"/>
<path d="M132.885,85.764c5.523,0,10-4.477,10-10V39.667c0-5.523-4.477-10-10-10s-10,4.477-10,10v36.098  C122.885,81.287,127.362,85.764,132.885,85.764z"/>
<path d="M132.885,20.113c5.523,0,10-4.477,10-10V10c0-5.523-4.477-10-10-10s-10,4.477-10,10v0.113  C122.885,15.636,127.362,20.113,132.885,20.113z"/>
<path d="M93.685,84.572c5.523,0,10-4.477,10-10V49.489c0-5.523-4.477-10-10-10s-10,4.477-10,10v25.083  C83.685,80.095,88.162,84.572,93.685,84.572z"/>
<path d="M93.685,29.935c5.523,0,10-4.477,10-10v-0.113c0-5.523-4.477-10-10-10s-10,4.477-10,10v0.113  C83.685,25.458,88.162,29.935,93.685,29.935z"/>
<path d="M172.085,84.572c5.523,0,10-4.477,10-10V49.489c0-5.523-4.477-10-10-10s-10,4.477-10,10v25.083  C162.085,80.095,166.562,84.572,172.085,84.572z"/>
<path d="M172.085,29.935c5.523,0,10-4.477,10-10v-0.113c0-5.523-4.477-10-10-10s-10,4.477-10,10v0.113  C162.085,25.458,166.562,29.935,172.085,29.935z"/>
<path d="M378.885,178.445c5.523,0,10-4.477,10-10v-36.098c0-5.523-4.477-10-10-10s-10,4.477-10,10v36.098  C368.885,173.968,373.362,178.445,378.885,178.445z"/>
<path d="M378.885,112.794c5.523,0,10-4.477,10-10v-0.113c0-5.523-4.477-10-10-10s-10,4.477-10,10v0.113  C368.885,108.317,373.362,112.794,378.885,112.794z"/>
<path d="M339.685,177.253c5.523,0,10-4.477,10-10V142.17c0-5.523-4.477-10-10-10s-10,4.477-10,10v25.083  C329.685,172.776,334.162,177.253,339.685,177.253z"/>
<path d="M339.685,122.616c5.523,0,10-4.477,10-10v-0.113c0-5.523-4.477-10-10-10s-10,4.477-10,10v0.113  C329.685,118.139,334.162,122.616,339.685,122.616z"/>
<path d="M418.085,177.253c5.523,0,10-4.477,10-10V142.17c0-5.523-4.477-10-10-10s-10,4.477-10,10v25.083  C408.085,172.776,412.562,177.253,418.085,177.253z"/>
<path d="M418.085,122.616c5.523,0,10-4.477,10-10v-0.113c0-5.523-4.477-10-10-10s-10,4.477-10,10v0.113  C408.085,118.139,412.562,122.616,418.085,122.616z"/>
<path d="M253.386,492h-0.13c-5.523,0-10,4.477-10,10s4.477,10,10,10h0.13c5.523,0,10-4.477,10-10S258.909,492,253.386,492z"/>
<path d="M502,492H388.885v-3.921c16.601-0.914,53.691-5.846,76.225-31.028c27.035-30.227,21.921-77.801,20.514-87.516  c-0.067-1.112-0.321-2.222-0.77-3.283c-1.485-3.519-4.846-5.884-8.66-6.095c-0.481-0.026-3.241-0.161-7.564-0.06  c23.029-30.247,18.337-73.947,16.994-83.214c-0.067-1.112-0.321-2.222-0.77-3.283c-1.486-3.519-4.846-5.884-8.66-6.095  c-0.484-0.027-3.269-0.162-7.629-0.058c23.103-30.25,18.403-74.024,17.059-83.299c-0.067-1.112-0.321-2.222-0.77-3.283  c-1.486-3.519-4.846-5.884-8.66-6.095c-2.307-0.126-56.853-2.748-86.204,30.072c-4.577,5.118-8.197,10.766-11.053,16.663  c-2.856-5.897-6.476-11.545-11.053-16.663l0,0c-29.351-32.82-83.897-30.202-86.204-30.073c-3.814,0.211-7.168,2.584-8.654,6.103  c-0.432,1.023-0.683,2.094-0.76,3.167c-1.322,9.035-6.151,53.035,17.043,83.406c-4.36-0.103-7.145,0.032-7.629,0.059  c-3.814,0.211-7.168,2.584-8.654,6.103c-0.432,1.023-0.683,2.094-0.76,3.167c-1.321,9.026-6.141,52.951,16.978,83.32  c-4.323-0.101-7.083,0.034-7.563,0.061c-3.814,0.211-7.168,2.584-8.654,6.103c-0.432,1.024-0.683,2.094-0.76,3.167  c-1.384,9.462-6.639,57.282,20.5,87.625c22.491,25.134,59.487,30.094,76.12,31.022V492h-81.551c-5.523,0-10,4.477-10,10  s4.477,10,10,10H502c5.523,0,10-4.477,10-10S507.523,492,502,492z M450.204,443.715C433.29,462.617,403.97,467,389.538,467.992  c-1.311-14.804-1.582-45.49,15.36-64.431c16.974-18.979,47.11-22.711,61.754-23.362  C467.635,394.642,467.263,424.642,450.204,443.715z M422.237,368.798c-12.376,4.425-24.779,5.998-32.699,6.542  c-1.311-14.804-1.582-45.489,15.36-64.431c16.974-18.979,47.11-22.711,61.754-23.362c0.983,14.443,0.612,44.442-16.448,63.517  c-7.033,7.859-16.211,13.202-25.571,16.841C423.834,368.192,423.035,368.49,422.237,368.798z M404.898,218.173  c16.974-18.979,47.11-22.711,61.754-23.362c0.983,14.443,0.612,44.442-16.448,63.516c-16.914,18.902-46.233,23.285-60.666,24.277  C388.228,267.8,387.957,237.114,404.898,218.173z M291.223,194.791c14.616,0.621,44.695,4.31,61.752,23.382l0,0  c16.941,18.942,16.669,49.629,15.359,64.432c-14.411-0.991-43.746-5.37-60.665-24.276  C290.603,239.247,290.239,209.227,291.223,194.791z M307.671,351.066c-17.068-19.083-17.432-49.103-16.448-63.539  c14.616,0.621,44.695,4.31,61.752,23.382l0,0c16.943,18.943,16.67,49.63,15.359,64.432c-7.905-0.543-20.299-2.113-32.672-6.534  c-0.819-0.317-1.639-0.622-2.458-0.916C323.858,364.254,314.695,358.914,307.671,351.066z M368.336,467.994  c-14.411-0.991-43.746-5.37-60.665-24.276c-17.061-19.075-17.432-49.075-16.449-63.518c14.644,0.651,44.78,4.382,61.754,23.362l0,0  C369.919,422.504,369.646,453.191,368.336,467.994z"/>
<g>
</g>
<g>
</g>
<g>
</g>
<g>
</g>
<g>
</g>
<g>
</g>
<g>
</g>
<g>
</g>
<g>
</g>
<g>
</g>
<g>
</g>
<g>
</g>
<g>
</g>
<g>
</g>
<g>
</g>
</svg>
