<?xml version="1.0" encoding="iso-8859-1"?>
<!-- Generator: Adobe Illustrator 19.0.0, SVG Export Plug-In . SVG Version: 6.00 Build 0)  -->
<svg xmlns="http://www.w3.org/2000/svg" xmlns:xlink="http://www.w3.org/1999/xlink" version="1.1" id="Capa_1" x="0px" y="0px" viewBox="0 0 512 512" style="enable-background:new 0 0 512 512;" xml:space="preserve">
<path style="fill:#FFC943;" d="M337.558,158.569C323.806,71.103,292.464,10,256,10c-32.042,0-60.128,47.182-75.801,117.972  c-1.837,8.297-3.503,16.919-4.986,25.826c0,0,66.558,39.625,81.172,120.746C270.333,194.333,337.558,158.569,337.558,158.569z"/>
<g>
	<path style="fill:#30995B;" d="M256,502l86.101-86.101c20.349-20.349,53.341-20.349,73.69,0l66.331,66.331   c4.911,4.911-0.492,13.013-6.913,10.365L397.842,460.7c-12.609-5.198-26.753-5.245-39.396-0.132L256,502z"/>
	<path style="fill:#30995B;" d="M256,502l-86.101-86.101c-20.349-20.349-53.341-20.349-73.69,0L29.877,482.23   c-4.911,4.911,0.492,13.013,6.913,10.365l77.367-31.895c12.609-5.198,26.753-5.245,39.396-0.132L256,502z"/>
</g>
<g>
	<path style="fill:#ACD670;" d="M140.471,322.019c0,56.529,59.176,95.05,115.529,95.05l0,0V294.527   c0-89.75-72.53-162.506-162-162.506l0,0c0,0,46.471,53.57,46.471,150.626C140.471,333.87,140.471,303.355,140.471,322.019z"/>
	<path style="fill:#ACD670;" d="M366,311.907C366,386,316.751,417.07,256,417.07l0,0V311.894C256,223.988,305.249,154,366,154l0,0   V311.907z"/>
</g>
<path d="M227.968,366.327c-0.013-0.005-0.102-0.038-0.115-0.043l-0.036-0.013c-5.167-1.952-10.938,0.649-12.892,5.813  c-1.954,5.165,0.646,10.935,5.81,12.891l0.151,0.057c1.166,0.441,2.362,0.651,3.539,0.651c4.037,0,7.84-2.463,9.354-6.462  C235.734,374.055,233.133,368.282,227.968,366.327z"/>
<path d="M205.465,354.115C191.222,343.123,184,329.172,184,312.652V256c0-5.523-4.477-10-10-10s-10,4.477-10,10v56.652  c0,22.717,10.113,42.53,29.245,57.296c1.819,1.404,3.969,2.084,6.103,2.084c2.993,0,5.954-1.338,7.924-3.891  C210.646,363.77,209.837,357.49,205.465,354.115z"/>
<path d="M489.194,475.159l-66.331-66.332c-11.73-11.73-27.327-18.19-43.917-18.19c-16.589,0-32.186,6.46-43.916,18.19L266,477.857  v-51.088c29.997-1.665,55.537-10.861,74.282-26.897C363.649,379.882,376,349.465,376,311.907V154c0-5.523-4.477-10-10-10  c-6.902,0-13.702,0.8-20.352,2.351c-7.119-40.091-17.957-74.365-31.548-99.606C293.297,8.11,271.023,0,256,0  c-13.301,0-33.207,6.439-52.503,37.115c-13.552,21.544-24.984,52.215-33.061,88.696c-0.933,4.214-1.825,8.524-2.67,12.901  c-22.367-10.695-47.38-16.691-73.765-16.691c-3.907,0-7.449,2.285-9.08,5.835c-1.631,3.55-1.036,7.735,1.51,10.699  c0.44,0.513,44.04,52.328,44.04,144.091v39.373c0,29.443,14.404,56.671,40.559,76.667c21.009,16.062,47.868,26.017,74.971,28.007  v51.164l-69.03-69.03c-11.73-11.73-27.327-18.19-43.916-18.19c-16.59,0-32.186,6.46-43.917,18.19l-66.331,66.332  c-5.583,5.583-6.422,14.069-2.042,20.637c4.38,6.567,12.536,9.054,19.837,6.045l77.368-31.895  c10.251-4.226,21.558-4.263,31.835-0.107l102.283,41.366c0.019,0.008,0.039,0.016,0.058,0.024l0.104,0.042  c0-0.001,0.001-0.002,0.001-0.003C253.41,511.736,254.674,512,256,512c1.326,0,2.59-0.264,3.748-0.733  c0,0.001,0.001,0.002,0.001,0.004l0.104-0.042c0.019-0.008,0.039-0.015,0.058-0.024l102.283-41.366  c10.279-4.157,21.585-4.118,31.835,0.107l77.368,31.895c7.3,3.012,15.457,0.523,19.837-6.045  C495.616,489.228,494.776,480.741,489.194,475.159z M239.309,187.958h34.095V203c0,0.468,0.043,0.925,0.106,1.376  c-6.533,11.006-11.977,23.044-16.249,35.849c-4.455-13.438-10.514-26.146-17.952-37.897L239.309,187.958L239.309,187.958z   M201.476,88.912h17.833V118h-26.474C195.458,107.618,198.355,97.897,201.476,88.912z M239.309,88.912h34.095V118h-34.095  L239.309,88.912L239.309,88.912z M293.404,50.859c3.18,5.402,6.256,11.436,9.195,18.053h-9.195V50.859z M310.451,88.912  c3.132,9.002,6.037,18.73,8.668,29.088h-25.714V88.912H310.451z M273.404,138v29.958h-34.095V138H273.404z M356,311.907  c0,77.382-56.766,92.574-90,94.825v-94.838c0-76.557,39.539-139.714,90-147.16V311.907z M303.73,167.958h-10.326V138h30.286  c1.006,4.924,1.952,9.961,2.834,15.101C318.565,156.911,310.931,161.88,303.73,167.958z M273.404,26.636v42.276h-34.095V26.5  c0-0.133-0.015-0.263-0.02-0.395C244.806,22.107,250.418,20,256,20C261.836,20,267.682,22.303,273.404,26.636z M219.309,49.548  v19.364h-9.984C212.509,61.746,215.85,55.268,219.309,49.548z M188.303,138h31.006v29.958h-8.574  c-7.581-7.038-15.788-13.406-24.536-18.999C186.864,145.258,187.571,141.606,188.303,138z M150.471,322.02v-39.373  c0-68.054-21.886-115.393-36.399-139.302C188.431,153.231,246,217.261,246,294.527v17.366v94.745  C198.151,402.543,150.471,369.578,150.471,322.02z M157.304,451.297c-15.162-6.132-31.837-6.077-46.957,0.158l-60.49,24.937  l53.423-53.423c8.208-8.208,18.991-12.313,29.773-12.313c10.783,0,21.565,4.104,29.774,12.313l51.315,51.315L157.304,451.297z   M401.653,451.455c-7.625-3.144-15.646-4.716-23.669-4.716c-7.885,0-15.773,1.519-23.288,4.559l-56.839,22.987l51.315-51.315  c16.417-16.417,43.13-16.417,59.547,0l53.423,53.423L401.653,451.455z"/>
<g>
</g>
<g>
</g>
<g>
</g>
<g>
</g>
<g>
</g>
<g>
</g>
<g>
</g>
<g>
</g>
<g>
</g>
<g>
</g>
<g>
</g>
<g>
</g>
<g>
</g>
<g>
</g>
<g>
</g>
</svg>
