<?xml version="1.0" encoding="iso-8859-1"?>
<!-- Generator: Adobe Illustrator 19.0.0, SVG Export Plug-In . SVG Version: 6.00 Build 0)  -->
<svg xmlns="http://www.w3.org/2000/svg" xmlns:xlink="http://www.w3.org/1999/xlink" version="1.1" id="Capa_1" x="0px" y="0px" viewBox="0 0 512.001 512.001" style="enable-background:new 0 0 512.001 512.001;" xml:space="preserve">
<path style="fill:#D8902A;" d="M370.964,419.984H205.412c-72.342,0-130.986-58.645-130.986-130.986s58.645-130.986,130.986-130.986  h165.552V419.984z"/>
<circle style="fill:#FFC943;" cx="370.962" cy="289.12" r="130.986"/>
<circle style="fill:#D8902A;" cx="370.962" cy="289.12" r="78.992"/>
<circle style="fill:#FFC943;" cx="370.962" cy="289.12" r="35.996"/>
<path d="M363.906,296.208c1.955,1.968,4.524,2.953,7.094,2.953c2.548,0,5.096-0.968,7.046-2.905  c3.918-3.893,3.939-10.223,0.047-14.141l-0.073-0.074c-3.894-3.919-10.224-3.939-14.141-0.047  c-3.918,3.893-3.939,10.223-0.047,14.141L363.906,296.208z"/>
<path d="M342.027,373.171c9.599,3.293,19.437,4.897,29.165,4.897c23.14,0,45.638-9.085,62.699-26.144  c34.697-34.697,34.697-91.156,0-125.853c-34.696-34.695-91.154-34.697-125.852,0c-23.169,23.17-31.725,57.08-22.328,88.498  c1.583,5.29,7.154,8.297,12.445,6.714c5.29-1.583,8.296-7.154,6.714-12.445c-7.288-24.366-0.655-50.662,17.309-68.626  c26.901-26.9,70.671-26.901,97.571,0c26.9,26.9,26.9,70.671,0,97.571c-18.788,18.788-46.083,25.099-71.234,16.472  c-5.224-1.792-10.91,0.991-12.703,6.213C334.02,365.692,336.802,371.379,342.027,373.171z"/>
<path d="M322.179,337.782c-3.905-3.905-10.236-3.905-14.142,0c-3.905,3.905-3.905,10.236,0,14.142l0.205,0.204  c1.95,1.934,4.496,2.899,7.04,2.899c2.573,0,5.145-0.987,7.1-2.958c3.889-3.922,3.862-10.252-0.059-14.141L322.179,337.782z"/>
<path d="M470.766,203.521c3.895-3.916,3.878-10.246-0.037-14.141l-0.094-0.093c-3.916-3.895-10.246-3.879-14.141,0.037  c-3.895,3.916-3.878,10.246,0.037,14.141l0.094,0.093c1.951,1.941,4.502,2.911,7.052,2.911  C466.246,206.468,468.812,205.485,470.766,203.521z"/>
<path d="M211.048,206.476c2.559,0,5.118-0.976,7.07-2.929l0.101-0.101c3.905-3.905,3.905-10.236,0-14.142  c-3.905-3.905-10.236-3.905-14.142,0l-0.101,0.101c-3.905,3.905-3.905,10.236,0,14.142  C205.931,205.5,208.489,206.476,211.048,206.476z"/>
<path d="M370.964,335.12c25.361,0,45.995-20.634,45.995-45.995s-20.634-45.995-45.995-45.995s-45.995,20.634-45.995,45.995  S345.602,335.12,370.964,335.12z M370.964,263.127c14.335,0,25.997,11.663,25.997,25.997s-11.663,25.997-25.997,25.997  s-25.997-11.663-25.997-25.997S356.629,263.127,370.964,263.127z"/>
<path d="M10.136,491.977H9.999c-5.522,0-9.999,4.477-9.999,9.999s4.477,9.999,9.999,9.999h0.137c5.522,0,9.999-4.477,9.999-9.999  S15.658,491.977,10.136,491.977z"/>
<path d="M501.948,491.975H39.982c-5.522,0-9.999,4.477-9.999,9.999s4.477,9.999,9.999,9.999h461.966  c5.522,0,9.999-4.477,9.999-9.999S507.47,491.975,501.948,491.975z"/>
<path d="M501.811,20.024h0.137c5.522,0,9.999-4.477,9.999-9.999s-4.477-9.999-9.999-9.999h-0.137c-5.522,0-9.999,4.477-9.999,9.999  S496.289,20.024,501.811,20.024z"/>
<path d="M9.999,20.025h461.966c5.522,0,9.999-4.477,9.999-9.999s-4.477-9.999-9.999-9.999H9.999C4.477,0.027,0,4.504,0,10.026  S4.477,20.025,9.999,20.025z"/>
<path d="M10.136,409.985H9.999c-5.522,0-9.999,4.477-9.999,9.999c0,5.522,4.477,9.999,9.999,9.999h0.137  c5.522,0,9.999-4.477,9.999-9.999C20.135,414.462,15.658,409.985,10.136,409.985z"/>
<path d="M39.982,429.982H76.99c5.522,0,9.999-4.477,9.999-9.999c0-5.522-4.477-9.999-9.999-9.999H39.982  c-5.522,0-9.999,4.477-9.999,9.999C29.983,425.505,34.459,429.982,39.982,429.982z"/>
<path d="M501.948,409.985h-58.591c9.737-5.824,18.92-12.918,27.298-21.296c45.52-45.519,54.473-115.976,21.771-171.335  c-2.809-4.756-8.941-6.332-13.695-3.524c-4.755,2.809-6.332,8.94-3.524,13.695c28.059,47.5,20.373,107.959-18.693,147.024  c-47.173,47.174-123.928,47.174-171.101,0c-47.173-47.173-47.173-123.929,0-171.102c22.724-22.724,52.688-34.806,83.127-35.436  h2.424c0.204,0,0.404-0.018,0.605-0.031c20.898,0.091,41.914,5.578,60.868,16.774c4.753,2.809,10.886,1.232,13.695-3.524  c2.809-4.755,1.231-10.886-3.524-13.695c-23.415-13.832-49.53-20.21-75.317-19.523H205.412c-23.67,0-45.989,5.871-65.595,16.221  c-0.693-0.152-1.411-0.238-2.15-0.238H9.999c-5.522,0-9.999,4.477-9.999,9.999c0,5.522,4.477,9.999,9.999,9.999h101.44  c-18.464,16.541-32.553,37.866-40.301,62.008H9.999C4.477,246.001,0,250.477,0,256c0,5.522,4.477,9.999,9.999,9.999h56.313  c-1.234,7.487-1.886,15.167-1.886,22.998c0,13.335,1.862,26.243,5.337,38.479H9.999c-5.522,0-9.999,4.477-9.999,9.999  s4.477,9.999,9.999,9.999h67.139c11.925,26.054,31.56,47.868,55.969,62.511H109.67c-5.522,0-9.999,4.477-9.999,9.999  c0,5.522,4.477,9.999,9.999,9.999h392.278c5.522,0,9.999-4.477,9.999-9.999C511.947,414.461,507.47,409.985,501.948,409.985z   M84.424,288.997c0-66.713,54.274-120.987,120.987-120.987h93.138c-9.764,5.852-18.941,12.958-27.278,21.295  c-54.97,54.97-54.97,144.414,0,199.384c8.378,8.378,17.559,15.471,27.293,21.296h-55.213c-9.091-5.499-17.543-12.11-25.131-19.698  c-42.659-42.659-51.053-108.678-20.412-160.547c2.809-4.755,1.231-10.886-3.524-13.695c-4.753-2.81-10.886-1.232-13.695,3.524  c-35.283,59.729-25.624,135.746,23.49,184.86c1.911,1.911,3.88,3.754,5.882,5.556h-4.551  C138.699,409.985,84.424,355.711,84.424,288.997z"/>
<path d="M9.999,102.017h0.137c5.522,0,9.999-4.477,9.999-9.999c0-5.522-4.477-9.999-9.999-9.999H9.999  C4.477,82.019,0,86.495,0,92.018C0,97.54,4.477,102.017,9.999,102.017z"/>
<path d="M39.982,82.018c-5.522,0-9.999,4.477-9.999,9.999c0,5.522,4.477,9.999,9.999,9.999h65.005c5.522,0,9.999-4.477,9.999-9.999  c0-5.522-4.477-9.999-9.999-9.999H39.982z"/>
<path d="M137.667,82.019c-5.522,0-9.999,4.477-9.999,9.999c0,5.522,4.477,9.999,9.999,9.999h233.962  c5.522,0,9.999-4.477,9.999-9.999c0-5.522-4.477-9.999-9.999-9.999H137.667z"/>
<path d="M511.947,92.018c0-5.522-4.477-9.999-9.999-9.999h-94.309c-5.522,0-9.999,4.477-9.999,9.999  c0,5.522,4.477,9.999,9.999,9.999h94.309C507.47,102.017,511.947,97.54,511.947,92.018z"/>
<g>
</g>
<g>
</g>
<g>
</g>
<g>
</g>
<g>
</g>
<g>
</g>
<g>
</g>
<g>
</g>
<g>
</g>
<g>
</g>
<g>
</g>
<g>
</g>
<g>
</g>
<g>
</g>
<g>
</g>
</svg>
