<?xml version="1.0" encoding="iso-8859-1"?>
<!-- Generator: Adobe Illustrator 19.0.0, SVG Export Plug-In . SVG Version: 6.00 Build 0)  -->
<svg xmlns="http://www.w3.org/2000/svg" xmlns:xlink="http://www.w3.org/1999/xlink" version="1.1" id="Capa_1" x="0px" y="0px" viewBox="0 0 512 512" style="enable-background:new 0 0 512 512;" xml:space="preserve">
<g>
	<polygon style="fill:#DFDCE5;" points="363.997,211.46 363.997,123.33 432.998,54.663 502,123.33 502,457.338 363.997,457.338  "/>
	<polygon style="fill:#DFDCE5;" points="225.839,211.46 225.839,123.33 294.841,54.663 363.843,123.33 363.843,457.338    225.839,457.338  "/>
</g>
<rect x="10" y="315.338" style="fill:#EF7159;" width="274.006" height="142.003"/>
<polygon style="fill:#CE4A30;" points="284.007,315.335 284.007,457.338 448.011,457.338 448.011,315.76 366.788,210.376 "/>
<polygon style="fill:#A766B2;" points="284.007,315.335 366.009,209.332 91.851,209.332 11.174,315.335 "/>
<rect x="331.868" y="329.028" style="fill:#FFC943;" width="68.582" height="128.303"/>
<path d="M509.054,116.242l-69.002-68.669c-3.9-3.882-10.207-3.882-14.107,0l-62.024,61.725l-62.024-61.725  c-3.9-3.882-10.207-3.882-14.107,0l-69.002,68.669c-1.886,1.877-2.946,4.428-2.946,7.088v76.002H91.851  c-3.099,0-6.021,1.436-7.915,3.888L3.259,307.697c-0.214,0.278-0.411,0.563-0.592,0.855C1.017,310.336,0,312.714,0,315.335v142.003  c0,5.523,4.478,10,10,10h492c5.522,0,10-4.477,10-10V123.33C512,120.67,510.94,118.119,509.054,116.242z M235.84,179.331h58.314  c5.522,0,10-4.477,10-10c0-5.523-4.478-10-10-10H235.84v-31.845l59.001-58.716l59.001,58.716v71.846H235.84L235.84,179.331  L235.84,179.331z M96.763,219.332h248.866l-66.53,86.002H30.353L96.763,219.332z M20,424.337h159.291c5.522,0,10-4.477,10-10  s-4.478-10-10-10H20v-19h41.487c5.522,0,10-4.477,10-10s-4.478-10-10-10H20v-40.001h254.006v122.003H20V424.337z M377.5,393.185  l12.949-24.228v48.455L377.5,393.185z M366.161,371.97l-17.604-32.938h35.209L366.161,371.97z M354.821,393.185l-12.949,24.228  v-48.455L354.821,393.185z M348.556,447.338l17.604-32.938l17.604,32.938h-19.768H348.556z M410.449,447.338V329.032  c0-5.523-4.478-10-10-10h-68.577c-5.522,0-10,4.477-10,10v118.306h-27.865V318.751l71.975-93.04l72.029,93.455v128.172H410.449z   M458.011,447.338V315.76c0-2.208-0.731-4.355-2.079-6.104l-81.223-105.384c-0.104-0.134-0.218-0.254-0.326-0.382  c-0.121-0.186-0.253-0.361-0.386-0.538v-75.865l59.001-58.716L492,127.486v24.845h-32.655c-5.522,0-10,4.477-10,10  c0,5.523,4.478,10,10,10H492v29.001h-56.047c-5.522,0-10,4.477-10,10c0,5.523,4.478,10,10,10H492v226.005H458.011z"/>
<path d="M211.803,404.337h-0.131c-5.522,0-10,4.477-10,10s4.478,10,10,10h0.131c5.522,0,10-4.477,10-10  S217.325,404.337,211.803,404.337z"/>
<path d="M403.572,201.332h-0.131c-5.522,0-10,4.477-10,10c0,5.523,4.478,10,10,10h0.131c5.522,0,10-4.477,10-10  C413.573,205.809,409.095,201.332,403.572,201.332z"/>
<g>
</g>
<g>
</g>
<g>
</g>
<g>
</g>
<g>
</g>
<g>
</g>
<g>
</g>
<g>
</g>
<g>
</g>
<g>
</g>
<g>
</g>
<g>
</g>
<g>
</g>
<g>
</g>
<g>
</g>
</svg>
