<?xml version="1.0" encoding="iso-8859-1"?>
<!-- Generator: Adobe Illustrator 19.0.0, SVG Export Plug-In . SVG Version: 6.00 Build 0)  -->
<svg xmlns="http://www.w3.org/2000/svg" xmlns:xlink="http://www.w3.org/1999/xlink" version="1.1" id="Capa_1" x="0px" y="0px" viewBox="0 0 512 512" style="enable-background:new 0 0 512 512;" xml:space="preserve">
<g>
	<path style="fill:#FFC943;" d="M374.415,342.124l-0.016,0.018c0.065,0.266,10.345,62.066-22.007,98.238   c-32.372,36.175-93.901,34.143-94.172,34.136l-0.008,0.01l0.012-0.014l-0.008,0.009l0.01-0.011   c-0.083-0.514-11.863-63.514,20.436-99.626C311.091,338.622,374.415,342.124,374.415,342.124z"/>
	<path style="fill:#FFC943;" d="M233.339,374.884c32.299,36.111,20.519,99.112,20.436,99.626l0.01,0.011l-0.008-0.009l0.012,0.014   l-0.008-0.01c-0.271,0.007-61.8,2.039-94.172-34.136c-32.351-36.172-22.072-97.972-22.007-98.238l-0.016-0.018   C137.587,342.124,200.91,338.622,233.339,374.884z"/>
	<path style="fill:#FFC943;" d="M374.415,228.57l-0.016,0.018c0.065,0.266,10.345,62.066-22.007,98.238   c-32.372,36.175-93.901,34.143-94.172,34.136l-0.008,0.01l0.012-0.014l-0.008,0.009l0.01-0.011   c-0.083-0.514-11.863-63.514,20.436-99.626C311.091,225.068,374.415,228.57,374.415,228.57z"/>
	<path style="fill:#FFC943;" d="M233.339,261.33c32.299,36.111,20.519,99.112,20.436,99.626l0.01,0.011l-0.008-0.009l0.012,0.014   l-0.008-0.01c-0.271,0.007-61.8,2.039-94.172-34.136c-32.351-36.172-22.072-97.972-22.007-98.238l-0.016-0.018   C137.587,228.57,200.91,225.068,233.339,261.33z"/>
	<path style="fill:#FFC943;" d="M374.415,115.083l-0.016,0.018c0.065,0.266,10.345,62.066-22.007,98.238   c-32.372,36.175-93.901,34.143-94.172,34.136l-0.008,0.01l0.012-0.014l-0.008,0.009l0.01-0.011   c-0.083-0.514-11.863-63.514,20.436-99.626C311.091,111.581,374.415,115.083,374.415,115.083z"/>
	<path style="fill:#FFC943;" d="M233.339,147.843c32.299,36.111,20.519,99.112,20.436,99.626l0.01,0.011l-0.008-0.009l0.012,0.014   l-0.008-0.01c-0.271,0.007-61.8,2.039-94.172-34.136c-32.351-36.172-22.072-97.972-22.007-98.238l-0.016-0.018   C137.587,115.083,200.91,111.581,233.339,147.843z"/>
</g>
<path d="M384.396,227.949c-0.067-1.087-0.313-2.173-0.746-3.214c-1.473-3.547-4.848-5.937-8.683-6.149  c-0.744-0.04-6.003-0.296-13.978,0.106c31.486-36.723,24.984-93.607,23.406-104.229c-0.069-1.109-0.323-2.217-0.771-3.275  c-1.487-3.515-4.847-5.877-8.658-6.088c-2.779-0.152-68.53-3.314-103.758,36.078c-6.593,7.371-11.531,15.67-15.208,24.311  c-3.677-8.64-8.615-16.939-15.208-24.311l0,0c-35.229-39.393-100.977-36.231-103.759-36.079c-3.811,0.211-7.162,2.583-8.649,6.098  c-0.429,1.014-0.68,2.072-0.76,3.136c-1.543,10.279-8.229,67.481,23.386,104.359c-7.974-0.402-13.232-0.146-13.977-0.105  c-3.835,0.212-7.202,2.611-8.675,6.159c-0.414,0.996-0.656,2.034-0.734,3.076c-1.544,10.292-8.235,67.556,23.448,104.429  c-8.008-0.406-13.292-0.149-14.039-0.109c-3.835,0.212-7.202,2.611-8.675,6.159c-0.414,0.996-0.656,2.034-0.734,3.075  c-1.562,10.408-8.393,68.862,24.532,105.676c28.021,31.313,74.94,36.547,93.78,37.351V502c0,5.523,4.477,10,10,10  c5.523,0,10-4.477,10-10v-17.595c18.777-0.788,65.83-5.98,93.908-37.357c32.792-36.665,26.147-94.795,24.55-105.544  c-0.067-1.087-0.313-2.173-0.746-3.214c-1.473-3.547-4.848-5.937-8.683-6.149c-0.746-0.041-6.03-0.298-14.039,0.108  C392.483,295.528,385.975,238.578,384.396,227.949z M286.116,154.509c22.208-24.833,62.071-28.888,79.371-29.433  c1.396,17.027,1.806,56.602-20.547,81.595c-22.112,24.71-60.911,29.647-77.984,30.6  C265.188,219.795,263.954,179.287,286.116,154.509z M146.515,125.076c17.301,0.545,57.165,4.602,79.37,29.433l0,0  c22.164,24.78,20.929,65.29,19.16,82.763c-17.047-0.951-55.865-5.883-77.982-30.599  C144.709,181.679,145.118,142.104,146.515,125.076z M146.514,238.563c17.3,0.544,57.163,4.6,79.371,29.433l0,0  c22.162,24.778,20.928,65.289,19.16,82.763c-17.047-0.951-55.864-5.883-77.982-30.6  C144.709,295.166,145.118,255.591,146.514,238.563z M245.045,464.313c-17.047-0.951-55.864-5.883-77.982-30.599  c-22.354-24.995-21.945-64.569-20.549-81.597c17.3,0.544,57.163,4.6,79.371,29.433l0,0  C248.048,406.329,246.813,446.839,245.045,464.313z M344.94,433.712c-22.112,24.71-60.91,29.647-77.983,30.6  c-1.768-17.476-3.001-57.985,19.16-82.762c22.208-24.833,62.071-28.889,79.371-29.433  C366.883,369.145,367.293,408.719,344.94,433.712z M344.94,320.158c-22.112,24.71-60.91,29.647-77.983,30.6  c-1.768-17.476-3.001-57.985,19.16-82.762c22.208-24.833,62.071-28.889,79.371-29.433  C366.883,255.591,367.293,295.166,344.94,320.158z"/>
<path d="M255.937,106.127c5.523,0,10-4.477,10-10v-51.5c0-5.523-4.477-10-10-10s-10,4.477-10,10v51.5  C245.937,101.65,250.414,106.127,255.937,106.127z"/>
<path d="M255.938,20.138c5.523,0,10-4.477,10-10V10c0-5.523-4.477-10-10-10s-10,4.477-10,10v0.138  C245.938,15.661,250.415,20.138,255.938,20.138z"/>
<path d="M207.937,104.667c5.523,0,10-4.477,10-10V56.654c0-5.523-4.477-10-10-10s-10,4.477-10,10v38.012  C197.937,100.189,202.414,104.667,207.937,104.667z"/>
<path d="M207.938,32.165c5.523,0,10-4.477,10-10v-0.138c0-5.523-4.477-10-10-10s-10,4.477-10,10v0.138  C197.938,27.688,202.415,32.165,207.938,32.165z"/>
<path d="M303.937,104.667c5.523,0,10-4.477,10-10V56.654c0-5.523-4.477-10-10-10s-10,4.477-10,10v38.012  C293.937,100.189,298.414,104.667,303.937,104.667z"/>
<path d="M303.937,32.165c5.523,0,10-4.477,10-10v-0.138c0-5.523-4.477-10-10-10s-10,4.477-10,10v0.138  C293.937,27.688,298.414,32.165,303.937,32.165z"/>
<g>
</g>
<g>
</g>
<g>
</g>
<g>
</g>
<g>
</g>
<g>
</g>
<g>
</g>
<g>
</g>
<g>
</g>
<g>
</g>
<g>
</g>
<g>
</g>
<g>
</g>
<g>
</g>
<g>
</g>
</svg>
